<svg xmlns="http://www.w3.org/2000/svg" xmlns:xlink="http://www.w3.org/1999/xlink" width="89.757" height="45.795" viewBox="0 0 89.757 45.795">
  <defs>
    <clipPath id="clip-path">
      <rect id="Rectangle_53" data-name="Rectangle 53" width="45.118" height="29.603" fill="none"/>
    </clipPath>
  </defs>
  <g id="Group_299" data-name="Group 299" transform="translate(-237.541 -687.672)">
    <g id="Group_259" data-name="Group 259" transform="translate(237.541 703.864)">
      <g id="Group_218" data-name="Group 218" transform="translate(0 0)" clip-path="url(#clip-path)">
        <g id="Group_217" data-name="Group 217" transform="translate(2.369 2.57)">
          <g id="Group_205" data-name="Group 205" transform="translate(13.844 47.987)">
            <g id="Group_203" data-name="Group 203" transform="translate(7.983)">
              <path id="Path_222" data-name="Path 222" d="M516.428,386.675c-.172-.529-1.041-1.185-1.655-1.656a16,16,0,0,1-1.938-1.837,3.337,3.337,0,0,1-.883-1.273c-.016-.6-.024-1.532-.02-2.133.008-1.384-.034-2.77,0-4.156.013-.659-.029-3.36-.052-4.041a25.826,25.826,0,0,0-.1-3.5,10.6,10.6,0,0,1-2.946.193c.067.746.227,1.484.242,2.237.023,1.11.075,2.213.163,3.32.161,2.01.143,4.024.175,6.038.018,1.061.1,2.127.051,3.187a10.407,10.407,0,0,0-.088,2.127,1.614,1.614,0,0,0,.185.28,9.984,9.984,0,0,0,2.652,2.119,4.934,4.934,0,0,0,3.034,1.105,1.642,1.642,0,0,0,1.157-.5A1.678,1.678,0,0,0,516.428,386.675Z" transform="translate(-508.833 -368.077)" fill="#efcaa6"/>
              <path id="Path_223" data-name="Path 223" d="M511.874,369a7.6,7.6,0,0,0-.095-.928,10.6,10.6,0,0,1-2.946.193c.025.282.064.564.1.845A10.414,10.414,0,0,0,511.874,369Z" transform="translate(-508.833 -368.077)" fill="#efcaa7" opacity="0.5" style="mix-blend-mode: multiply;isolation: isolate"/>
              <path id="Path_224" data-name="Path 224" d="M516.646,392.769c-.172-.529-1.041-1.185-1.655-1.656-.067-.052-.131-.108-.2-.161a1.287,1.287,0,0,1-.536.678,1.162,1.162,0,0,1-1.442-.275c-.32-.38.061-.728.412-.846a3.025,3.025,0,0,1,.915-.126c-.377-.353-.735-.726-1.09-1.106l-.074-.081a2.582,2.582,0,0,1-1.693.291,2.532,2.532,0,0,1-1.591-1.2c0,.285,0,.571-.013.856a10.407,10.407,0,0,0-.088,2.127,1.612,1.612,0,0,0,.185.28,9.984,9.984,0,0,0,2.651,2.119,4.934,4.934,0,0,0,3.034,1.105,1.642,1.642,0,0,0,1.157-.5A1.678,1.678,0,0,0,516.646,392.769Z" transform="translate(-509.051 -374.171)" fill="#efcaa7" opacity="0.5" style="mix-blend-mode: multiply;isolation: isolate"/>
              <path id="Path_225" data-name="Path 225" d="M512.3,391.9a2.271,2.271,0,0,1,2.162-1.125c-.2-.2-.4-.4-.6-.6-1.644-.224-2.374,1.339-2.683,2.852.178.15.367.291.556.427A5.189,5.189,0,0,1,512.3,391.9Z" transform="translate(-509.541 -374.734)" fill="#faa819"/>
              <path id="Path_226" data-name="Path 226" d="M516.646,393.028c-.156-.483-.9-1.072-1.491-1.529a1.8,1.8,0,0,1-1.792.916,3.517,3.517,0,0,1-1.8-1.213,24.671,24.671,0,0,1-1.874-2.053c0,.085,0,.17-.008.255a10.407,10.407,0,0,0-.088,2.127,1.612,1.612,0,0,0,.185.28,9.984,9.984,0,0,0,2.651,2.119,4.934,4.934,0,0,0,3.034,1.105,1.642,1.642,0,0,0,1.157-.5A1.678,1.678,0,0,0,516.646,393.028Z" transform="translate(-509.051 -374.43)" fill="#f58020"/>
              <path id="Path_227" data-name="Path 227" d="M516.77,394.069a1.075,1.075,0,0,1-.2.7c-.206.268-.622.251-.921.226a5.293,5.293,0,0,1-1.478-.328,9.313,9.313,0,0,1-2.842-1.867c-.439-.405-.856-.833-1.3-1.229a4.376,4.376,0,0,1-.446-.441,4.064,4.064,0,0,0,.015,1,1.614,1.614,0,0,0,.185.28,9.984,9.984,0,0,0,2.652,2.119,4.934,4.934,0,0,0,3.034,1.105,1.642,1.642,0,0,0,1.157-.5A1.32,1.32,0,0,0,516.77,394.069Z" transform="translate(-509.051 -375.028)" fill="#f26322"/>
            </g>
            <g id="Group_204" data-name="Group 204" transform="translate(0 0.126)">
              <path id="Path_228" data-name="Path 228" d="M497.5,387.313c.12-.543.923-1.28,1.487-1.808a16.274,16.274,0,0,0,1.751-2.018,3.364,3.364,0,0,0,.755-1.352c-.043-.6-.127-1.528-.189-2.124-.142-1.377-.236-2.76-.4-4.137-.078-.655-.3-3.347-.342-4.027a25.661,25.661,0,0,1-.242-3.5,10.6,10.6,0,0,0,2.951-.094c.006.749-.083,1.5-.024,2.249.085,1.107.14,2.21.16,3.32.035,2.016.249,4.019.411,6.027.085,1.058.11,2.126.26,3.177a10.529,10.529,0,0,1,.294,2.108,1.569,1.569,0,0,1-.156.3,10.016,10.016,0,0,1-2.433,2.367,4.935,4.935,0,0,1-2.913,1.394,1.637,1.637,0,0,1-1.2-.383A1.682,1.682,0,0,1,497.5,387.313Z" transform="translate(-497.405 -368.258)" fill="#efcaa6"/>
              <path id="Path_229" data-name="Path 229" d="M501.567,369.285a7.425,7.425,0,0,1,0-.933,10.6,10.6,0,0,0,2.951-.094c0,.284-.009.568-.022.851A10.422,10.422,0,0,1,501.567,369.285Z" transform="translate(-498.656 -368.258)" fill="#efcaa7" opacity="0.5" style="mix-blend-mode: multiply;isolation: isolate"/>
              <path id="Path_230" data-name="Path 230" d="M497.5,393.323c.12-.543.923-1.28,1.487-1.808.062-.058.119-.121.18-.181a1.3,1.3,0,0,0,.6.623,1.164,1.164,0,0,0,1.409-.414c.282-.409-.132-.72-.492-.8a3.052,3.052,0,0,0-.925-.037c.341-.389.661-.794.979-1.208.024-.031.043-.058.065-.088a2.588,2.588,0,0,0,1.714.126,2.532,2.532,0,0,0,1.465-1.345c.026.284.057.568.1.85a10.529,10.529,0,0,1,.294,2.108,1.569,1.569,0,0,1-.156.3,10.016,10.016,0,0,1-2.433,2.367,4.935,4.935,0,0,1-2.913,1.394,1.637,1.637,0,0,1-1.2-.383A1.682,1.682,0,0,1,497.5,393.323Z" transform="translate(-497.405 -374.267)" fill="#efcaa7" opacity="0.5" style="mix-blend-mode: multiply;isolation: isolate"/>
              <path id="Path_231" data-name="Path 231" d="M503.259,392.129a2.271,2.271,0,0,0-2.26-.909c.182-.216.36-.434.534-.657,1.616-.382,2.493,1.1,2.948,2.578-.163.166-.337.325-.513.478A5.157,5.157,0,0,0,503.259,392.129Z" transform="translate(-498.488 -374.964)" fill="#faa819"/>
              <path id="Path_232" data-name="Path 232" d="M497.5,393.581a4.607,4.607,0,0,1,1.336-1.666,1.8,1.8,0,0,0,1.872.739,3.52,3.52,0,0,0,1.673-1.383,24.518,24.518,0,0,0,1.666-2.225c.012.084.021.169.033.252a10.529,10.529,0,0,1,.294,2.108,1.57,1.57,0,0,1-.156.3,10.015,10.015,0,0,1-2.433,2.367,4.936,4.936,0,0,1-2.913,1.394,1.637,1.637,0,0,1-1.2-.383A1.682,1.682,0,0,1,497.5,393.581Z" transform="translate(-497.405 -374.525)" fill="#f58020"/>
              <path id="Path_233" data-name="Path 233" d="M497.419,394.625a1.078,1.078,0,0,0,.27.681c.232.247.645.189.938.135a5.257,5.257,0,0,0,1.44-.471,9.3,9.3,0,0,0,2.647-2.134c.4-.446.771-.911,1.176-1.349a4.484,4.484,0,0,0,.4-.483,4.05,4.05,0,0,1,.082.993,1.57,1.57,0,0,1-.156.3,10.016,10.016,0,0,1-2.433,2.367,4.936,4.936,0,0,1-2.913,1.394,1.637,1.637,0,0,1-1.2-.383A1.321,1.321,0,0,1,497.419,394.625Z" transform="translate(-497.405 -375.116)" fill="#f26322"/>
            </g>
          </g>
          <g id="Group_216" data-name="Group 216">
            <g id="Group_215" data-name="Group 215">
              <g id="Group_206" data-name="Group 206" transform="translate(8.809 20.037)">
                <path id="Path_234" data-name="Path 234" d="M500.082,329.188l-.034,1.384a3.264,3.264,0,0,0-2.389,1.488,35.268,35.268,0,0,0-6.093,15.1,7.153,7.153,0,0,0-1.364,2.773c-.039.351.208,1.053.481.272a8.022,8.022,0,0,1,.7-1.609s-.444,1.857-.051,2.129c.169.116.3.013.39-.611a8.355,8.355,0,0,1,.4-1.44s-.062,2.1.48,2.1c.221,0,.234-.195.221-.727a9.988,9.988,0,0,1-.038-1.234s.312,1.944.753,1.818c.182-.052.169-.441.065-1.039s-.3-1.493-.3-1.493a4.712,4.712,0,0,1,.506.8c.169.377.532.273.324-.48a2.232,2.232,0,0,0-1.09-1.623,22.415,22.415,0,0,1,5.038-11.944l6.388.415a20.442,20.442,0,0,1,2.466,6.025,62.329,62.329,0,0,1,.935,6.88s-.5.918-.8,1.438-.381.779-.208.934.831-.657,1.039-1.125a13.5,13.5,0,0,1-.138,1.679c-.1.433-.295.883.034.883s.623-.831.762-2.476c0,0,.087,1.055.121,1.9s.5.8.52-.087-.035-1.991-.035-1.991a9.354,9.354,0,0,1,.329,1.678c.034.676.4.9.5.139a6.3,6.3,0,0,0-.156-1.852,11.861,11.861,0,0,1,.588,1.938c.069.606.438.089.277-.9a3.5,3.5,0,0,0-1.367-2.3,75.864,75.864,0,0,0-1.4-9.14c-.918-3.739-2.805-7.668-3.808-8.084a3.051,3.051,0,0,0-1.61-.294l-.1-1.368a1.157,1.157,0,0,0-1.177-1.09C500.134,328.063,500.1,328.807,500.082,329.188Z" transform="translate(-490.197 -328.063)" fill="#efcaa6"/>
                <path id="Path_235" data-name="Path 235" d="M505.659,330.638a4.443,4.443,0,0,0,1.1-.288l-.091-1.2a1.157,1.157,0,0,0-1.177-1.09c-1.108,0-1.143.744-1.16,1.125l-.033,1.322A3.052,3.052,0,0,0,505.659,330.638Z" transform="translate(-494.449 -328.063)" fill="#efcaa6" opacity="0.5" style="mix-blend-mode: multiply;isolation: isolate"/>
                <path id="Path_236" data-name="Path 236" d="M500.29,331.972a27.323,27.323,0,0,1-.753,4.284,120.014,120.014,0,0,0-2.363,16.593s6.994,3.154,12.68.375c0,0-2.476-15.929-2.709-17.461a17.84,17.84,0,0,1-.1-3.583,3.718,3.718,0,0,0-2.465-1.542s.119,2.893-1.213,2.927-1.141-2.788-1.194-2.927A14.453,14.453,0,0,0,500.29,331.972Z" transform="translate(-492.301 -328.839)" fill="#ed4a79"/>
                <path id="Path_237" data-name="Path 237" d="M506.466,330.638s.119,2.893-1.213,2.927-1.141-2.788-1.194-2.927c0,0-.256.149-.615.388a10.434,10.434,0,0,0,.631,4.148l1.109-1.489,1.211,1.61s.88-1.106.871-4.385A6.451,6.451,0,0,0,506.466,330.638Z" transform="translate(-494.191 -328.839)" fill="#faf9e8"/>
                <path id="Path_238" data-name="Path 238" d="M501.57,335.732a2.9,2.9,0,0,0,.693,1.35c.519.484,1.281-1.524,1.281-1.524a19.2,19.2,0,0,0,1.143,1.558c.381.416,1.177-1.074,1.35-1.523s.415-1.489.761.727,1.231,8.906,2.267,17.778a21.656,21.656,0,0,1-6.558.775c-3.046-.242-4.156-1.035-4.156-1.035a152.229,152.229,0,0,1,2.19-16.9C500.809,335.732,501.156,334.762,501.57,335.732Z" transform="translate(-492.656 -330.14)" fill="#ff7698"/>
              </g>
              <g id="Group_214" data-name="Group 214">
                <g id="Group_212" data-name="Group 212">
                  <g id="Group_207" data-name="Group 207" transform="translate(30.093 8.193)">
                    <path id="Path_239" data-name="Path 239" d="M530.349,316.931a5.176,5.176,0,0,1-2.318-.426,9.456,9.456,0,0,0,2.808-.561,5.1,5.1,0,0,0,.353-1.876,4.681,4.681,0,0,1-1.465.335,10.3,10.3,0,0,0,1.368-1.3,5.241,5.241,0,0,0-.832-2c-1.163,2.807-3.094,1.833-5.068,1.007a3.363,3.363,0,0,0-3.371.34c-2.921,2.013.477,2.576,1.6,4.47a2.689,2.689,0,0,1-.239,3.27,3.933,3.933,0,0,0,1.372.566,3.031,3.031,0,0,0,.723-1.843,2.322,2.322,0,0,1,.051,1.9,3.763,3.763,0,0,0,1.244-.262,2.693,2.693,0,0,0,.172-2.167,5.583,5.583,0,0,0,1.425,1.186A10.821,10.821,0,0,0,530.349,316.931Z" transform="translate(-520.668 -311.108)" fill="#a62b00"/>
                    <path id="Path_240" data-name="Path 240" d="M530.349,317.239a5.176,5.176,0,0,1-2.318-.426,9.456,9.456,0,0,0,2.808-.561,5.1,5.1,0,0,0,.353-1.876,4.68,4.68,0,0,1-1.465.335,10.3,10.3,0,0,0,1.368-1.3,5.3,5.3,0,0,0-.279-.952,4,4,0,0,1-3.26,2.214,9.107,9.107,0,0,0,2.868.531.214.214,0,0,1,.075.4,6.023,6.023,0,0,1-6.79-1.477c-.1-.134-.015-.378.18-.35a10.547,10.547,0,0,0,2.17.156,4.951,4.951,0,0,1-2.276-1.116.216.216,0,0,1,.072-.329,2.031,2.031,0,0,1,.821-.247,3.334,3.334,0,0,0-2.853.516c-2.921,2.013.477,2.576,1.6,4.47a2.689,2.689,0,0,1-.239,3.27,3.933,3.933,0,0,0,1.372.566,3.031,3.031,0,0,0,.723-1.843,2.322,2.322,0,0,1,.051,1.9,3.763,3.763,0,0,0,1.244-.262,2.693,2.693,0,0,0,.172-2.167,5.583,5.583,0,0,0,1.425,1.186A10.821,10.821,0,0,0,530.349,317.239Zm-1.489.708A5.922,5.922,0,0,1,524,315.254c-.107-.188.15-.383.314-.265a10.947,10.947,0,0,0,3.89,2.153.171.171,0,0,1,.145.168,5.99,5.99,0,0,1,.6.221A.215.215,0,0,1,528.859,317.946Z" transform="translate(-520.668 -311.416)" fill="#a62b00" style="mix-blend-mode: multiply;isolation: isolate"/>
                  </g>
                  <g id="Group_211" data-name="Group 211">
                    <path id="Path_241" data-name="Path 241" d="M508.432,315.367a7.772,7.772,0,0,0,4.313-7.169c-.1-5.232-3.421-6.18-5.2-6.23a11.794,11.794,0,0,0-7.236-2.59c-4.313,0-11.094,3.8-10.707,9.266a6.8,6.8,0,0,0,1.586,4.132c1.191,1.5.6,1.545,1.29,2.591s1.237,1.593,4.213,1.844S508.432,315.367,508.432,315.367Z" transform="translate(-481.203 -299.378)" fill="#a62b00"/>
                    <path id="Path_242" data-name="Path 242" d="M512.028,305.807c-.023.11-.05.219-.08.326a3.171,3.171,0,0,1-1.705,2.179,2.236,2.236,0,0,1-2.937-1.112c-.5-1.049-.058-2,.2-3.027a6.916,6.916,0,0,1,.371-1.153c-.115-.01-.228-.015-.332-.02,0,0-.089-.075-.249-.2a3.856,3.856,0,0,1-.036.455c-.555,3.972-4.588,5.777-8.163,6.147-2.119.216-6.507.5-7.591-1.952a3.947,3.947,0,0,1,.255-3.184,7.105,7.105,0,0,0-2.158,5.412,6.8,6.8,0,0,0,1.586,4.132c1.191,1.5.6,1.545,1.29,2.591s1.237,1.593,4.213,1.844,11.744-1.844,11.744-1.844a7.772,7.772,0,0,0,4.313-7.169A8.226,8.226,0,0,0,512.028,305.807Z" transform="translate(-481.203 -300.409)" fill="#a62b00" style="mix-blend-mode: multiply;isolation: isolate"/>
                    <g id="Group_208" data-name="Group 208" transform="translate(10.547 12.775)">
                      <path id="Path_243" data-name="Path 243" d="M517.392,317.893a1.349,1.349,0,0,1,1.231-.125,1.233,1.233,0,0,1,.611,1.542c-.135.654-.982,1.667-1.85.7A1.714,1.714,0,0,1,517.392,317.893Z" transform="translate(-500.016 -317.667)" fill="#efcaa6"/>
                      <path id="Path_244" data-name="Path 244" d="M518.579,318.881a1.191,1.191,0,0,0-1.273.781.135.135,0,0,0,.18.149.133.133,0,0,0,.087-.1,1.33,1.33,0,0,1,1-.763A.031.031,0,0,0,518.579,318.881Z" transform="translate(-500.107 -318.028)" fill="#c39368"/>
                      <path id="Path_245" data-name="Path 245" d="M494.613,319.771a1.346,1.346,0,0,0-1.224-.173,1.232,1.232,0,0,0-.669,1.519c.111.657.918,1.7,1.82.765A1.712,1.712,0,0,0,494.613,319.771Z" transform="translate(-492.684 -318.224)" fill="#efcaa6"/>
                      <path id="Path_246" data-name="Path 246" d="M494.991,321.147a1.052,1.052,0,0,0-.752-.292,1.962,1.962,0,0,0-.864.17c-.039.015-.022.082.017.071a2.062,2.062,0,0,1,.821-.032c.243.043.441.224.682.257A.109.109,0,0,0,494.991,321.147Z" transform="translate(-492.886 -318.627)" fill="#c39368"/>
                    </g>
                    <path id="Path_247" data-name="Path 247" d="M502.989,307.9l-8.527,2.338a3.892,3.892,0,0,0-.1,3.8c1.072,2.046.488,2.73.488,3.947s-.632,3.217,3.263,5.165,9.307-.39,10.622-1.706,2.194-1.949,1.9-5.017.487-3.509.194-5.7S507.278,307.368,502.989,307.9Z" transform="translate(-482.508 -301.909)" fill="#f4d9bf"/>
                    <g id="Group_209" data-name="Group 209" transform="translate(22.206 13.517)">
                      <path id="Path_248" data-name="Path 248" d="M510.09,319.631c0,.5-.16.912-.36.912s-.355-.4-.353-.9.161-.911.357-.911S510.09,319.13,510.09,319.631Z" transform="translate(-509.377 -318.73)" fill="#3d1a0b"/>
                      <path id="Path_249" data-name="Path 249" d="M509.719,319.364c-.012.151-.069.27-.126.263s-.1-.132-.089-.283.068-.267.131-.264S509.732,319.211,509.719,319.364Z" transform="translate(-509.415 -318.835)" fill="#fff"/>
                    </g>
                    <g id="Group_210" data-name="Group 210" transform="translate(16.063 13.792)">
                      <path id="Path_250" data-name="Path 250" d="M501.3,320.011c.023.5-.117.916-.316.926s-.375-.385-.4-.886.118-.914.314-.927S501.274,319.508,501.3,320.011Z" transform="translate(-500.582 -319.124)" fill="#3d1a0b"/>
                      <path id="Path_251" data-name="Path 251" d="M500.906,319.765c0,.15-.057.271-.119.27s-.1-.126-.1-.28.055-.274.116-.27S500.908,319.611,500.906,319.765Z" transform="translate(-500.614 -319.233)" fill="#fff"/>
                    </g>
                    <path id="Path_252" data-name="Path 252" d="M486.373,314.654c.731-.781.341-1.364-.44-1.512a1.656,1.656,0,0,0-2.629-.194c-2.163,1.834-1.853,4.192-3.7,4.241a1.723,1.723,0,0,1-1.463-.83,10.51,10.51,0,0,0-.455,1.859,6.5,6.5,0,0,0,2.3.607,4.57,4.57,0,0,1-2.4.551,5.411,5.411,0,0,0,.166,1.439,7.3,7.3,0,0,0,4.363-.27,5.167,5.167,0,0,1-2.3,1.584c.027.04.053.081.079.126a9.857,9.857,0,0,0,.689,1.051,6.043,6.043,0,0,0,3.252-1.628,13.262,13.262,0,0,1-1.433,1.8,5.044,5.044,0,0,0,1.146.528,2.185,2.185,0,0,0,1.366.049,6.86,6.86,0,0,0,1.558-4.92C486.08,316.458,485.642,315.434,486.373,314.654Z" transform="translate(-477.586 -303.301)" fill="#a62b00"/>
                    <path id="Path_253" data-name="Path 253" d="M486.373,314.653c.731-.78.341-1.364-.44-1.511a1.691,1.691,0,0,0-1.593-.73.689.689,0,0,1,.163.5c.011.838-.886,1.215-1.074,2.032a17.847,17.847,0,0,1-.584,2.673,2.963,2.963,0,0,1-3.05,2.173c-.195-.015-.311-.295-.105-.4a3.478,3.478,0,0,0,1.844-2.364c-1.2.722-2.452.742-3.228-.444a1.7,1.7,0,0,1-.166-.225,10.508,10.508,0,0,0-.455,1.86,6.51,6.51,0,0,0,2.3.606,4.569,4.569,0,0,1-2.4.551,5.411,5.411,0,0,0,.166,1.439,7.3,7.3,0,0,0,4.363-.27,5.171,5.171,0,0,1-2.3,1.583c.027.04.053.081.079.126a9.948,9.948,0,0,0,.689,1.051,6.048,6.048,0,0,0,3.252-1.629,13.262,13.262,0,0,1-1.433,1.8,5.044,5.044,0,0,0,1.146.528,2.178,2.178,0,0,0,1.366.049,6.86,6.86,0,0,0,1.558-4.92C486.08,316.457,485.642,315.433,486.373,314.653Z" transform="translate(-477.586 -303.301)" fill="#a62b00" style="mix-blend-mode: multiply;isolation: isolate"/>
                    <path id="Path_254" data-name="Path 254" d="M509.72,306.169s-7.049-3.866-13.611.552a5.692,5.692,0,0,0-3.119,5.52l1.69.293a6.718,6.718,0,0,1,1.2-3.184,4.991,4.991,0,0,0-.163,2.825l2.568-.13s.356-2.4,1.557-3.311a4.653,4.653,0,0,0-.616,3.215l5.3-.29s.742-.685.711-2.861a5.846,5.846,0,0,1-.065,2.795,15.459,15.459,0,0,0,3.477-.683,4.9,4.9,0,0,0,.033-3.084,5.64,5.64,0,0,1,.358,3.149l2.174-.29S512.025,308.7,509.72,306.169Z" transform="translate(-482.222 -300.953)" fill="#a62b00"/>
                    <path id="Path_255" data-name="Path 255" d="M493.58,311.172a5.324,5.324,0,0,0-.589,3.05l1.69.293a6.658,6.658,0,0,1,.848-2.635A5.4,5.4,0,0,1,493.58,311.172Z" transform="translate(-482.222 -302.934)" fill="#a62b00" style="mix-blend-mode: multiply;isolation: isolate"/>
                    <path id="Path_256" data-name="Path 256" d="M510.99,308.082a2.972,2.972,0,0,1-.03-2.194c-.147-.053-.3-.107-.469-.164-1.264,2.876-4.657,4.243-7.714,4.558-.244.024-.516.047-.812.069a3.94,3.94,0,0,0-.074,1.936l5.3-.29s.743-.685.711-2.861a5.846,5.846,0,0,1-.065,2.795,15.459,15.459,0,0,0,3.477-.683,4.52,4.52,0,0,0,.147-2.5A2.3,2.3,0,0,1,510.99,308.082Z" transform="translate(-484.887 -301.291)" fill="#a62b00" style="mix-blend-mode: multiply;isolation: isolate"/>
                    <path id="Path_257" data-name="Path 257" d="M515.8,310.209a5.191,5.191,0,0,1,.12,2.456l2.174-.29a3.253,3.253,0,0,0,.033-1.822A2.245,2.245,0,0,1,515.8,310.209Z" transform="translate(-489.109 -302.643)" fill="#a62b00" style="mix-blend-mode: multiply;isolation: isolate"/>
                    <path id="Path_258" data-name="Path 258" d="M496.838,312.235a3.918,3.918,0,0,0,0,2.242l2.568-.13a8.449,8.449,0,0,1,.6-2A14.676,14.676,0,0,1,496.838,312.235Z" transform="translate(-483.339 -303.254)" fill="#a62b00" style="mix-blend-mode: multiply;isolation: isolate"/>
                    <path id="Path_259" data-name="Path 259" d="M503.863,323.819a.51.51,0,0,1,.576-.521,1.034,1.034,0,0,1,.489.173,1.434,1.434,0,0,0-.224-.2.7.7,0,0,0,.173-.331,1.4,1.4,0,0,0-.221-.553l-.032-.043a1.326,1.326,0,0,1,.017.2,1.363,1.363,0,0,1-.2.6.532.532,0,0,0-.252-.01.635.635,0,0,0-.511.583.954.954,0,0,0,.326.709.8.8,0,0,0,.363.186A1.182,1.182,0,0,1,503.863,323.819Z" transform="translate(-485.453 -306.301)" fill="#c39368"/>
                    <path id="Path_260" data-name="Path 260" d="M508.988,315.652c-.027,0-.022.039,0,.039S509.014,315.652,508.988,315.652Z" transform="translate(-487.048 -304.285)" fill="#f34700"/>
                    <path id="Path_261" data-name="Path 261" d="M509.755,316.053a1.377,1.377,0,0,0-1.213,1.512c0,.039.061.04.066,0,.1-.619.515-1.282,1.229-1.171.506.076.8.645.915,1,.033.108.135-.02.13-.139C510.86,316.755,510.287,316.045,509.755,316.053Z" transform="translate(-486.919 -304.405)" fill="#c62b00"/>
                    <path id="Path_262" data-name="Path 262" d="M499.756,316.382a1.376,1.376,0,0,1,1.5,1.233c.009.036-.052.049-.065.015-.227-.585-.765-1.15-1.444-.895a1.365,1.365,0,0,0-.689,1.17c-.01.11-.136.006-.157-.111A1.392,1.392,0,0,1,499.756,316.382Z" transform="translate(-484.008 -304.498)" fill="#c62b00"/>
                    <path id="Path_263" data-name="Path 263" d="M488.572,312.416c.073-.248.587-2,.11-2.163-.511-.171-1.85.706-2.141.8a8.752,8.752,0,0,0,1.8,1.491,7.892,7.892,0,0,1-.385,1.748,2.1,2.1,0,0,0,.757-.12c.437-.147.875.022.947-.415C489.721,313.377,489.076,312.694,488.572,312.416Z" transform="translate(-480.286 -302.65)" fill="#ff7698"/>
                    <path id="Path_264" data-name="Path 264" d="M521.862,311.628c-.252.055-2.03.487-1.932.979.108.527,1.537,1.253,1.766,1.458a8.756,8.756,0,0,0,.4-2.3,7.925,7.925,0,0,1,1.707-.539,2.088,2.088,0,0,0-.483-.594c-.344-.308-.416-.77-.832-.615C522.122,310.148,521.853,311.049,521.862,311.628Z" transform="translate(-490.351 -302.576)" fill="#ff7698"/>
                    <path id="Path_265" data-name="Path 265" d="M513.381,321.711c.034.314-.548.636-1.3.724s-1.4-.1-1.433-.414.548-.64,1.307-.724S513.344,321.4,513.381,321.711Z" transform="translate(-487.552 -305.98)" fill="#f9cbc0"/>
                    <path id="Path_266" data-name="Path 266" d="M499.779,322.662c.035.316-.548.639-1.3.726s-1.4-.1-1.431-.416.547-.637,1.3-.722S499.742,322.349,499.779,322.662Z" transform="translate(-483.452 -306.268)" fill="#f9cbc0"/>
                  </g>
                </g>
                <g id="Group_213" data-name="Group 213" transform="translate(16.691 18.261)">
                  <path id="Path_267" data-name="Path 267" d="M501.481,326.106a10.061,10.061,0,0,0,6.52-.585s-.518,2.26-3.525,2.343S501.481,326.106,501.481,326.106Z" transform="translate(-501.481 -325.521)" fill="#fff"/>
                  <path id="Path_268" data-name="Path 268" d="M502.1,327.222s.09.017.248.04c.079.013.176.024.286.038s.235.027.372.038.284.024.44.032.321.008.491.017.346,0,.526,0,.361-.01.541-.031.362-.029.539-.058l.263-.036.255-.049.246-.047.233-.059a4.311,4.311,0,0,0,.424-.121l.354-.115.265-.11.235-.092-.223.116c-.071.038-.158.082-.258.133s-.219.092-.349.141a4.232,4.232,0,0,1-.421.143l-.233.072-.249.057-.256.057-.266.041c-.18.031-.362.047-.546.064s-.368.018-.549.027-.36,0-.532-.008-.339-.019-.5-.038-.305-.034-.441-.054-.26-.045-.37-.064-.2-.044-.283-.063C502.184,327.251,502.1,327.222,502.1,327.222Z" transform="translate(-501.667 -325.866)" fill="#dde6ec"/>
                </g>
              </g>
            </g>
          </g>
        </g>
      </g>
    </g>
    <g id="Group_219" data-name="Group 219" transform="translate(282.18 687.672)">
      <g id="Group_218-2" data-name="Group 218" transform="translate(0 0)" clip-path="url(#clip-path)">
        <g id="Group_217-2" data-name="Group 217" transform="translate(2.369 2.57)">
          <g id="Group_205-2" data-name="Group 205" transform="translate(13.844 47.987)">
            <g id="Group_203-2" data-name="Group 203" transform="translate(7.983)">
              <path id="Path_222-2" data-name="Path 222" d="M516.428,386.675c-.172-.529-1.041-1.185-1.655-1.656a16,16,0,0,1-1.938-1.837,3.337,3.337,0,0,1-.883-1.273c-.016-.6-.024-1.532-.02-2.133.008-1.384-.034-2.77,0-4.156.013-.659-.029-3.36-.052-4.041a25.826,25.826,0,0,0-.1-3.5,10.6,10.6,0,0,1-2.946.193c.067.746.227,1.484.242,2.237.023,1.11.075,2.213.163,3.32.161,2.01.143,4.024.175,6.038.018,1.061.1,2.127.051,3.187a10.407,10.407,0,0,0-.088,2.127,1.614,1.614,0,0,0,.185.28,9.984,9.984,0,0,0,2.652,2.119,4.934,4.934,0,0,0,3.034,1.105,1.642,1.642,0,0,0,1.157-.5A1.678,1.678,0,0,0,516.428,386.675Z" transform="translate(-508.833 -368.077)" fill="#efcaa6"/>
              <path id="Path_223-2" data-name="Path 223" d="M511.874,369a7.6,7.6,0,0,0-.095-.928,10.6,10.6,0,0,1-2.946.193c.025.282.064.564.1.845A10.414,10.414,0,0,0,511.874,369Z" transform="translate(-508.833 -368.077)" fill="#efcaa7" opacity="0.5" style="mix-blend-mode: multiply;isolation: isolate"/>
              <path id="Path_224-2" data-name="Path 224" d="M516.646,392.769c-.172-.529-1.041-1.185-1.655-1.656-.067-.052-.131-.108-.2-.161a1.287,1.287,0,0,1-.536.678,1.162,1.162,0,0,1-1.442-.275c-.32-.38.061-.728.412-.846a3.025,3.025,0,0,1,.915-.126c-.377-.353-.735-.726-1.09-1.106l-.074-.081a2.582,2.582,0,0,1-1.693.291,2.532,2.532,0,0,1-1.591-1.2c0,.285,0,.571-.013.856a10.407,10.407,0,0,0-.088,2.127,1.612,1.612,0,0,0,.185.28,9.984,9.984,0,0,0,2.651,2.119,4.934,4.934,0,0,0,3.034,1.105,1.642,1.642,0,0,0,1.157-.5A1.678,1.678,0,0,0,516.646,392.769Z" transform="translate(-509.051 -374.171)" fill="#efcaa7" opacity="0.5" style="mix-blend-mode: multiply;isolation: isolate"/>
              <path id="Path_225-2" data-name="Path 225" d="M512.3,391.9a2.271,2.271,0,0,1,2.162-1.125c-.2-.2-.4-.4-.6-.6-1.644-.224-2.374,1.339-2.683,2.852.178.15.367.291.556.427A5.189,5.189,0,0,1,512.3,391.9Z" transform="translate(-509.541 -374.734)" fill="#faa819"/>
              <path id="Path_226-2" data-name="Path 226" d="M516.646,393.028c-.156-.483-.9-1.072-1.491-1.529a1.8,1.8,0,0,1-1.792.916,3.517,3.517,0,0,1-1.8-1.213,24.671,24.671,0,0,1-1.874-2.053c0,.085,0,.17-.008.255a10.407,10.407,0,0,0-.088,2.127,1.612,1.612,0,0,0,.185.28,9.984,9.984,0,0,0,2.651,2.119,4.934,4.934,0,0,0,3.034,1.105,1.642,1.642,0,0,0,1.157-.5A1.678,1.678,0,0,0,516.646,393.028Z" transform="translate(-509.051 -374.43)" fill="#f58020"/>
              <path id="Path_227-2" data-name="Path 227" d="M516.77,394.069a1.075,1.075,0,0,1-.2.7c-.206.268-.622.251-.921.226a5.293,5.293,0,0,1-1.478-.328,9.313,9.313,0,0,1-2.842-1.867c-.439-.405-.856-.833-1.3-1.229a4.376,4.376,0,0,1-.446-.441,4.064,4.064,0,0,0,.015,1,1.614,1.614,0,0,0,.185.28,9.984,9.984,0,0,0,2.652,2.119,4.934,4.934,0,0,0,3.034,1.105,1.642,1.642,0,0,0,1.157-.5A1.32,1.32,0,0,0,516.77,394.069Z" transform="translate(-509.051 -375.028)" fill="#f26322"/>
            </g>
            <g id="Group_204-2" data-name="Group 204" transform="translate(0 0.126)">
              <path id="Path_228-2" data-name="Path 228" d="M497.5,387.313c.12-.543.923-1.28,1.487-1.808a16.274,16.274,0,0,0,1.751-2.018,3.364,3.364,0,0,0,.755-1.352c-.043-.6-.127-1.528-.189-2.124-.142-1.377-.236-2.76-.4-4.137-.078-.655-.3-3.347-.342-4.027a25.661,25.661,0,0,1-.242-3.5,10.6,10.6,0,0,0,2.951-.094c.006.749-.083,1.5-.024,2.249.085,1.107.14,2.21.16,3.32.035,2.016.249,4.019.411,6.027.085,1.058.11,2.126.26,3.177a10.529,10.529,0,0,1,.294,2.108,1.569,1.569,0,0,1-.156.3,10.016,10.016,0,0,1-2.433,2.367,4.935,4.935,0,0,1-2.913,1.394,1.637,1.637,0,0,1-1.2-.383A1.682,1.682,0,0,1,497.5,387.313Z" transform="translate(-497.405 -368.258)" fill="#efcaa6"/>
              <path id="Path_229-2" data-name="Path 229" d="M501.567,369.285a7.425,7.425,0,0,1,0-.933,10.6,10.6,0,0,0,2.951-.094c0,.284-.009.568-.022.851A10.422,10.422,0,0,1,501.567,369.285Z" transform="translate(-498.656 -368.258)" fill="#efcaa7" opacity="0.5" style="mix-blend-mode: multiply;isolation: isolate"/>
              <path id="Path_230-2" data-name="Path 230" d="M497.5,393.323c.12-.543.923-1.28,1.487-1.808.062-.058.119-.121.18-.181a1.3,1.3,0,0,0,.6.623,1.164,1.164,0,0,0,1.409-.414c.282-.409-.132-.72-.492-.8a3.052,3.052,0,0,0-.925-.037c.341-.389.661-.794.979-1.208.024-.031.043-.058.065-.088a2.588,2.588,0,0,0,1.714.126,2.532,2.532,0,0,0,1.465-1.345c.026.284.057.568.1.85a10.529,10.529,0,0,1,.294,2.108,1.569,1.569,0,0,1-.156.3,10.016,10.016,0,0,1-2.433,2.367,4.935,4.935,0,0,1-2.913,1.394,1.637,1.637,0,0,1-1.2-.383A1.682,1.682,0,0,1,497.5,393.323Z" transform="translate(-497.405 -374.267)" fill="#efcaa7" opacity="0.5" style="mix-blend-mode: multiply;isolation: isolate"/>
              <path id="Path_231-2" data-name="Path 231" d="M503.259,392.129a2.271,2.271,0,0,0-2.26-.909c.182-.216.36-.434.534-.657,1.616-.382,2.493,1.1,2.948,2.578-.163.166-.337.325-.513.478A5.157,5.157,0,0,0,503.259,392.129Z" transform="translate(-498.488 -374.964)" fill="#faa819"/>
              <path id="Path_232-2" data-name="Path 232" d="M497.5,393.581a4.607,4.607,0,0,1,1.336-1.666,1.8,1.8,0,0,0,1.872.739,3.52,3.52,0,0,0,1.673-1.383,24.518,24.518,0,0,0,1.666-2.225c.012.084.021.169.033.252a10.529,10.529,0,0,1,.294,2.108,1.57,1.57,0,0,1-.156.3,10.015,10.015,0,0,1-2.433,2.367,4.936,4.936,0,0,1-2.913,1.394,1.637,1.637,0,0,1-1.2-.383A1.682,1.682,0,0,1,497.5,393.581Z" transform="translate(-497.405 -374.525)" fill="#f58020"/>
              <path id="Path_233-2" data-name="Path 233" d="M497.419,394.625a1.078,1.078,0,0,0,.27.681c.232.247.645.189.938.135a5.257,5.257,0,0,0,1.44-.471,9.3,9.3,0,0,0,2.647-2.134c.4-.446.771-.911,1.176-1.349a4.484,4.484,0,0,0,.4-.483,4.05,4.05,0,0,1,.082.993,1.57,1.57,0,0,1-.156.3,10.016,10.016,0,0,1-2.433,2.367,4.936,4.936,0,0,1-2.913,1.394,1.637,1.637,0,0,1-1.2-.383A1.321,1.321,0,0,1,497.419,394.625Z" transform="translate(-497.405 -375.116)" fill="#f26322"/>
            </g>
          </g>
          <g id="Group_216-2" data-name="Group 216">
            <g id="Group_215-2" data-name="Group 215">
              <g id="Group_206-2" data-name="Group 206" transform="translate(8.809 20.037)">
                <path id="Path_234-2" data-name="Path 234" d="M500.082,329.188l-.034,1.384a3.264,3.264,0,0,0-2.389,1.488,35.268,35.268,0,0,0-6.093,15.1,7.153,7.153,0,0,0-1.364,2.773c-.039.351.208,1.053.481.272a8.022,8.022,0,0,1,.7-1.609s-.444,1.857-.051,2.129c.169.116.3.013.39-.611a8.355,8.355,0,0,1,.4-1.44s-.062,2.1.48,2.1c.221,0,.234-.195.221-.727a9.988,9.988,0,0,1-.038-1.234s.312,1.944.753,1.818c.182-.052.169-.441.065-1.039s-.3-1.493-.3-1.493a4.712,4.712,0,0,1,.506.8c.169.377.532.273.324-.48a2.232,2.232,0,0,0-1.09-1.623,22.415,22.415,0,0,1,5.038-11.944l6.388.415a20.442,20.442,0,0,1,2.466,6.025,62.329,62.329,0,0,1,.935,6.88s-.5.918-.8,1.438-.381.779-.208.934.831-.657,1.039-1.125a13.5,13.5,0,0,1-.138,1.679c-.1.433-.295.883.034.883s.623-.831.762-2.476c0,0,.087,1.055.121,1.9s.5.8.52-.087-.035-1.991-.035-1.991a9.354,9.354,0,0,1,.329,1.678c.034.676.4.9.5.139a6.3,6.3,0,0,0-.156-1.852,11.861,11.861,0,0,1,.588,1.938c.069.606.438.089.277-.9a3.5,3.5,0,0,0-1.367-2.3,75.864,75.864,0,0,0-1.4-9.14c-.918-3.739-2.805-7.668-3.808-8.084a3.051,3.051,0,0,0-1.61-.294l-.1-1.368a1.157,1.157,0,0,0-1.177-1.09C500.134,328.063,500.1,328.807,500.082,329.188Z" transform="translate(-490.197 -328.063)" fill="#efcaa6"/>
                <path id="Path_235-2" data-name="Path 235" d="M505.659,330.638a4.443,4.443,0,0,0,1.1-.288l-.091-1.2a1.157,1.157,0,0,0-1.177-1.09c-1.108,0-1.143.744-1.16,1.125l-.033,1.322A3.052,3.052,0,0,0,505.659,330.638Z" transform="translate(-494.449 -328.063)" fill="#efcaa6" opacity="0.5" style="mix-blend-mode: multiply;isolation: isolate"/>
                <path id="Path_236-2" data-name="Path 236" d="M500.29,331.972a27.323,27.323,0,0,1-.753,4.284,120.014,120.014,0,0,0-2.363,16.593s6.994,3.154,12.68.375c0,0-2.476-15.929-2.709-17.461a17.84,17.84,0,0,1-.1-3.583,3.718,3.718,0,0,0-2.465-1.542s.119,2.893-1.213,2.927-1.141-2.788-1.194-2.927A14.453,14.453,0,0,0,500.29,331.972Z" transform="translate(-492.301 -328.839)" fill="#ed4a79"/>
                <path id="Path_237-2" data-name="Path 237" d="M506.466,330.638s.119,2.893-1.213,2.927-1.141-2.788-1.194-2.927c0,0-.256.149-.615.388a10.434,10.434,0,0,0,.631,4.148l1.109-1.489,1.211,1.61s.88-1.106.871-4.385A6.451,6.451,0,0,0,506.466,330.638Z" transform="translate(-494.191 -328.839)" fill="#faf9e8"/>
                <path id="Path_238-2" data-name="Path 238" d="M501.57,335.732a2.9,2.9,0,0,0,.693,1.35c.519.484,1.281-1.524,1.281-1.524a19.2,19.2,0,0,0,1.143,1.558c.381.416,1.177-1.074,1.35-1.523s.415-1.489.761.727,1.231,8.906,2.267,17.778a21.656,21.656,0,0,1-6.558.775c-3.046-.242-4.156-1.035-4.156-1.035a152.229,152.229,0,0,1,2.19-16.9C500.809,335.732,501.156,334.762,501.57,335.732Z" transform="translate(-492.656 -330.14)" fill="#ff7698"/>
              </g>
              <g id="Group_214-2" data-name="Group 214">
                <g id="Group_212-2" data-name="Group 212">
                  <g id="Group_207-2" data-name="Group 207" transform="translate(30.093 8.193)">
                    <path id="Path_239-2" data-name="Path 239" d="M530.349,316.931a5.176,5.176,0,0,1-2.318-.426,9.456,9.456,0,0,0,2.808-.561,5.1,5.1,0,0,0,.353-1.876,4.681,4.681,0,0,1-1.465.335,10.3,10.3,0,0,0,1.368-1.3,5.241,5.241,0,0,0-.832-2c-1.163,2.807-3.094,1.833-5.068,1.007a3.363,3.363,0,0,0-3.371.34c-2.921,2.013.477,2.576,1.6,4.47a2.689,2.689,0,0,1-.239,3.27,3.933,3.933,0,0,0,1.372.566,3.031,3.031,0,0,0,.723-1.843,2.322,2.322,0,0,1,.051,1.9,3.763,3.763,0,0,0,1.244-.262,2.693,2.693,0,0,0,.172-2.167,5.583,5.583,0,0,0,1.425,1.186A10.821,10.821,0,0,0,530.349,316.931Z" transform="translate(-520.668 -311.108)" fill="#a62b00"/>
                    <path id="Path_240-2" data-name="Path 240" d="M530.349,317.239a5.176,5.176,0,0,1-2.318-.426,9.456,9.456,0,0,0,2.808-.561,5.1,5.1,0,0,0,.353-1.876,4.68,4.68,0,0,1-1.465.335,10.3,10.3,0,0,0,1.368-1.3,5.3,5.3,0,0,0-.279-.952,4,4,0,0,1-3.26,2.214,9.107,9.107,0,0,0,2.868.531.214.214,0,0,1,.075.4,6.023,6.023,0,0,1-6.79-1.477c-.1-.134-.015-.378.18-.35a10.547,10.547,0,0,0,2.17.156,4.951,4.951,0,0,1-2.276-1.116.216.216,0,0,1,.072-.329,2.031,2.031,0,0,1,.821-.247,3.334,3.334,0,0,0-2.853.516c-2.921,2.013.477,2.576,1.6,4.47a2.689,2.689,0,0,1-.239,3.27,3.933,3.933,0,0,0,1.372.566,3.031,3.031,0,0,0,.723-1.843,2.322,2.322,0,0,1,.051,1.9,3.763,3.763,0,0,0,1.244-.262,2.693,2.693,0,0,0,.172-2.167,5.583,5.583,0,0,0,1.425,1.186A10.821,10.821,0,0,0,530.349,317.239Zm-1.489.708A5.922,5.922,0,0,1,524,315.254c-.107-.188.15-.383.314-.265a10.947,10.947,0,0,0,3.89,2.153.171.171,0,0,1,.145.168,5.99,5.99,0,0,1,.6.221A.215.215,0,0,1,528.859,317.946Z" transform="translate(-520.668 -311.416)" fill="#a62b00" style="mix-blend-mode: multiply;isolation: isolate"/>
                  </g>
                  <g id="Group_211-2" data-name="Group 211">
                    <path id="Path_241-2" data-name="Path 241" d="M508.432,315.367a7.772,7.772,0,0,0,4.313-7.169c-.1-5.232-3.421-6.18-5.2-6.23a11.794,11.794,0,0,0-7.236-2.59c-4.313,0-11.094,3.8-10.707,9.266a6.8,6.8,0,0,0,1.586,4.132c1.191,1.5.6,1.545,1.29,2.591s1.237,1.593,4.213,1.844S508.432,315.367,508.432,315.367Z" transform="translate(-481.203 -299.378)" fill="#a62b00"/>
                    <path id="Path_242-2" data-name="Path 242" d="M512.028,305.807c-.023.11-.05.219-.08.326a3.171,3.171,0,0,1-1.705,2.179,2.236,2.236,0,0,1-2.937-1.112c-.5-1.049-.058-2,.2-3.027a6.916,6.916,0,0,1,.371-1.153c-.115-.01-.228-.015-.332-.02,0,0-.089-.075-.249-.2a3.856,3.856,0,0,1-.036.455c-.555,3.972-4.588,5.777-8.163,6.147-2.119.216-6.507.5-7.591-1.952a3.947,3.947,0,0,1,.255-3.184,7.105,7.105,0,0,0-2.158,5.412,6.8,6.8,0,0,0,1.586,4.132c1.191,1.5.6,1.545,1.29,2.591s1.237,1.593,4.213,1.844,11.744-1.844,11.744-1.844a7.772,7.772,0,0,0,4.313-7.169A8.226,8.226,0,0,0,512.028,305.807Z" transform="translate(-481.203 -300.409)" fill="#a62b00" style="mix-blend-mode: multiply;isolation: isolate"/>
                    <g id="Group_208-2" data-name="Group 208" transform="translate(10.547 12.775)">
                      <path id="Path_243-2" data-name="Path 243" d="M517.392,317.893a1.349,1.349,0,0,1,1.231-.125,1.233,1.233,0,0,1,.611,1.542c-.135.654-.982,1.667-1.85.7A1.714,1.714,0,0,1,517.392,317.893Z" transform="translate(-500.016 -317.667)" fill="#efcaa6"/>
                      <path id="Path_244-2" data-name="Path 244" d="M518.579,318.881a1.191,1.191,0,0,0-1.273.781.135.135,0,0,0,.18.149.133.133,0,0,0,.087-.1,1.33,1.33,0,0,1,1-.763A.031.031,0,0,0,518.579,318.881Z" transform="translate(-500.107 -318.028)" fill="#c39368"/>
                      <path id="Path_245-2" data-name="Path 245" d="M494.613,319.771a1.346,1.346,0,0,0-1.224-.173,1.232,1.232,0,0,0-.669,1.519c.111.657.918,1.7,1.82.765A1.712,1.712,0,0,0,494.613,319.771Z" transform="translate(-492.684 -318.224)" fill="#efcaa6"/>
                      <path id="Path_246-2" data-name="Path 246" d="M494.991,321.147a1.052,1.052,0,0,0-.752-.292,1.962,1.962,0,0,0-.864.17c-.039.015-.022.082.017.071a2.062,2.062,0,0,1,.821-.032c.243.043.441.224.682.257A.109.109,0,0,0,494.991,321.147Z" transform="translate(-492.886 -318.627)" fill="#c39368"/>
                    </g>
                    <path id="Path_247-2" data-name="Path 247" d="M502.989,307.9l-8.527,2.338a3.892,3.892,0,0,0-.1,3.8c1.072,2.046.488,2.73.488,3.947s-.632,3.217,3.263,5.165,9.307-.39,10.622-1.706,2.194-1.949,1.9-5.017.487-3.509.194-5.7S507.278,307.368,502.989,307.9Z" transform="translate(-482.508 -301.909)" fill="#f4d9bf"/>
                    <g id="Group_209-2" data-name="Group 209" transform="translate(22.206 13.517)">
                      <path id="Path_248-2" data-name="Path 248" d="M510.09,319.631c0,.5-.16.912-.36.912s-.355-.4-.353-.9.161-.911.357-.911S510.09,319.13,510.09,319.631Z" transform="translate(-509.377 -318.73)" fill="#3d1a0b"/>
                      <path id="Path_249-2" data-name="Path 249" d="M509.719,319.364c-.012.151-.069.27-.126.263s-.1-.132-.089-.283.068-.267.131-.264S509.732,319.211,509.719,319.364Z" transform="translate(-509.415 -318.835)" fill="#fff"/>
                    </g>
                    <g id="Group_210-2" data-name="Group 210" transform="translate(16.063 13.792)">
                      <path id="Path_250-2" data-name="Path 250" d="M501.3,320.011c.023.5-.117.916-.316.926s-.375-.385-.4-.886.118-.914.314-.927S501.274,319.508,501.3,320.011Z" transform="translate(-500.582 -319.124)" fill="#3d1a0b"/>
                      <path id="Path_251-2" data-name="Path 251" d="M500.906,319.765c0,.15-.057.271-.119.27s-.1-.126-.1-.28.055-.274.116-.27S500.908,319.611,500.906,319.765Z" transform="translate(-500.614 -319.233)" fill="#fff"/>
                    </g>
                    <path id="Path_252-2" data-name="Path 252" d="M486.373,314.654c.731-.781.341-1.364-.44-1.512a1.656,1.656,0,0,0-2.629-.194c-2.163,1.834-1.853,4.192-3.7,4.241a1.723,1.723,0,0,1-1.463-.83,10.51,10.51,0,0,0-.455,1.859,6.5,6.5,0,0,0,2.3.607,4.57,4.57,0,0,1-2.4.551,5.411,5.411,0,0,0,.166,1.439,7.3,7.3,0,0,0,4.363-.27,5.167,5.167,0,0,1-2.3,1.584c.027.04.053.081.079.126a9.857,9.857,0,0,0,.689,1.051,6.043,6.043,0,0,0,3.252-1.628,13.262,13.262,0,0,1-1.433,1.8,5.044,5.044,0,0,0,1.146.528,2.185,2.185,0,0,0,1.366.049,6.86,6.86,0,0,0,1.558-4.92C486.08,316.458,485.642,315.434,486.373,314.654Z" transform="translate(-477.586 -303.301)" fill="#a62b00"/>
                    <path id="Path_253-2" data-name="Path 253" d="M486.373,314.653c.731-.78.341-1.364-.44-1.511a1.691,1.691,0,0,0-1.593-.73.689.689,0,0,1,.163.5c.011.838-.886,1.215-1.074,2.032a17.847,17.847,0,0,1-.584,2.673,2.963,2.963,0,0,1-3.05,2.173c-.195-.015-.311-.295-.105-.4a3.478,3.478,0,0,0,1.844-2.364c-1.2.722-2.452.742-3.228-.444a1.7,1.7,0,0,1-.166-.225,10.508,10.508,0,0,0-.455,1.86,6.51,6.51,0,0,0,2.3.606,4.569,4.569,0,0,1-2.4.551,5.411,5.411,0,0,0,.166,1.439,7.3,7.3,0,0,0,4.363-.27,5.171,5.171,0,0,1-2.3,1.583c.027.04.053.081.079.126a9.948,9.948,0,0,0,.689,1.051,6.048,6.048,0,0,0,3.252-1.629,13.262,13.262,0,0,1-1.433,1.8,5.044,5.044,0,0,0,1.146.528,2.178,2.178,0,0,0,1.366.049,6.86,6.86,0,0,0,1.558-4.92C486.08,316.457,485.642,315.433,486.373,314.653Z" transform="translate(-477.586 -303.301)" fill="#a62b00" style="mix-blend-mode: multiply;isolation: isolate"/>
                    <path id="Path_254-2" data-name="Path 254" d="M509.72,306.169s-7.049-3.866-13.611.552a5.692,5.692,0,0,0-3.119,5.52l1.69.293a6.718,6.718,0,0,1,1.2-3.184,4.991,4.991,0,0,0-.163,2.825l2.568-.13s.356-2.4,1.557-3.311a4.653,4.653,0,0,0-.616,3.215l5.3-.29s.742-.685.711-2.861a5.846,5.846,0,0,1-.065,2.795,15.459,15.459,0,0,0,3.477-.683,4.9,4.9,0,0,0,.033-3.084,5.64,5.64,0,0,1,.358,3.149l2.174-.29S512.025,308.7,509.72,306.169Z" transform="translate(-482.222 -300.953)" fill="#a62b00"/>
                    <path id="Path_255-2" data-name="Path 255" d="M493.58,311.172a5.324,5.324,0,0,0-.589,3.05l1.69.293a6.658,6.658,0,0,1,.848-2.635A5.4,5.4,0,0,1,493.58,311.172Z" transform="translate(-482.222 -302.934)" fill="#a62b00" style="mix-blend-mode: multiply;isolation: isolate"/>
                    <path id="Path_256-2" data-name="Path 256" d="M510.99,308.082a2.972,2.972,0,0,1-.03-2.194c-.147-.053-.3-.107-.469-.164-1.264,2.876-4.657,4.243-7.714,4.558-.244.024-.516.047-.812.069a3.94,3.94,0,0,0-.074,1.936l5.3-.29s.743-.685.711-2.861a5.846,5.846,0,0,1-.065,2.795,15.459,15.459,0,0,0,3.477-.683,4.52,4.52,0,0,0,.147-2.5A2.3,2.3,0,0,1,510.99,308.082Z" transform="translate(-484.887 -301.291)" fill="#a62b00" style="mix-blend-mode: multiply;isolation: isolate"/>
                    <path id="Path_257-2" data-name="Path 257" d="M515.8,310.209a5.191,5.191,0,0,1,.12,2.456l2.174-.29a3.253,3.253,0,0,0,.033-1.822A2.245,2.245,0,0,1,515.8,310.209Z" transform="translate(-489.109 -302.643)" fill="#a62b00" style="mix-blend-mode: multiply;isolation: isolate"/>
                    <path id="Path_258-2" data-name="Path 258" d="M496.838,312.235a3.918,3.918,0,0,0,0,2.242l2.568-.13a8.449,8.449,0,0,1,.6-2A14.676,14.676,0,0,1,496.838,312.235Z" transform="translate(-483.339 -303.254)" fill="#a62b00" style="mix-blend-mode: multiply;isolation: isolate"/>
                    <path id="Path_259-2" data-name="Path 259" d="M503.863,323.819a.51.51,0,0,1,.576-.521,1.034,1.034,0,0,1,.489.173,1.434,1.434,0,0,0-.224-.2.7.7,0,0,0,.173-.331,1.4,1.4,0,0,0-.221-.553l-.032-.043a1.326,1.326,0,0,1,.017.2,1.363,1.363,0,0,1-.2.6.532.532,0,0,0-.252-.01.635.635,0,0,0-.511.583.954.954,0,0,0,.326.709.8.8,0,0,0,.363.186A1.182,1.182,0,0,1,503.863,323.819Z" transform="translate(-485.453 -306.301)" fill="#c39368"/>
                    <path id="Path_260-2" data-name="Path 260" d="M508.988,315.652c-.027,0-.022.039,0,.039S509.014,315.652,508.988,315.652Z" transform="translate(-487.048 -304.285)" fill="#f34700"/>
                    <path id="Path_261-2" data-name="Path 261" d="M509.755,316.053a1.377,1.377,0,0,0-1.213,1.512c0,.039.061.04.066,0,.1-.619.515-1.282,1.229-1.171.506.076.8.645.915,1,.033.108.135-.02.13-.139C510.86,316.755,510.287,316.045,509.755,316.053Z" transform="translate(-486.919 -304.405)" fill="#c62b00"/>
                    <path id="Path_262-2" data-name="Path 262" d="M499.756,316.382a1.376,1.376,0,0,1,1.5,1.233c.009.036-.052.049-.065.015-.227-.585-.765-1.15-1.444-.895a1.365,1.365,0,0,0-.689,1.17c-.01.11-.136.006-.157-.111A1.392,1.392,0,0,1,499.756,316.382Z" transform="translate(-484.008 -304.498)" fill="#c62b00"/>
                    <path id="Path_263-2" data-name="Path 263" d="M488.572,312.416c.073-.248.587-2,.11-2.163-.511-.171-1.85.706-2.141.8a8.752,8.752,0,0,0,1.8,1.491,7.892,7.892,0,0,1-.385,1.748,2.1,2.1,0,0,0,.757-.12c.437-.147.875.022.947-.415C489.721,313.377,489.076,312.694,488.572,312.416Z" transform="translate(-480.286 -302.65)" fill="#ff7698"/>
                    <path id="Path_264-2" data-name="Path 264" d="M521.862,311.628c-.252.055-2.03.487-1.932.979.108.527,1.537,1.253,1.766,1.458a8.756,8.756,0,0,0,.4-2.3,7.925,7.925,0,0,1,1.707-.539,2.088,2.088,0,0,0-.483-.594c-.344-.308-.416-.77-.832-.615C522.122,310.148,521.853,311.049,521.862,311.628Z" transform="translate(-490.351 -302.576)" fill="#ff7698"/>
                    <path id="Path_265-2" data-name="Path 265" d="M513.381,321.711c.034.314-.548.636-1.3.724s-1.4-.1-1.433-.414.548-.64,1.307-.724S513.344,321.4,513.381,321.711Z" transform="translate(-487.552 -305.98)" fill="#f9cbc0"/>
                    <path id="Path_266-2" data-name="Path 266" d="M499.779,322.662c.035.316-.548.639-1.3.726s-1.4-.1-1.431-.416.547-.637,1.3-.722S499.742,322.349,499.779,322.662Z" transform="translate(-483.452 -306.268)" fill="#f9cbc0"/>
                  </g>
                </g>
                <g id="Group_213-2" data-name="Group 213" transform="translate(16.691 18.261)">
                  <path id="Path_267-2" data-name="Path 267" d="M501.481,326.106a10.061,10.061,0,0,0,6.52-.585s-.518,2.26-3.525,2.343S501.481,326.106,501.481,326.106Z" transform="translate(-501.481 -325.521)" fill="#fff"/>
                  <path id="Path_268-2" data-name="Path 268" d="M502.1,327.222s.09.017.248.04c.079.013.176.024.286.038s.235.027.372.038.284.024.44.032.321.008.491.017.346,0,.526,0,.361-.01.541-.031.362-.029.539-.058l.263-.036.255-.049.246-.047.233-.059a4.311,4.311,0,0,0,.424-.121l.354-.115.265-.11.235-.092-.223.116c-.071.038-.158.082-.258.133s-.219.092-.349.141a4.232,4.232,0,0,1-.421.143l-.233.072-.249.057-.256.057-.266.041c-.18.031-.362.047-.546.064s-.368.018-.549.027-.36,0-.532-.008-.339-.019-.5-.038-.305-.034-.441-.054-.26-.045-.37-.064-.2-.044-.283-.063C502.184,327.251,502.1,327.222,502.1,327.222Z" transform="translate(-501.667 -325.866)" fill="#dde6ec"/>
                </g>
              </g>
            </g>
          </g>
        </g>
      </g>
    </g>
  </g>
</svg>
