<svg id="Group_188" data-name="Group 188" xmlns="http://www.w3.org/2000/svg" xmlns:xlink="http://www.w3.org/1999/xlink" width="70.136" height="61.506" viewBox="0 0 70.136 61.506">
  <defs>
    <clipPath id="clip-path">
      <rect id="Rectangle_51" data-name="Rectangle 51" width="70.136" height="61.506" fill="none"/>
    </clipPath>
  </defs>
  <g id="Group_187" data-name="Group 187" transform="translate(0 0)" clip-path="url(#clip-path)">
    <g id="Group_186" data-name="Group 186" transform="translate(2.232 0.985)">
      <path id="Path_124" data-name="Path 124" d="M626.114,179.246l-.017-.026a8.883,8.883,0,0,1-1.825-6.509,5.524,5.524,0,0,0-2.131-4.776c-1.045-.775-2.373-1.137-3.349-2.014-1.548-1.39-.464-2.511-.7-4.246a2.821,2.821,0,0,0-.768-1.421c-2.042-2.315-2.731-5.344-2.94-8.345-.187-2.667.052-6.676-2.361-8.473-.606-.452-1.477.049-1.825-.693a8.494,8.494,0,0,0-2.583-3.228c-2.776-2.157-7.048-2.473-10.412-2.318a44.119,44.119,0,0,0-11.372,2.008,35.472,35.472,0,0,0-5.179,1.995c-.847.425-1.64.929-2.47,1.386-.362.2-.726.394-1.089.594-.271.149-.444.411-.72.538-.021.009-.028.041,0,.04a6.738,6.738,0,0,0-2.1,2.615c-.8,1.638-.819,3.534-1.615,5.169-.717,1.468-2.227,2.161-3.371,3.227-1.186,1.1-1.193,2.633-1.421,4.121a8.623,8.623,0,0,1-2.8,4.706,5.711,5.711,0,0,0-1.886,3.715c-.032,1.682,1.094,3.173.965,4.862-.171,2.224-2.164,3.873-3.078,5.791-.752,1.58.457,2.879,1.4,4.03a4.96,4.96,0,0,1,1.3,1.9c.343,1.669-.69,2.052-.227,2.429.414.335,1.4-.516,1.74-.786a6.954,6.954,0,0,0,2.247-3.232c-.007.04-.014.078-.022.123a6.146,6.146,0,0,1-.558,1.582c-.18.375-.911.823-.692,1.278a.052.052,0,0,0,.052.033,4.55,4.55,0,0,0,2.775-1.621,5.172,5.172,0,0,0,1.038-1.677,6.093,6.093,0,0,0,.839,1.295,6.025,6.025,0,0,0,3.122,1.594c1.247.295,2.535,0,3.775.2.132.021.379-.279.2-.346a3.5,3.5,0,0,1-2.126-3.373,7.663,7.663,0,0,0,.637,1.064c.926,1.325,2.517,2.65,4.247,2.555.085-.006.208-.12.147-.21-.218-.322-.413-.629-.585-.935,1.235,1.261,3.337,1.644,5.288,1.729a9.032,9.032,0,0,0,2.976.462c.574-.006,1.713.125,2.047-.459a.136.136,0,0,0-.006-.153c-.127-.15-.255-.285-.383-.414a5.285,5.285,0,0,0,2.437.869,3.95,3.95,0,0,0,3-1.235,9.579,9.579,0,0,1-.978,1.188c-.053.054-.1.225.036.187a6.658,6.658,0,0,0,3-1.668,4.642,4.642,0,0,1-1.021.951.192.192,0,0,0-.091.19c.117.47,1.55.4,1.936.431a13.821,13.821,0,0,0,3.279-.211c.274-.045.549-.1.821-.154-.118.048-.235.1-.352.142s-.348.4-.1.4c.881.018,1.737.166,2.625.129a22.434,22.434,0,0,0,2.679-.3c.134-.023.271-.051.408-.078a12.535,12.535,0,0,0,6.945-.589,7.284,7.284,0,0,0,3.741-2.5c-.175,2.161-2.526,3.25-2.413,3.292.578.215,1.555-.278,2.1-.474a6.137,6.137,0,0,0,2.034-1.129l.036-.034c.025-.023.082-.01.125,0,1.349.357,3.155-.772,4-1.789a3.287,3.287,0,0,0,.695-1.289c.745.934-.758,2.633-.623,2.611C626.8,183.628,627.218,180.851,626.114,179.246Z" transform="translate(-560.816 -133.91)" fill="#9d3900"/>
      <path id="Path_125" data-name="Path 125" d="M626.359,179.246l-.017-.026a8.883,8.883,0,0,1-1.825-6.509,5.524,5.524,0,0,0-2.131-4.776c-1.045-.775-2.373-1.137-3.349-2.014-1.548-1.39-.464-2.511-.7-4.246a2.821,2.821,0,0,0-.768-1.421c-2.042-2.315-2.731-5.344-2.94-8.345-.187-2.667.052-6.676-2.361-8.473-.606-.452-1.477.049-1.825-.693a8.494,8.494,0,0,0-2.583-3.228c-2.776-2.157-7.048-2.473-10.412-2.318a44.119,44.119,0,0,0-11.372,2.008,35.472,35.472,0,0,0-5.179,1.995c-.847.425-1.64.929-2.47,1.386-.362.2-.726.394-1.089.594-.271.149-.444.411-.72.538-.021.009-.028.041,0,.04-.017.012-.031.025-.049.037a23.436,23.436,0,0,0-2.045,4.874,12.535,12.535,0,0,0-.5,3.508c.02.853.157,1.7.18,2.547.046,1.763-.831,2.98-1.56,4.518a4.494,4.494,0,0,0-.482,3.511,6.022,6.022,0,0,0,1.577,2.192,18.811,18.811,0,0,1,4.33,5.018c.768,1.547.572,4.05-.006,6.036a11.85,11.85,0,0,0,2.352-3.362c.073-.2.947,2.551-1.536,4.981a13.648,13.648,0,0,1-2.3,1.782,17.134,17.134,0,0,1-2.629,1.536c-1.923.776-3.1-.5-3.739-2.161a10.239,10.239,0,0,1-1.575,3.875.21.21,0,0,1-.392-.089,17.543,17.543,0,0,0-.856-4.882c-.12-.232-.245-.459-.384-.681a9.711,9.711,0,0,1-.548,5.182c-.505,1.358-1.29,3.283-2.608,4.191.45.195,1.343-.577,1.664-.831a6.954,6.954,0,0,0,2.247-3.232c-.007.04-.014.078-.022.123a6.146,6.146,0,0,1-.558,1.582c-.18.375-.911.823-.692,1.278a.052.052,0,0,0,.052.033,4.55,4.55,0,0,0,2.775-1.621,5.172,5.172,0,0,0,1.038-1.677,6.093,6.093,0,0,0,.839,1.295,6.025,6.025,0,0,0,3.122,1.594c1.247.295,2.535,0,3.775.2.132.021.379-.279.2-.346a3.5,3.5,0,0,1-2.126-3.373,7.663,7.663,0,0,0,.637,1.064c.926,1.325,2.517,2.65,4.247,2.555.085-.006.208-.12.147-.21-.218-.322-.413-.629-.585-.935,1.235,1.261,3.337,1.644,5.288,1.729a9.032,9.032,0,0,0,2.976.462c.574-.006,1.713.125,2.047-.459a.136.136,0,0,0-.006-.153c-.127-.15-.255-.285-.383-.414a5.285,5.285,0,0,0,2.437.869,3.95,3.95,0,0,0,3-1.235,9.579,9.579,0,0,1-.978,1.188c-.053.054-.1.225.036.187a6.658,6.658,0,0,0,3-1.668,4.642,4.642,0,0,1-1.021.951.192.192,0,0,0-.091.19c.117.47,1.55.4,1.936.431a13.821,13.821,0,0,0,3.279-.211c.274-.045.549-.1.821-.154-.118.048-.235.1-.352.142s-.348.4-.1.4c.881.018,1.737.166,2.625.129a22.434,22.434,0,0,0,2.679-.3c.134-.023.271-.051.408-.078a12.535,12.535,0,0,0,6.945-.589,7.284,7.284,0,0,0,3.741-2.5c-.175,2.161-2.526,3.25-2.413,3.292.578.215,1.555-.278,2.1-.474a6.137,6.137,0,0,0,2.034-1.129l.036-.034c.025-.023.082-.01.125,0,1.349.357,3.155-.772,4-1.789a3.287,3.287,0,0,0,.695-1.289c.745.934-.758,2.633-.623,2.611C627.043,183.628,627.464,180.851,626.359,179.246Zm-3.941.227a4.184,4.184,0,0,1-2.321-1.724,3.828,3.828,0,0,1-.283.728c-.391.75-.9,1.688-1.775,1.922-.127.033-.286-.076-.24-.221a17.18,17.18,0,0,0,.65-2.4c-.1.21-.2.418-.322.621-.58.988-1.382,2.166-2.618,2.3-.156.017-.219-.154-.173-.275a10.31,10.31,0,0,0,.766-4.526c-.007.042-.017.085-.026.127a6.365,6.365,0,0,1-.561,1.823,7.668,7.668,0,0,1-1.047,1.616c-.774,1.12-2.249,2.825-3.775,2.666-1.614-.169-2.341-1.933-3.215-3.065a8.873,8.873,0,0,0-3.1-2.642,13.011,13.011,0,0,0-3.706-.731.189.189,0,0,1-.14-.224,6.191,6.191,0,0,1,2.361-3.582,11.357,11.357,0,0,1,1.374-1.07c.466-.429.959-.834,1.45-1.243a15.3,15.3,0,0,0,1.079-1.384,9.817,9.817,0,0,1,1.528,3.051,6.632,6.632,0,0,0,2.478-3.607,8.82,8.82,0,0,1-.039,2.78c2.384-1.863,3.2-5.4,2.891-8.3a.189.189,0,0,1,.313-.146,5.415,5.415,0,0,1,1.4,1.719,3,3,0,0,1,.3,1.022,7.788,7.788,0,0,0,.037,1.342c.273,1.078,1.4,1.646,2.256,2.205a10.113,10.113,0,0,1,2.811,2.328,5.773,5.773,0,0,1,1,3.818c-.076,1.754-.131,3.243.839,4.789A.188.188,0,0,1,622.418,179.473Z" transform="translate(-561.061 -133.91)" fill="#9d3900" opacity="0.4" style="mix-blend-mode: multiply;isolation: isolate"/>
      <g id="Group_170" data-name="Group 170" transform="translate(7.718 47.478)">
        <path id="Path_126" data-name="Path 126" d="M569.216,200.077c1.279-4.57,5.142-11.018,7.96-14.783,1.623.976,3.227,1.978,4.806,3.022-3.307,5.61-7.934,15.466-10.052,14.672A4.108,4.108,0,0,1,569.216,200.077Z" transform="translate(-569.216 -185.294)" fill="#f2d7bd"/>
        <path id="Path_127" data-name="Path 127" d="M575.1,192.64a18.069,18.069,0,0,1-1.751-.949,65.434,65.434,0,0,1,4.163-6.4c1.623.976,3.227,1.978,4.806,3.022-1.056,1.792-2.247,4.015-3.448,6.188A26.407,26.407,0,0,1,575.1,192.64Z" transform="translate(-569.551 -185.294)" fill="#edc8a5" opacity="0.4" style="mix-blend-mode: multiply;isolation: isolate"/>
        <path id="Path_128" data-name="Path 128" d="M576.426,199.249c-1.8,3-3.453,5.188-4.5,4.8a4.108,4.108,0,0,1-2.713-2.912c.187-.67.436-1.381.722-2.116C571.64,197.765,574.264,198.449,576.426,199.249Z" transform="translate(-569.216 -186.352)" fill="#edc8a5" opacity="0.4" style="mix-blend-mode: multiply;isolation: isolate"/>
      </g>
      <path id="Path_129" data-name="Path 129" d="M583.327,180.458l-.827.032a7.587,7.587,0,0,0-3.675,1.853c-2.217,1.852-5.377,7.2-5.377,7.2s3.325,2.035,7.033,4.319l2.78-4.3Z" transform="translate(-561.841 -137.423)" fill="#00a1dd"/>
      <path id="Path_130" data-name="Path 130" d="M578.509,251.677s-4.508,1.942-4.786,3.539c0,0-.346,1.734,5.758,2.358s31.752.616,34.128-5.618C614.164,250.5,578.509,251.677,578.509,251.677Z" transform="translate(-561.863 -143.165)" fill="#00415c"/>
      <g id="Group_171" data-name="Group 171" transform="translate(13.002 106.917)">
        <path id="Path_131" data-name="Path 131" d="M588.624,286.717a20.972,20.972,0,0,1-.146-3.891c.208-2.952.041-5.943.076-8.9.041-3.428-.005-6.864-.024-10.292-.017-2.9-.024-5.806-.057-8.707-.017-1.384-.012-2.768-.031-4.15,0-.032,0-.063,0-.093l-8.294-.7s.625,9.225,4.093,34.891c0,0,.346,4.648-2.428,6.8a34.587,34.587,0,0,0-4.089,3.581c-.774.822-3.145,2.8-2.536,4.083.372.787,2.357.85,3.113.856,3.251.023,5.733-1.61,7.966-3.828a13.656,13.656,0,0,0,2.644-3.165c.708-1.338.232-2.617.039-4.016C588.837,288.362,588.718,287.54,588.624,286.717Z" transform="translate(-574.976 -249.981)" fill="#f2d7bd"/>
        <path id="Path_132" data-name="Path 132" d="M585.843,256.4c1.028.07,2.069.12,3.09.259q-.005-.868-.014-1.737c-.017-1.384-.012-2.768-.031-4.15,0-.032,0-.063,0-.093l-8.294-.7s.126,1.854.576,6.21A39.045,39.045,0,0,1,585.843,256.4Z" transform="translate(-575.422 -249.981)" fill="#edc8a5" opacity="0.4" style="mix-blend-mode: multiply;isolation: isolate"/>
        <path id="Path_133" data-name="Path 133" d="M587.756,294.768c-1.359,1.558-3.134,3.656-5.062,4.439a4.046,4.046,0,0,1-3.65-.2,1.277,1.277,0,0,1-.539-1.056c-.269.257-4.236,3.263-3.431,4.929.364.753,2.294,1.085,3.052,1.092,3.249.021,5.9-1.9,8.131-4.118.98-.974,2.138-1.653,2.794-2.889s.143-2.71-.065-4A8.412,8.412,0,0,1,587.756,294.768Z" transform="translate(-574.966 -253.469)" fill="#009fb9"/>
        <path id="Path_134" data-name="Path 134" d="M587.16,298.548a17.074,17.074,0,0,1-5.283,4.105,7.265,7.265,0,0,1-5.694.452,1.647,1.647,0,0,1-1.072-1.172,1.43,1.43,0,0,0-.037,1.161c.364.753,2.294,1.085,3.052,1.092,3.249.021,5.9-1.9,8.131-4.118.98-.974,2.138-1.653,2.794-2.889a3.039,3.039,0,0,0,.322-1.518A13.412,13.412,0,0,1,587.16,298.548Z" transform="translate(-574.966 -253.687)" fill="#009fb9" style="mix-blend-mode: multiply;isolation: isolate"/>
      </g>
      <g id="Group_172" data-name="Group 172" transform="translate(32.462 107.387)">
        <path id="Path_135" data-name="Path 135" d="M596.145,252.381s1.941,3.884,6.381,11.237S615.7,289.7,615.7,289.7a1.928,1.928,0,0,0,2.914-.277,2.072,2.072,0,0,0,.277-2.5c-.832-1.387-8.878-26.359-13.179-33.018S596.145,252.381,596.145,252.381Z" transform="translate(-596.145 -250.493)" fill="#f2d7bd"/>
        <path id="Path_136" data-name="Path 136" d="M603.231,258.984a13.876,13.876,0,0,0,4.615-1.031,34.71,34.71,0,0,0-2.129-4.046c-4.3-6.659-9.572-1.526-9.572-1.526s1.114,2.231,3.581,6.5A15.252,15.252,0,0,0,603.231,258.984Z" transform="translate(-596.145 -250.493)" fill="#edc8a5" opacity="0.4" style="mix-blend-mode: multiply;isolation: isolate"/>
        <path id="Path_137" data-name="Path 137" d="M615.055,288.121a29.4,29.4,0,0,1,1.924,7.337c.365,3.64.417,7.8,4.475,7.333s3.9-4.317,2.236-7.023-4.422-8.948-4.422-8.948Z" transform="translate(-597.679 -253.44)" fill="#f2d7bd"/>
        <path id="Path_138" data-name="Path 138" d="M623.856,296.406c-.3-.483-.63-1.082-.976-1.736.007.027.017.053.025.08.386,1.357.978,3.414.08,4.7a2.671,2.671,0,0,1-3.961.375,4.871,4.871,0,0,1-.977-1.756c-.081-.169-.154-.341-.22-.52-.224-.6-.485-1.208-.728-1.826.016.124.033.243.045.368.365,3.64.531,8.54,4.578,7.984C626.459,303.429,625.521,299.112,623.856,296.406Z" transform="translate(-597.845 -254.077)" fill="#009fb9"/>
        <path id="Path_139" data-name="Path 139" d="M625.09,299.6a5.258,5.258,0,0,1-.047.556,3.764,3.764,0,0,1-2.35,3.413,3.241,3.241,0,0,1-3.511-.39,6.767,6.767,0,0,1-1.466-2.513c.486,2.325,1.491,4.166,4.057,3.813C625.054,304.029,625.611,301.816,625.09,299.6Z" transform="translate(-597.895 -254.477)" fill="#009fb9" style="mix-blend-mode: multiply;isolation: isolate"/>
      </g>
      <g id="Group_173" data-name="Group 173" transform="translate(40.025 47.913)">
        <path id="Path_140" data-name="Path 140" d="M617.141,200.55c-1.279-4.57-5.142-11.018-7.959-14.783q-2.434,1.464-4.807,3.022c3.307,5.61,7.934,15.466,10.052,14.672A4.106,4.106,0,0,0,617.141,200.55Z" transform="translate(-604.375 -185.767)" fill="#f2d7bd"/>
        <path id="Path_141" data-name="Path 141" d="M611.593,193.113a17.758,17.758,0,0,0,1.751-.949,65.619,65.619,0,0,0-4.162-6.4q-2.434,1.464-4.807,3.022c1.056,1.792,2.247,4.015,3.448,6.188A26.408,26.408,0,0,0,611.593,193.113Z" transform="translate(-604.375 -185.767)" fill="#edc8a5" opacity="0.4" style="mix-blend-mode: multiply;isolation: isolate"/>
        <path id="Path_142" data-name="Path 142" d="M610.421,199.722c1.8,3,3.454,5.189,4.5,4.8a4.106,4.106,0,0,0,2.713-2.912c-.187-.669-.435-1.381-.722-2.116C615.208,198.238,612.584,198.922,610.421,199.722Z" transform="translate(-604.866 -186.825)" fill="#edc8a5" opacity="0.4" style="mix-blend-mode: multiply;isolation: isolate"/>
      </g>
      <path id="Path_143" data-name="Path 143" d="M583.6,180.336l-.221.087a15.535,15.535,0,0,0-1.434,5,38.46,38.46,0,0,0-.43,4.185c-.015.226-.029.452-.043.678.038.526.088,1.053.162,1.58l2.78-1.97c0-.121.008-.243.008-.364s0-.249,0-.373C584.424,186.175,583.849,183.307,583.6,180.336Z" transform="translate(-562.492 -137.413)" fill="#006db8" opacity="0.6" style="mix-blend-mode: multiply;isolation: isolate"/>
      <path id="Path_144" data-name="Path 144" d="M603.285,180.931l.827.032a7.587,7.587,0,0,1,3.674,1.853c2.217,1.853,5.377,7.2,5.377,7.2s-3.325,2.035-7.032,4.319l-2.781-4.3Z" transform="translate(-564.262 -137.462)" fill="#00a1dd"/>
      <path id="Path_145" data-name="Path 145" d="M606.02,187.113a12.387,12.387,0,0,0-1.794-6.132c-.072-.013-.114-.017-.114-.017l-.827-.032.066,9.1,2.035,3.148c.131-.433.261-.868.364-1.312a17.09,17.09,0,0,0,.375-2.331C606.109,188.711,606.066,187.9,606.02,187.113Z" transform="translate(-564.262 -137.462)" fill="#006db8" opacity="0.6" style="mix-blend-mode: multiply;isolation: isolate"/>
      <path id="Path_146" data-name="Path 146" d="M605.883,215.347a46.808,46.808,0,0,0-2.419-5.894c-.941-1.808-2.152-3.562-2.477-5.617-.624-3.935,1.279-6.443,1.87-10.325a25.353,25.353,0,0,0-1.175-12.706l-2.433-.448-12.789-.974a19.543,19.543,0,0,0-3.641.95s-.357,1.681-.454,2.231c-.546,3.089-1.365,5.946-1.253,9.075.145,4.079,3.189,8.431,2.105,12.4-.905,3.311-3.505,6.182-4.61,9.431q-.655,1.925-1.248,3.872c-2.959,9.671-3.219,21.33-3.635,32.047,1.665-1.561,5.215-3.963,12.9-1.561,12.429,3.884,22.266,3.121,27.168-1.1C614.6,246.028,607.471,219.788,605.883,215.347Z" transform="translate(-561.863 -137.336)" fill="#13a9e1"/>
      <path id="Path_147" data-name="Path 147" d="M605.883,215.347a46.808,46.808,0,0,0-2.419-5.894c-.941-1.808-2.152-3.562-2.477-5.617-.624-3.935,1.279-6.443,1.87-10.325a25.353,25.353,0,0,0-1.175-12.706l-2.433-.448-12.789-.974a19.543,19.543,0,0,0-3.641.95s-.357,1.681-.454,2.231c-.546,3.089-1.365,5.946-1.253,9.075.145,4.079,3.189,8.431,2.105,12.4-.905,3.311-3.505,6.182-4.61,9.431q-.655,1.925-1.248,3.872c-2.959,9.671-3.219,21.33-3.635,32.047,1.665-1.561,5.215-3.963,12.9-1.561,12.429,3.884,22.266,3.121,27.168-1.1C614.6,246.028,607.471,219.788,605.883,215.347Z" transform="translate(-561.863 -137.336)" fill="#7ed3f7"/>
      <path id="Path_148" data-name="Path 148" d="M603.69,192.977a6.3,6.3,0,0,1-4.469.68c-3.083-.549-6-1.333-9.171-.99-1.9.207-4.049.824-5.952.329a4.132,4.132,0,0,1-2.332-1.6c-.015.4-.017.807,0,1.216.145,4.079,3.189,8.431,2.105,12.4a15.292,15.292,0,0,1-1.378,3.239,9.254,9.254,0,0,0,3.759,1.919,22.177,22.177,0,0,0,5.853.868,26.875,26.875,0,0,0,8.573-1.137,19.769,19.769,0,0,0,2.614-.988,12.631,12.631,0,0,1-1.65-4.1c-.624-3.935,1.279-6.443,1.87-10.325C603.587,193.974,603.644,193.471,603.69,192.977Z" transform="translate(-562.515 -138.311)" fill="#68c3ef" opacity="0.2" style="mix-blend-mode: multiply;isolation: isolate"/>
      <path id="Path_149" data-name="Path 149" d="M608,215.462a46.808,46.808,0,0,0-2.419-5.894c-.941-1.808-2.152-3.562-2.477-5.617-.624-3.935,1.279-6.443,1.87-10.325A25.353,25.353,0,0,0,603.8,180.92l-.7-.129c1.105,5,.474,9.93-.909,14.884-.77,2.758-1.693,5.527-2.324,8.332a8.438,8.438,0,0,0,.412,3.342c.694,1.882,1.759,3.6,2.469,5.471a96.886,96.886,0,0,1,3.85,12.912,239.166,239.166,0,0,1,3.807,23.887,14.105,14.105,0,0,0,5.508-2.78C616.719,246.142,609.591,219.9,608,215.462Z" transform="translate(-563.984 -137.45)" fill="#68c3ef" opacity="0.2" style="mix-blend-mode: multiply;isolation: isolate"/>
      <path id="Path_150" data-name="Path 150" d="M589.352,189.516c-.006,0-.015.012-.006.012S589.361,189.516,589.352,189.516Z" transform="translate(-563.131 -138.158)" fill="#006db8"/>
      <g id="Group_175" data-name="Group 175" transform="translate(17.285 60.403)">
        <path id="Path_151" data-name="Path 151" d="M615.4,200.075a2.263,2.263,0,0,0-.535-.351c-1.923-.9-4.714.091-6.665.554-6.537,1.55-15.07,3.1-15.07,3.1l.663,3.391s19.729-.186,21.664-2.057A3.376,3.376,0,0,0,615.4,200.075Z" transform="translate(-580.723 -199.36)" fill="#f2d7bd"/>
        <g id="Group_174" data-name="Group 174" transform="translate(0 3.359)">
          <path id="Path_152" data-name="Path 152" d="M588.041,210.049l-.225-.243a3.333,3.333,0,0,1,1.482-.821c1.528-.953,3.931-.493,5.158-2.006a2.2,2.2,0,0,0-.659-3.434,8.478,8.478,0,0,0-3.177-.529,15.161,15.161,0,0,0-5.112.841,37.37,37.37,0,0,0-4.716,3.052c-.391.52-1.673,1.553-.946,2.072s1.655-.737,2.419-1.455c.885-.832,1.431-1.042,3.414-1.8,0,0-1,.717-.918,1.315a1.116,1.116,0,0,0,.625.832,1.4,1.4,0,0,0,.52,1.327,2.113,2.113,0,0,0,.813,1.739,2,2,0,0,0,1.424.515c.78-.156,1.51-.329,1.8-.867C590.328,209.891,589.151,209.476,588.041,210.049Z" transform="translate(-579.627 -203.016)" fill="#f2d7bd"/>
          <path id="Path_153" data-name="Path 153" d="M587.627,204.795a15.115,15.115,0,0,0-1.56,1.183A3.451,3.451,0,0,1,587.627,204.795Z" transform="translate(-580.15 -203.16)" fill="#edc8a5" opacity="0.7" style="mix-blend-mode: multiply;isolation: isolate"/>
          <path id="Path_154" data-name="Path 154" d="M587.919,206.145s-1.769,1.039-2.055,1.964a10.906,10.906,0,0,1,.961-1.08A11.179,11.179,0,0,1,587.919,206.145Z" transform="translate(-580.133 -203.27)" fill="#edc8a5" opacity="0.7" style="mix-blend-mode: multiply;isolation: isolate"/>
          <path id="Path_155" data-name="Path 155" d="M588.283,207.479s-1.544.955-1.821,2.082A7.684,7.684,0,0,1,588.283,207.479Z" transform="translate(-580.182 -203.378)" fill="#edc8a5" opacity="0.7" style="mix-blend-mode: multiply;isolation: isolate"/>
        </g>
      </g>
      <g id="Group_176" data-name="Group 176" transform="translate(22.634 42.047)">
        <path id="Path_156" data-name="Path 156" d="M587.612,189.246c3.814,2.289,5.341-1.179,5.341-1.179a3.406,3.406,0,0,0,3.329,2.5c2.866.208,5.42-3.507,5.168-9.975l-1.251-.232-12.789-.974s-.583.085-1.4.277C585.537,181.632,584.473,187.362,587.612,189.246Z" transform="translate(-585.449 -179.383)" fill="#00a1dd"/>
      </g>
      <g id="Group_185" data-name="Group 185" transform="translate(12.762)">
        <path id="Path_157" data-name="Path 157" d="M596.3,178.475l.066-4.567h-5.1l-.4,4.567L587.5,179a8.783,8.783,0,0,0,1.412,6.607c1.326,1.7,8.5,3.434,10.353-1.924l1.142-3.755Z" transform="translate(-575.731 -136.892)" fill="#f2d7bd"/>
        <path id="Path_158" data-name="Path 158" d="M598.379,185.017a5.479,5.479,0,0,1-5.2,2.289,5.694,5.694,0,0,1-4.82-2.774,9.456,9.456,0,0,1-.614-5.12l-.244.039a8.783,8.783,0,0,0,1.412,6.607c1.326,1.7,8.5,3.434,10.353-1.924l1.142-3.755-.449-.155A15,15,0,0,1,598.379,185.017Z" transform="translate(-575.731 -137.338)" fill="#edc8a5" opacity="0.4" style="mix-blend-mode: multiply;isolation: isolate"/>
        <path id="Path_159" data-name="Path 159" d="M594.431,178.149a11.014,11.014,0,0,0,2.194.007l.062-4.248h-5.1l-.306,3.509A8.322,8.322,0,0,0,594.431,178.149Z" transform="translate(-576.05 -136.892)" fill="#edc8a5" opacity="0.4" style="mix-blend-mode: multiply;isolation: isolate"/>
        <g id="Group_183" data-name="Group 183" transform="translate(0 7.513)">
          <g id="Group_182" data-name="Group 182">
            <g id="Group_181" data-name="Group 181">
              <g id="Group_177" data-name="Group 177" transform="translate(0 16.981)">
                <path id="Path_160" data-name="Path 160" d="M575.756,160.535c-2.2.894-.886,6.012,3.343,6.084a22.4,22.4,0,0,1-1.429-6.191A2.441,2.441,0,0,0,575.756,160.535Z" transform="translate(-574.705 -160.281)" fill="#edc8a5"/>
                <path id="Path_161" data-name="Path 161" d="M612.709,163.618a2.547,2.547,0,0,0-2.13.106,41.1,41.1,0,0,1-2.219,5.088,12.7,12.7,0,0,0,2.535-.129C613.657,168.375,614.751,164.4,612.709,163.618Z" transform="translate(-577.435 -160.536)" fill="#edc8a5"/>
              </g>
              <path id="Path_162" data-name="Path 162" d="M575.6,163.071a1.9,1.9,0,0,1,.569-.04,2.466,2.466,0,0,1,.58.1,2.7,2.7,0,0,1,.627.277,2.094,2.094,0,0,1,.519.457,2.007,2.007,0,0,1,.306.518,1.4,1.4,0,0,1,.1.408c.012.1.015.155.015.155l-.088-.13c-.025-.041-.054-.09-.091-.147s-.082-.112-.131-.176a1.737,1.737,0,0,0-.161-.195,1.594,1.594,0,0,0-.2-.2,1.935,1.935,0,0,0-.223-.189,2.007,2.007,0,0,0-.253-.172,2.847,2.847,0,0,0-.265-.155c-.094-.039-.179-.1-.273-.13-.178-.085-.355-.147-.505-.208C575.813,163.142,575.6,163.071,575.6,163.071Z" transform="translate(-574.777 -143.522)" fill="#c19168"/>
              <path id="Path_163" data-name="Path 163" d="M612.81,166.324a1.949,1.949,0,0,0-.474-.155c-.074,0-.145-.021-.226-.021a1.716,1.716,0,0,0-.244.011,1.779,1.779,0,0,0-.51.146,1.275,1.275,0,0,0-.249.122,1.614,1.614,0,0,0-.236.141c-.072.05-.151.09-.218.146s-.135.1-.2.139c-.121.087-.221.171-.3.22s-.121.081-.121.081.022-.049.063-.13a1.609,1.609,0,0,1,.083-.147.843.843,0,0,1,.117-.18,2.214,2.214,0,0,1,.368-.4,1.2,1.2,0,0,1,.249-.19,1.419,1.419,0,0,1,.29-.157,1.444,1.444,0,0,1,.323-.1,1.276,1.276,0,0,1,.327-.032,1.151,1.151,0,0,1,.3.049.985.985,0,0,1,.254.1A.951.951,0,0,1,612.81,166.324Z" transform="translate(-577.571 -143.748)" fill="#c19168"/>
              <g id="Group_178" data-name="Group 178" transform="translate(2.185)">
                <path id="Path_164" data-name="Path 164" d="M609.784,152.731c.471-4.982-4.211-7.519-8.209-8.979-3.943-1.441-8.63-1.664-12.783-1.926-6.161-.391-10.5,3.642-11.172,9.723a21.924,21.924,0,0,0-.517,3.819,19.428,19.428,0,0,0,.491,5.362c.758,3.2,1.911,6.486,4.172,8.95a13.931,13.931,0,0,0,11.762,4.856,16.493,16.493,0,0,0,11.568-6.311c.662-.821,1.232-1.7,1.822-2.568a26.7,26.7,0,0,0,1.312-3.194,29.4,29.4,0,0,0,1.124-4.411A26.305,26.305,0,0,0,609.784,152.731Z" transform="translate(-577.083 -141.8)" fill="#f2d7bd"/>
              </g>
              <path id="Path_165" data-name="Path 165" d="M599.451,156.96s.8-1.172,1.628-.9a1.915,1.915,0,0,1,1.172,1.424C602.355,157.835,601.324,156.2,599.451,156.96Z" transform="translate(-576.712 -142.953)" fill="#9d3900"/>
              <path id="Path_166" data-name="Path 166" d="M585.82,156.929s.457-1.346,1.327-1.306a1.916,1.916,0,0,1,1.512,1.059C588.851,157,587.421,155.7,585.82,156.929Z" transform="translate(-575.606 -142.921)" fill="#9d3900"/>
              <g id="Group_179" data-name="Group 179" transform="translate(11.004 17.001)">
                <path id="Path_167" data-name="Path 167" d="M588.316,162.19c-.028,1.03-.416,1.855-.866,1.843s-.794-.855-.768-1.888.417-1.857.868-1.843S588.345,161.159,588.316,162.19Z" transform="translate(-586.68 -160.302)" fill="#673121"/>
                <path id="Path_168" data-name="Path 168" d="M588.135,161.427c.005.311-.1.569-.235.57s-.255-.246-.262-.56.1-.567.236-.569S588.127,161.115,588.135,161.427Z" transform="translate(-586.758 -160.348)" fill="#fff"/>
              </g>
              <g id="Group_180" data-name="Group 180" transform="translate(22.588 17.005)">
                <path id="Path_169" data-name="Path 169" d="M600.923,162.2c-.028,1.029-.416,1.855-.867,1.841s-.795-.856-.766-1.886.419-1.856.869-1.844S600.952,161.163,600.923,162.2Z" transform="translate(-599.287 -160.306)" fill="#673121"/>
                <path id="Path_170" data-name="Path 170" d="M600.815,161.43c.045.31-.03.576-.165.6s-.28-.218-.324-.527.031-.574.165-.593S600.773,161.122,600.815,161.43Z" transform="translate(-599.37 -160.354)" fill="#fff"/>
              </g>
              <path id="Path_171" data-name="Path 171" d="M585.5,165.418c-.039.594-1.228.992-2.652.893s-2.547-.662-2.506-1.253,1.23-.991,2.654-.891S585.544,164.826,585.5,165.418Z" transform="translate(-575.162 -143.613)" fill="#f7c9be" style="mix-blend-mode: multiply;isolation: isolate"/>
              <path id="Path_172" data-name="Path 172" d="M606.163,165c.05.591-1.065,1.166-2.486,1.284s-2.618-.268-2.667-.858,1.066-1.17,2.489-1.285S606.116,164.4,606.163,165Z" transform="translate(-576.839 -143.61)" fill="#f7c9be" style="mix-blend-mode: multiply;isolation: isolate"/>
            </g>
          </g>
        </g>
        <path id="Path_173" data-name="Path 173" d="M594.793,166.833c-.592.293-1.4.948-2.077.584-.871-.468-.333-2.328-.283-3.1,0-.04-.043,0-.047.019-.179.95-.957,2.855.183,3.485.733.405,1.734-.423,2.247-.86C594.854,166.93,594.883,166.788,594.793,166.833Z" transform="translate(-576.105 -136.112)" fill="#b48055"/>
        <g id="Group_184" data-name="Group 184" transform="translate(13.641 34.114)">
          <path id="Path_174" data-name="Path 174" d="M589.55,172.052a12.116,12.116,0,0,0,8.392-1.3s-.33,2.5-4.116,3.015C590.548,174.214,589.55,172.052,589.55,172.052Z" transform="translate(-589.55 -170.749)" fill="#ed795f"/>
          <path id="Path_175" data-name="Path 175" d="M594.534,172.554a6.377,6.377,0,0,0-2.889,1.176A5.111,5.111,0,0,0,594,173.9a5.5,5.5,0,0,0,3.114-1.318A5.541,5.541,0,0,0,594.534,172.554Z" transform="translate(-589.72 -170.884)" fill="#f4afad"/>
          <path id="Path_176" data-name="Path 176" d="M596.566,172.352a2.175,2.175,0,0,0,1.073-1.434,12.357,12.357,0,0,1-7.835,1.2,2.145,2.145,0,0,0,.355.488,9.387,9.387,0,0,0,4.8.193A11.631,11.631,0,0,0,596.566,172.352Z" transform="translate(-589.571 -170.763)" fill="#fff"/>
        </g>
        <path id="Path_177" data-name="Path 177" d="M614.286,146.918a12.743,12.743,0,0,0-1.51-4.747,9.823,9.823,0,0,0-4.841-4.5c-.073-.028-.149-.049-.222-.074-.432-.248-.886-.47-1.307-.7-.974-.528-1.922-1.118-2.927-1.592-4.531-2.135-10.287-2.041-15.063-.842-5.525,1.387-10.847,5.186-12.514,10.841-1.455,4.935-.342,10.153,1.315,14.9a5.115,5.115,0,0,1,.446,1.181c-.769-7.31,4.073-13.886,4.1-13.878a32.684,32.684,0,0,0,14.6,2.545,39,39,0,0,0,8.328-1.33c.3-.135,2.577,6.438,3.006,8.573a12.964,12.964,0,0,1-.312,6.364c.045-.185.446-.5.566-.65.425-.52.829-1.059,1.229-1.6a36.431,36.431,0,0,0,2.95-4.442,18.272,18.272,0,0,0,2.205-9.535Q614.316,147.184,614.286,146.918Z" transform="translate(-574.747 -133.623)" fill="#9d3900"/>
        <path id="Path_178" data-name="Path 178" d="M614.333,147.443q-.017-.259-.047-.525a12.743,12.743,0,0,0-1.51-4.747,9.823,9.823,0,0,0-4.841-4.5c-.073-.028-.149-.049-.222-.074-.432-.248-.886-.47-1.307-.7-.974-.528-1.922-1.118-2.927-1.592-4.531-2.135-10.287-2.041-15.063-.842-.138.034-.276.076-.413.114a30.22,30.22,0,0,1,3.583-.354,23.382,23.382,0,0,1,10.124,1.53,13.051,13.051,0,0,1,7.061,7.292,12.448,12.448,0,0,1,.819,4.622,9,9,0,0,1-1.252,3.516,17.6,17.6,0,0,0-3.577-5.478c-3.514,2.336-8.216,2.626-12.312,2.452a19.818,19.818,0,0,1-7.958-1.664,10.108,10.108,0,0,1-3.225-2.349c-.065-.074-.12-.153-.182-.228a14.88,14.88,0,0,0-3.9,8.434,18.629,18.629,0,0,1-1.58-5.362c0-.2.015-.4.025-.594-1.009,4.607.054,9.41,1.591,13.811a5.115,5.115,0,0,1,.446,1.181c-.769-7.31,4.073-13.886,4.1-13.878a32.684,32.684,0,0,0,14.6,2.545,39,39,0,0,0,8.328-1.33c.3-.135,2.577,6.438,3.006,8.573a12.964,12.964,0,0,1-.312,6.364c.045-.185.446-.5.566-.65.425-.52.829-1.059,1.229-1.6a36.431,36.431,0,0,0,2.95-4.442A18.272,18.272,0,0,0,614.333,147.443Z" transform="translate(-574.747 -133.623)" fill="#9d3900" opacity="0.4" style="mix-blend-mode: multiply;isolation: isolate"/>
      </g>
    </g>
  </g>
</svg>
