<svg xmlns="http://www.w3.org/2000/svg" xmlns:xlink="http://www.w3.org/1999/xlink" width="81.618" height="47.522" viewBox="0 0 81.618 47.522">
  <defs>
    <clipPath id="clip-path">
      <rect id="Rectangle_55" data-name="Rectangle 55" width="38.619" height="31.681" fill="none"/>
    </clipPath>
  </defs>
  <g id="Group_297" data-name="Group 297" transform="translate(-133.923 -686.182)">
    <g id="Group_257" data-name="Group 257" transform="translate(133.923 702.023)">
      <g id="Group_256" data-name="Group 256" transform="translate(0 0)" clip-path="url(#clip-path)">
        <g id="Group_255" data-name="Group 255" transform="translate(0.443 1.83)">
          <g id="Group_246" data-name="Group 246" transform="translate(0 22.269)">
            <path id="Path_333" data-name="Path 333" d="M438.027,377.244a43.214,43.214,0,0,0,.366,13.385,1.641,1.641,0,0,0,1.162,1c.8.092,1.022-.145,1.122-.56s-1.225-6.52-.256-12.855l.182-.585Z" transform="translate(-427.956 -349.594)" fill="#efcaa6"/>
            <path id="Path_334" data-name="Path 334" d="M440.384,379.012c.033-.266.069-.534.109-.8l.182-.585-2.577-.381s-.1.593-.187,1.623A10.207,10.207,0,0,0,440.384,379.012Z" transform="translate(-428.027 -349.594)" fill="#efcaa6" style="mix-blend-mode: multiply;isolation: isolate"/>
            <path id="Path_335" data-name="Path 335" d="M438.125,392.653c.1.852.235,1.729.4,2.622a1.641,1.641,0,0,0,1.162,1c.8.092,1.022-.145,1.122-.56.039-.162-.14-1.2-.315-2.778A4.358,4.358,0,0,1,438.125,392.653Z" transform="translate(-428.092 -354.24)" fill="#e30613"/>
            <g id="Group_237" data-name="Group 237" transform="translate(5.825 40.697)">
              <path id="Path_336" data-name="Path 336" d="M432.111,399.776a.663.663,0,0,0,.371.73c.478.209,6.319.195,7.426-.537,0,0-.01-.17-.027-.425a19.039,19.039,0,0,1-4.171.589C432.736,400.382,432.111,399.776,432.111,399.776Z" transform="translate(-432.1 -397.015)" fill="#006ab0"/>
              <path id="Path_337" data-name="Path 337" d="M439.483,395.962c-.275-.089-1.3-.09-1.322.787a1.429,1.429,0,0,0-1.943-.381s-3.743.689-4.1,2.317c0,0,.626.606,3.6.357a19.039,19.039,0,0,0,4.171-.589A7.67,7.67,0,0,0,439.483,395.962Z" transform="translate(-432.105 -395.923)" fill="#ffa900"/>
            </g>
            <g id="Group_239" data-name="Group 239" transform="translate(19.398 26.956)">
              <path id="Path_338" data-name="Path 338" d="M454.33,376.251a44.537,44.537,0,0,1,.37,13.795,1.641,1.641,0,0,1-1.113,1.05c-.8.129-1.028-.1-1.147-.507s.915-6.572-.353-12.853l-.219-1Z" transform="translate(-451.632 -376.251)" fill="#efcaa6"/>
              <path id="Path_339" data-name="Path 339" d="M452.19,378.275a10.035,10.035,0,0,0,2.393-.549c-.138-.936-.253-1.475-.253-1.475l-2.463.48.219,1C452.123,377.916,452.158,378.1,452.19,378.275Z" transform="translate(-451.632 -376.251)" fill="#efcaa6" style="mix-blend-mode: multiply;isolation: isolate"/>
              <path id="Path_340" data-name="Path 340" d="M455.222,392.222c-.063.856-.153,1.739-.279,2.639a1.641,1.641,0,0,1-1.113,1.05c-.8.129-1.028-.1-1.147-.507-.046-.161.083-1.2.183-2.79A4.352,4.352,0,0,0,455.222,392.222Z" transform="translate(-451.875 -381.066)" fill="#e30613"/>
              <g id="Group_238" data-name="Group 238" transform="translate(0 13.572)">
                <path id="Path_341" data-name="Path 341" d="M459.31,399.153a.662.662,0,0,1-.337.747c-.467.232-6.3.494-7.442-.185,0,0,0-.171.006-.425a19.032,19.032,0,0,0,4.194.391C458.713,399.789,459.31,399.153,459.31,399.153Z" transform="translate(-451.531 -396.728)" fill="#006ab0"/>
                <path id="Path_342" data-name="Path 342" d="M451.824,395.735c.27-.1,1.289-.152,1.358.724a1.429,1.429,0,0,1,1.924-.473s3.77.511,4.206,2.12c0,0-.6.636-3.578.527a19.032,19.032,0,0,1-4.194-.391A7.673,7.673,0,0,1,451.824,395.735Z" transform="translate(-451.534 -395.681)" fill="#ffa900"/>
              </g>
            </g>
            <g id="Group_240" data-name="Group 240" transform="translate(8.134 19.119)">
              <path id="Path_343" data-name="Path 343" d="M435.514,376.2c-.041.312-.078.625-.108.941a14.094,14.094,0,0,0,6.667.237s.034-.256.091-.647A17.6,17.6,0,0,1,435.514,376.2Z" transform="translate(-435.406 -368.398)" fill="#294381"/>
              <path id="Path_344" data-name="Path 344" d="M455.771,368.651a21.883,21.883,0,0,0-.886-3.038l-1.992-.072C453.082,366.546,453.663,368.493,455.771,368.651Z" transform="translate(-440.678 -365.185)" fill="#294381"/>
              <path id="Path_345" data-name="Path 345" d="M439.979,365.1l-1.9-.068a32.421,32.421,0,0,0-1.146,3.335C439.377,368.72,439.88,365.985,439.979,365.1Z" transform="translate(-435.868 -365.031)" fill="#294381"/>
              <path id="Path_346" data-name="Path 346" d="M447.73,376.225c.088.37.142.617.137.635a17.716,17.716,0,0,0,7.261-1.383s-.052-.251-.14-.657A25.188,25.188,0,0,1,447.73,376.225Z" transform="translate(-439.122 -367.982)" fill="#294381"/>
              <path id="Path_347" data-name="Path 347" d="M450.545,368.527c-2.108-.159-2.689-2.105-2.878-3.11l-8.1-.288c-.1.886-.6,3.622-3.042,3.268a31.16,31.16,0,0,0-.962,4.466,17.6,17.6,0,0,0,6.65.532,20.426,20.426,0,0,1,.879-3.984s.673,2.647.971,3.893a25.188,25.188,0,0,0,7.258-1.4C451.151,371.129,450.856,369.8,450.545,368.527Z" transform="translate(-435.452 -365.06)" fill="#006ab0"/>
            </g>
            <g id="Group_241" data-name="Group 241" transform="translate(9.889 19.119)">
              <path id="Path_348" data-name="Path 348" d="M442.976,370.128l1.122.658a32.451,32.451,0,0,0-1.255,5,11.564,11.564,0,0,0,1.472-.235s.034-.256.091-.647a20.426,20.426,0,0,1,.879-3.984,3.187,3.187,0,0,0,1.278-.737A6.734,6.734,0,0,1,442.976,370.128Z" transform="translate(-439.403 -366.568)" fill="#0a5790" opacity="0.5" style="mix-blend-mode: multiply;isolation: isolate"/>
              <path id="Path_349" data-name="Path 349" d="M452.03,371.869c-.168-.769-.463-2.1-.774-3.371a21.89,21.89,0,0,0-.886-3.038l-1.992-.072-8.1-.288-1.9-.068s-.19.449-.461,1.209a.85.85,0,0,1,.538-.07,20.872,20.872,0,0,0,10.486.507,30.029,30.029,0,0,1,1.965,6.354,10.74,10.74,0,0,0,1.263-.506S452.117,372.274,452.03,371.869Z" transform="translate(-437.918 -365.031)" fill="#0a5790" opacity="0.5" style="mix-blend-mode: multiply;isolation: isolate"/>
            </g>
            <g id="Group_242" data-name="Group 242" transform="translate(0 7.415)">
              <path id="Path_350" data-name="Path 350" d="M432.423,348.275s-5,5.42-6.02,11.167a4.891,4.891,0,0,0-1.324,1.19c-.7.859-1.489,1.651-1.286,2.049s.627-.207.882-.6.527-.733.527-.733a4.923,4.923,0,0,0-.611,2.349.2.2,0,0,0,.336.1c.242-.182.692-1.9.946-2.287,0,0-.523,2.364-.008,2.6,0,0,.37.079.462-.485a16.31,16.31,0,0,1,.35-2.255s-.149,2.584.312,2.8.559-.154.509-.768,0-2.317.294-2.429.76.245,1.039.888.706.176.5-.539-.969-1.627-1.637-1.628c0,0,2.533-6.521,5.849-9.864Z" transform="translate(-423.761 -348.275)" fill="#efcaa6"/>
              <path id="Path_351" data-name="Path 351" d="M435.89,350.927c.317-.391.642-.762.976-1.1l-1.116-1.553s-.381.414-.953,1.133A6.553,6.553,0,0,0,435.89,350.927Z" transform="translate(-427.088 -348.275)" fill="#efcaa6" style="mix-blend-mode: multiply;isolation: isolate"/>
            </g>
            <g id="Group_243" data-name="Group 243" transform="translate(24.038)">
              <path id="Path_352" data-name="Path 352" d="M459.126,344.53s1.958,1.507,3.052.981,3.1-3.642,3.1-3.642-.971-.981-.96-1.658.467-.309.736-.017.6.667.6.667a8.112,8.112,0,0,1,.2-2.862c.378-.72.682-.122.61.2a16.873,16.873,0,0,0,.064,2.158s.414-2.011.983-2.445.636.2.536.434a7.292,7.292,0,0,0-.56,1.91,3.279,3.279,0,0,1,1.468-1.4c.862-.284.564.487.412.7s-1.366,1.3-1.39,1.375a9.131,9.131,0,0,1,2.068-.544c.581.087.024,1.041-.737,1.129s-1.234.177-1.234.177a1.239,1.239,0,0,1-1.241.977s-2.15,4.869-4.467,4.845a10.9,10.9,0,0,1-4.183-.928Z" transform="translate(-458.175 -337.66)" fill="#efcaa6"/>
              <path id="Path_353" data-name="Path 353" d="M460.182,348.151a7.876,7.876,0,0,1-1.055-.655l-.951,2.05a9.763,9.763,0,0,0,1.379.5A6.277,6.277,0,0,0,460.182,348.151Z" transform="translate(-458.175 -340.625)" fill="#efcaa6" style="mix-blend-mode: multiply;isolation: isolate"/>
            </g>
            <g id="Group_244" data-name="Group 244" transform="translate(7.793 3.587)">
              <path id="Path_354" data-name="Path 354" d="M434.917,347.68a8.786,8.786,0,0,0,2.1,2.795l.281-.223a18.333,18.333,0,0,1-1.861-2.97C435.122,347.522,434.917,347.68,434.917,347.68Z" transform="translate(-434.917 -344.148)" fill="#ffa900"/>
              <path id="Path_355" data-name="Path 355" d="M445.619,345.334a2.341,2.341,0,0,0,3.492-2.042h0c-.116,0-.17,0-.17,0s-.132-.292-.649-.291-2.45-.128-2.45-.128a1.9,1.9,0,0,0-1.47.175A1.819,1.819,0,0,0,445.619,345.334Z" transform="translate(-437.743 -342.795)" fill="#ffa900"/>
              <path id="Path_356" data-name="Path 356" d="M447.819,343.5c-.7-.079-1.1-.1-1.308-.112h0a2.341,2.341,0,0,1-3.492,2.042,1.819,1.819,0,0,1-1.247-2.288,4.5,4.5,0,0,0-2.518.411,35.487,35.487,0,0,0-3.588,2.472,18.332,18.332,0,0,0,1.861,2.97l1.735-1.37a67.709,67.709,0,0,0-2.356,10.975,25.662,25.662,0,0,0,13.317.492s-.418-8.8-.967-11.212l1.815.882a26.58,26.58,0,0,0,1.294-3.261A24.091,24.091,0,0,0,447.819,343.5Z" transform="translate(-435.143 -342.888)" fill="#e30613"/>
              <path id="Path_357" data-name="Path 357" d="M459.436,346.756s-.161-.087-.421-.224a26.6,26.6,0,0,1-1.294,3.261l.459.224A6.724,6.724,0,0,0,459.436,346.756Z" transform="translate(-441.792 -343.922)" fill="#ffa900"/>
            </g>
            <g id="Group_245" data-name="Group 245" transform="translate(9.022 3.588)" style="mix-blend-mode: multiply;isolation: isolate">
              <path id="Path_358" data-name="Path 358" d="M440.814,349.573v0Z" transform="translate(-437.924 -344.84)" fill="#cecece"/>
              <path id="Path_359" data-name="Path 359" d="M436.677,349.14a4.3,4.3,0,0,0,.873.85l.281-.223,1.735-1.37a21.976,21.976,0,0,1,1.2-2.723C439.541,346.541,437.418,348.462,436.677,349.14Z" transform="translate(-436.677 -343.665)" fill="#cecece"/>
              <path id="Path_360" data-name="Path 360" d="M440.754,349.707c.013-.042.027-.087.041-.131C440.795,349.58,440.78,349.624,440.754,349.707Z" transform="translate(-437.906 -344.841)" fill="#cecece"/>
              <path id="Path_361" data-name="Path 361" d="M455.254,345.406a24.088,24.088,0,0,0-4.546-2c-.7-.079-1.1-.1-1.308-.112-.116,0-.17,0-.17,0s-.132-.292-.649-.291-2.45-.128-2.45-.128a2.661,2.661,0,0,0-.743-.071c-.02.126-.043.269-.073.433-.256,1.428.2,1.987,1.719,2.109a1.75,1.75,0,0,0,1.822-1.535,12.768,12.768,0,0,1,3.02,1.034,18.609,18.609,0,0,1,3.663,1.741,3.758,3.758,0,0,0,.136-.953S455.514,345.544,455.254,345.406Z" transform="translate(-439.261 -342.797)" fill="#cecece"/>
              <path id="Path_362" data-name="Path 362" d="M452.772,345.967a87.048,87.048,0,0,1,.576,14.405,19.7,19.7,0,0,0,2.033-.419s-.418-8.8-.967-11.212C454.413,348.741,454.335,346.566,452.772,345.967Z" transform="translate(-441.53 -343.753)" fill="#cecece"/>
            </g>
            <path id="Path_363" data-name="Path 363" d="M448.463,343.941a2.591,2.591,0,0,0,.207-1.033c.082-.985.112-1.2.112-1.2l-3.018.072-.159,1.852A1.912,1.912,0,0,0,448.463,343.941Z" transform="translate(-430.347 -338.881)" fill="#efcaa6"/>
            <path id="Path_364" data-name="Path 364" d="M448.708,342.823c.077-.907.105-1.112.105-1.112l-3.018.072-.087,1.021A6.056,6.056,0,0,0,448.708,342.823Z" transform="translate(-430.378 -338.881)" fill="#efcaa6" style="mix-blend-mode: multiply;isolation: isolate"/>
          </g>
          <g id="Group_254" data-name="Group 254" transform="translate(1.62)">
            <g id="Group_252" data-name="Group 252">
              <path id="Path_365" data-name="Path 365" d="M445.4,307.03a1.3,1.3,0,0,1,1.112-1.222c1.068-.146,1.534.265,1.644,1.157Z" transform="translate(-431.905 -305.779)" fill="#e30613"/>
              <path id="Path_366" data-name="Path 366" d="M429.086,326.161s-3.1,2.713-3,6.555,5.691,6.87,10.029,3.239Z" transform="translate(-426.08 -311.924)" fill="#006ab0"/>
              <path id="Path_367" data-name="Path 367" d="M429.778,326.161a9.9,9.9,0,0,0-1.4,1.644,2.893,2.893,0,0,1,.305-.187.213.213,0,0,1,.315.23,8.927,8.927,0,0,0,1.684,6.455,7.9,7.9,0,0,0,1.129,1.246,10.409,10.409,0,0,1,.912.7c.137.148.3.337.178.561-.316.569-1.531.506-2.065.437a5.262,5.262,0,0,1-.726-.151,6.4,6.4,0,0,0,6.7-1.143Z" transform="translate(-426.772 -311.924)" fill="#006ab0" opacity="0.4" style="mix-blend-mode: multiply;isolation: isolate"/>
              <path id="Path_368" data-name="Path 368" d="M431.662,314.093s-2.659,5.592-1.7,10.414a8.673,8.673,0,0,0,2.926,4.975,6.048,6.048,0,0,1-.165-4.065,23.81,23.81,0,0,0,1.676-7.844s.263,4.734.954,4.507,1.606-2.355,1.606-2.355.015,2.844.98,2.066,2.339-2.075,2.339-2.075-.78,2.617.539,2.006a9.6,9.6,0,0,0,2.552-1.973s-.921,2.655.4,2.062a11.172,11.172,0,0,0,2.759-2.1s-1.036,2.2.041,1.755a8.283,8.283,0,0,0,2.279-1.775s.2,2.628.937,1.822,1.285-1.3,1.285-1.3a9.878,9.878,0,0,1,2.4,5.8,18.4,18.4,0,0,0,1.431-6.939C455.212,310.06,437.809,304.573,431.662,314.093Z" transform="translate(-427.187 -306.782)" fill="#8d3e22"/>
              <g id="Group_247" data-name="Group 247" transform="translate(3.164 16.998)">
                <path id="Path_369" data-name="Path 369" d="M433.621,331.771s-.271-2.163-1.836-1.546-1.978,3.2,1.391,3.175Z" transform="translate(-430.61 -330.114)" fill="#e1b78c"/>
              </g>
              <g id="Group_248" data-name="Group 248" transform="translate(25.339 16.458)">
                <path id="Path_370" data-name="Path 370" d="M462.356,330.866s.483-2.126,1.98-1.359,1.657,3.375-1.7,3.024Z" transform="translate(-462.356 -329.34)" fill="#e1b78c"/>
              </g>
              <path id="Path_371" data-name="Path 371" d="M450.939,325.165c-.734.807-.937-1.822-.937-1.822a8.283,8.283,0,0,1-2.279,1.775c-1.077.446-.041-1.755-.041-1.755a11.171,11.171,0,0,1-2.759,2.1c-1.32.593-.4-2.062-.4-2.062a9.6,9.6,0,0,1-2.552,1.973c-1.319.611-.539-2.006-.539-2.006s-1.375,1.3-2.339,2.075-.98-2.066-.98-2.066-.914,2.128-1.606,2.355-.954-4.507-.954-4.507a23.81,23.81,0,0,1-1.676,7.844,6.048,6.048,0,0,0,.165,4.065c2.221,1.9,5.572,2.987,9.9,2.884,5.07-.119,8.645-1.681,10.55-5.9a8.348,8.348,0,0,0-2.271-6.253S451.674,324.358,450.939,325.165Z" transform="translate(-428.347 -310.437)" fill="#efcaa6"/>
              <g id="Group_249" data-name="Group 249" transform="translate(2.128 0.654)">
                <path id="Path_372" data-name="Path 372" d="M436.305,310.615c1.075-2.606,3.954-3.518,4.9-3.753a19.085,19.085,0,0,0-6.107,1.714c-4.791,2.286-6.551,9.215-5.808,12.738l2.195-.737s1.513-.2,3.891-.424C435.318,317.957,435.315,313.014,436.305,310.615Z" transform="translate(-429.127 -306.76)" fill="#009a9a"/>
                <path id="Path_373" data-name="Path 373" d="M457.211,309.578a13.059,13.059,0,0,0-9.322-2.841,7.074,7.074,0,0,1,5.807,3.451c1.187,2.239,1.391,6.541,1.39,9.26,1.822.024,3.627.1,5.324.264C460.41,319.713,461.781,313.526,457.211,309.578Z" transform="translate(-434.784 -306.716)" fill="#009a9a"/>
                <path id="Path_374" data-name="Path 374" d="M450.728,310.2a7.074,7.074,0,0,0-5.807-3.451c-.343.017-.686.043-1.027.08-.946.235-3.825,1.147-4.9,3.753-.99,2.4-.987,7.342-.93,9.538a135.9,135.9,0,0,1,14.054-.66C452.12,316.739,451.916,312.438,450.728,310.2Z" transform="translate(-431.815 -306.725)" fill="#006ab0"/>
              </g>
              <path id="Path_375" data-name="Path 375" d="M442.295,321.527l7.711-.182s.486-5.244-3.791-5.143S442.188,320.1,442.295,321.527Z" transform="translate(-430.955 -308.921)" fill="#cc4509"/>
              <g id="Group_250" data-name="Group 250" transform="translate(10.007 17.511)">
                <path id="Path_376" data-name="Path 376" d="M441.418,331.959c.047.634-.142,1.162-.418,1.182s-.539-.476-.585-1.109.142-1.163.419-1.183S441.372,331.324,441.418,331.959Z" transform="translate(-440.407 -330.848)" fill="#461a00"/>
                <path id="Path_377" data-name="Path 377" d="M440.851,331.659c0,.193-.071.348-.154.346s-.152-.157-.149-.35.071-.348.156-.346S440.854,331.466,440.851,331.659Z" transform="translate(-440.449 -330.987)" fill="#fff"/>
              </g>
              <g id="Group_251" data-name="Group 251" transform="translate(18.925 17.3)">
                <path id="Path_378" data-name="Path 378" d="M454.185,331.657c.047.634-.141,1.162-.418,1.181s-.539-.475-.586-1.109.142-1.163.419-1.183S454.139,331.022,454.185,331.657Z" transform="translate(-453.174 -330.546)" fill="#461a00"/>
                <path id="Path_379" data-name="Path 379" d="M453.618,331.357c0,.192-.071.348-.155.347s-.151-.157-.149-.351.071-.347.156-.346S453.621,331.164,453.618,331.357Z" transform="translate(-453.216 -330.685)" fill="#fff"/>
              </g>
              <path id="Path_380" data-name="Path 380" d="M440.416,328.4a2.26,2.26,0,0,1,.713.821c-.162-.717-.409-1.526-1.281-1.461a1.328,1.328,0,0,0-1.183,1.339C439,328.463,439.708,327.921,440.416,328.4Z" transform="translate(-429.874 -312.405)" fill="#7d2d05"/>
              <path id="Path_381" data-name="Path 381" d="M454.179,327.388a1.734,1.734,0,0,1,.953.4,1.215,1.215,0,0,0-1.417-.807,1.859,1.859,0,0,0-1.377,1.8C452.751,328.159,453.412,327.315,454.179,327.388Z" transform="translate(-433.997 -312.163)" fill="#7d2d05"/>
              <path id="Path_382" data-name="Path 382" d="M443.039,338.188s4.155.5,6.778-.634a3.241,3.241,0,0,1-3.049,2.425C444.141,340.217,443.047,338.521,443.039,338.188Z" transform="translate(-431.193 -315.359)" fill="#ef795f"/>
              <path id="Path_383" data-name="Path 383" d="M444.739,339.948a4.244,4.244,0,0,0,2.542.487,3.554,3.554,0,0,0,1.981-.758C447.973,338.837,445.7,338.807,444.739,339.948Z" transform="translate(-431.706 -315.815)" fill="#f6b1af"/>
              <path id="Path_384" data-name="Path 384" d="M446.46,335.716a1.081,1.081,0,0,1-.443-.29.773.773,0,0,1-.237-.474.52.52,0,0,1,.576-.6,1.117,1.117,0,0,1,.408.1.518.518,0,0,1,.115.071.485.485,0,0,0-.212-.352.515.515,0,0,0-.047-.028.817.817,0,0,0-.516-.029.862.862,0,0,0-.6.774c-.12.826.956,1.2,1.614.926A1.708,1.708,0,0,1,446.46,335.716Z" transform="translate(-431.933 -314.312)" fill="#e1b78c" style="mix-blend-mode: multiply;isolation: isolate"/>
              <path id="Path_385" data-name="Path 385" d="M432.752,332.365a.718.718,0,0,0-.5-.518.6.6,0,0,0-.613.21.683.683,0,0,0-.113.261,1.09,1.09,0,0,0-.024.2c0,.074.034.07.044.114,0-.011-.016,0-.017.006l0,.018c0,.015.019.008.022,0,.052-.161.131-.448.342-.467a.481.481,0,0,1,.389.137c.006.006.013.015.019.02-.027.1-.048.191-.082.285-.045.124-.185.408-.346.4-.012,0-.036.024-.02.034.143.092.344-.122.434-.218a.908.908,0,0,0,.184-.3,1.475,1.475,0,0,1,.287.661c0,.051.073.008.081-.019A1.3,1.3,0,0,0,432.752,332.365Z" transform="translate(-427.714 -313.633)" fill="#e1b78c" style="mix-blend-mode: multiply;isolation: isolate"/>
              <path id="Path_386" data-name="Path 386" d="M464.83,330.755c-.237-.1-.569.147-.737.288-.349.293-.689.936-.385,1.373.024.035.077,0,.078-.038a2.052,2.052,0,0,1,.107-.6c.113.251.414.45.641.273.008-.008.013-.031-.006-.027-.237.051-.4-.4-.451-.611.228-.3.806-.643,1.012-.149.007.018.031,0,.032-.015A.43.43,0,0,0,464.83,330.755Z" transform="translate(-437.389 -313.302)" fill="#e1b78c" style="mix-blend-mode: multiply;isolation: isolate"/>
              <path id="Path_387" data-name="Path 387" d="M438.936,334.9c.031.359-.645.707-1.509.779s-1.588-.159-1.618-.52.645-.71,1.51-.78S438.908,334.537,438.936,334.9Z" transform="translate(-429.013 -314.396)" fill="#f9cbc0" style="mix-blend-mode: multiply;isolation: isolate"/>
              <path id="Path_388" data-name="Path 388" d="M458.362,334.421c.033.359-.639.713-1.5.793s-1.59-.145-1.623-.505.64-.716,1.5-.793S458.33,334.063,458.362,334.421Z" transform="translate(-434.87 -314.257)" fill="#f9cbc0" style="mix-blend-mode: multiply;isolation: isolate"/>
            </g>
            <g id="Group_253" data-name="Group 253" transform="translate(2.189 0.657)" style="mix-blend-mode: multiply;isolation: isolate">
              <path id="Path_389" data-name="Path 389" d="M451.477,309.582a13.056,13.056,0,0,0-9.322-2.841c-.343.017-.686.043-1.027.08a19.1,19.1,0,0,0-6.107,1.715c-.047.022-.093.048-.14.072,4.583-2.1,10.139-1.889,12.127,1.764,1.943,3.571,1.155,8.415,1.155,8.415-2.055-.057-8.842.439-8.842.439-9.03.74-10.107,2.047-10.107,2.047l2.195-.737s1.512-.2,3.89-.424a135.89,135.89,0,0,1,14.055-.661c1.822.024,3.625.1,5.324.264C454.678,319.716,456.048,313.53,451.477,309.582Z" transform="translate(-429.214 -306.72)" fill="#b4b4b4"/>
            </g>
          </g>
        </g>
      </g>
    </g>
    <g id="Group_258" data-name="Group 258" transform="translate(176.922 686.182)">
      <g id="Group_256-2" data-name="Group 256" transform="translate(0 0)" clip-path="url(#clip-path)">
        <g id="Group_255-2" data-name="Group 255" transform="translate(0.443 1.83)">
          <g id="Group_246-2" data-name="Group 246" transform="translate(0 22.269)">
            <path id="Path_333-2" data-name="Path 333" d="M438.027,377.244a43.214,43.214,0,0,0,.366,13.385,1.641,1.641,0,0,0,1.162,1c.8.092,1.022-.145,1.122-.56s-1.225-6.52-.256-12.855l.182-.585Z" transform="translate(-427.956 -349.594)" fill="#efcaa6"/>
            <path id="Path_334-2" data-name="Path 334" d="M440.384,379.012c.033-.266.069-.534.109-.8l.182-.585-2.577-.381s-.1.593-.187,1.623A10.207,10.207,0,0,0,440.384,379.012Z" transform="translate(-428.027 -349.594)" fill="#efcaa6" style="mix-blend-mode: multiply;isolation: isolate"/>
            <path id="Path_335-2" data-name="Path 335" d="M438.125,392.653c.1.852.235,1.729.4,2.622a1.641,1.641,0,0,0,1.162,1c.8.092,1.022-.145,1.122-.56.039-.162-.14-1.2-.315-2.778A4.358,4.358,0,0,1,438.125,392.653Z" transform="translate(-428.092 -354.24)" fill="#e30613"/>
            <g id="Group_237-2" data-name="Group 237" transform="translate(5.825 40.697)">
              <path id="Path_336-2" data-name="Path 336" d="M432.111,399.776a.663.663,0,0,0,.371.73c.478.209,6.319.195,7.426-.537,0,0-.01-.17-.027-.425a19.039,19.039,0,0,1-4.171.589C432.736,400.382,432.111,399.776,432.111,399.776Z" transform="translate(-432.1 -397.015)" fill="#006ab0"/>
              <path id="Path_337-2" data-name="Path 337" d="M439.483,395.962c-.275-.089-1.3-.09-1.322.787a1.429,1.429,0,0,0-1.943-.381s-3.743.689-4.1,2.317c0,0,.626.606,3.6.357a19.039,19.039,0,0,0,4.171-.589A7.67,7.67,0,0,0,439.483,395.962Z" transform="translate(-432.105 -395.923)" fill="#ffa900"/>
            </g>
            <g id="Group_239-2" data-name="Group 239" transform="translate(19.398 26.956)">
              <path id="Path_338-2" data-name="Path 338" d="M454.33,376.251a44.537,44.537,0,0,1,.37,13.795,1.641,1.641,0,0,1-1.113,1.05c-.8.129-1.028-.1-1.147-.507s.915-6.572-.353-12.853l-.219-1Z" transform="translate(-451.632 -376.251)" fill="#efcaa6"/>
              <path id="Path_339-2" data-name="Path 339" d="M452.19,378.275a10.035,10.035,0,0,0,2.393-.549c-.138-.936-.253-1.475-.253-1.475l-2.463.48.219,1C452.123,377.916,452.158,378.1,452.19,378.275Z" transform="translate(-451.632 -376.251)" fill="#efcaa6" style="mix-blend-mode: multiply;isolation: isolate"/>
              <path id="Path_340-2" data-name="Path 340" d="M455.222,392.222c-.063.856-.153,1.739-.279,2.639a1.641,1.641,0,0,1-1.113,1.05c-.8.129-1.028-.1-1.147-.507-.046-.161.083-1.2.183-2.79A4.352,4.352,0,0,0,455.222,392.222Z" transform="translate(-451.875 -381.066)" fill="#e30613"/>
              <g id="Group_238-2" data-name="Group 238" transform="translate(0 13.572)">
                <path id="Path_341-2" data-name="Path 341" d="M459.31,399.153a.662.662,0,0,1-.337.747c-.467.232-6.3.494-7.442-.185,0,0,0-.171.006-.425a19.032,19.032,0,0,0,4.194.391C458.713,399.789,459.31,399.153,459.31,399.153Z" transform="translate(-451.531 -396.728)" fill="#006ab0"/>
                <path id="Path_342-2" data-name="Path 342" d="M451.824,395.735c.27-.1,1.289-.152,1.358.724a1.429,1.429,0,0,1,1.924-.473s3.77.511,4.206,2.12c0,0-.6.636-3.578.527a19.032,19.032,0,0,1-4.194-.391A7.673,7.673,0,0,1,451.824,395.735Z" transform="translate(-451.534 -395.681)" fill="#ffa900"/>
              </g>
            </g>
            <g id="Group_240-2" data-name="Group 240" transform="translate(8.134 19.119)">
              <path id="Path_343-2" data-name="Path 343" d="M435.514,376.2c-.041.312-.078.625-.108.941a14.094,14.094,0,0,0,6.667.237s.034-.256.091-.647A17.6,17.6,0,0,1,435.514,376.2Z" transform="translate(-435.406 -368.398)" fill="#294381"/>
              <path id="Path_344-2" data-name="Path 344" d="M455.771,368.651a21.883,21.883,0,0,0-.886-3.038l-1.992-.072C453.082,366.546,453.663,368.493,455.771,368.651Z" transform="translate(-440.678 -365.185)" fill="#294381"/>
              <path id="Path_345-2" data-name="Path 345" d="M439.979,365.1l-1.9-.068a32.421,32.421,0,0,0-1.146,3.335C439.377,368.72,439.88,365.985,439.979,365.1Z" transform="translate(-435.868 -365.031)" fill="#294381"/>
              <path id="Path_346-2" data-name="Path 346" d="M447.73,376.225c.088.37.142.617.137.635a17.716,17.716,0,0,0,7.261-1.383s-.052-.251-.14-.657A25.188,25.188,0,0,1,447.73,376.225Z" transform="translate(-439.122 -367.982)" fill="#294381"/>
              <path id="Path_347-2" data-name="Path 347" d="M450.545,368.527c-2.108-.159-2.689-2.105-2.878-3.11l-8.1-.288c-.1.886-.6,3.622-3.042,3.268a31.16,31.16,0,0,0-.962,4.466,17.6,17.6,0,0,0,6.65.532,20.426,20.426,0,0,1,.879-3.984s.673,2.647.971,3.893a25.188,25.188,0,0,0,7.258-1.4C451.151,371.129,450.856,369.8,450.545,368.527Z" transform="translate(-435.452 -365.06)" fill="#006ab0"/>
            </g>
            <g id="Group_241-2" data-name="Group 241" transform="translate(9.889 19.119)">
              <path id="Path_348-2" data-name="Path 348" d="M442.976,370.128l1.122.658a32.451,32.451,0,0,0-1.255,5,11.564,11.564,0,0,0,1.472-.235s.034-.256.091-.647a20.426,20.426,0,0,1,.879-3.984,3.187,3.187,0,0,0,1.278-.737A6.734,6.734,0,0,1,442.976,370.128Z" transform="translate(-439.403 -366.568)" fill="#0a5790" opacity="0.5" style="mix-blend-mode: multiply;isolation: isolate"/>
              <path id="Path_349-2" data-name="Path 349" d="M452.03,371.869c-.168-.769-.463-2.1-.774-3.371a21.89,21.89,0,0,0-.886-3.038l-1.992-.072-8.1-.288-1.9-.068s-.19.449-.461,1.209a.85.85,0,0,1,.538-.07,20.872,20.872,0,0,0,10.486.507,30.029,30.029,0,0,1,1.965,6.354,10.74,10.74,0,0,0,1.263-.506S452.117,372.274,452.03,371.869Z" transform="translate(-437.918 -365.031)" fill="#0a5790" opacity="0.5" style="mix-blend-mode: multiply;isolation: isolate"/>
            </g>
            <g id="Group_242-2" data-name="Group 242" transform="translate(0 7.415)">
              <path id="Path_350-2" data-name="Path 350" d="M432.423,348.275s-5,5.42-6.02,11.167a4.891,4.891,0,0,0-1.324,1.19c-.7.859-1.489,1.651-1.286,2.049s.627-.207.882-.6.527-.733.527-.733a4.923,4.923,0,0,0-.611,2.349.2.2,0,0,0,.336.1c.242-.182.692-1.9.946-2.287,0,0-.523,2.364-.008,2.6,0,0,.37.079.462-.485a16.31,16.31,0,0,1,.35-2.255s-.149,2.584.312,2.8.559-.154.509-.768,0-2.317.294-2.429.76.245,1.039.888.706.176.5-.539-.969-1.627-1.637-1.628c0,0,2.533-6.521,5.849-9.864Z" transform="translate(-423.761 -348.275)" fill="#efcaa6"/>
              <path id="Path_351-2" data-name="Path 351" d="M435.89,350.927c.317-.391.642-.762.976-1.1l-1.116-1.553s-.381.414-.953,1.133A6.553,6.553,0,0,0,435.89,350.927Z" transform="translate(-427.088 -348.275)" fill="#efcaa6" style="mix-blend-mode: multiply;isolation: isolate"/>
            </g>
            <g id="Group_243-2" data-name="Group 243" transform="translate(24.038)">
              <path id="Path_352-2" data-name="Path 352" d="M459.126,344.53s1.958,1.507,3.052.981,3.1-3.642,3.1-3.642-.971-.981-.96-1.658.467-.309.736-.017.6.667.6.667a8.112,8.112,0,0,1,.2-2.862c.378-.72.682-.122.61.2a16.873,16.873,0,0,0,.064,2.158s.414-2.011.983-2.445.636.2.536.434a7.292,7.292,0,0,0-.56,1.91,3.279,3.279,0,0,1,1.468-1.4c.862-.284.564.487.412.7s-1.366,1.3-1.39,1.375a9.131,9.131,0,0,1,2.068-.544c.581.087.024,1.041-.737,1.129s-1.234.177-1.234.177a1.239,1.239,0,0,1-1.241.977s-2.15,4.869-4.467,4.845a10.9,10.9,0,0,1-4.183-.928Z" transform="translate(-458.175 -337.66)" fill="#efcaa6"/>
              <path id="Path_353-2" data-name="Path 353" d="M460.182,348.151a7.876,7.876,0,0,1-1.055-.655l-.951,2.05a9.763,9.763,0,0,0,1.379.5A6.277,6.277,0,0,0,460.182,348.151Z" transform="translate(-458.175 -340.625)" fill="#efcaa6" style="mix-blend-mode: multiply;isolation: isolate"/>
            </g>
            <g id="Group_244-2" data-name="Group 244" transform="translate(7.793 3.587)">
              <path id="Path_354-2" data-name="Path 354" d="M434.917,347.68a8.786,8.786,0,0,0,2.1,2.795l.281-.223a18.333,18.333,0,0,1-1.861-2.97C435.122,347.522,434.917,347.68,434.917,347.68Z" transform="translate(-434.917 -344.148)" fill="#ffa900"/>
              <path id="Path_355-2" data-name="Path 355" d="M445.619,345.334a2.341,2.341,0,0,0,3.492-2.042h0c-.116,0-.17,0-.17,0s-.132-.292-.649-.291-2.45-.128-2.45-.128a1.9,1.9,0,0,0-1.47.175A1.819,1.819,0,0,0,445.619,345.334Z" transform="translate(-437.743 -342.795)" fill="#ffa900"/>
              <path id="Path_356-2" data-name="Path 356" d="M447.819,343.5c-.7-.079-1.1-.1-1.308-.112h0a2.341,2.341,0,0,1-3.492,2.042,1.819,1.819,0,0,1-1.247-2.288,4.5,4.5,0,0,0-2.518.411,35.487,35.487,0,0,0-3.588,2.472,18.332,18.332,0,0,0,1.861,2.97l1.735-1.37a67.709,67.709,0,0,0-2.356,10.975,25.662,25.662,0,0,0,13.317.492s-.418-8.8-.967-11.212l1.815.882a26.58,26.58,0,0,0,1.294-3.261A24.091,24.091,0,0,0,447.819,343.5Z" transform="translate(-435.143 -342.888)" fill="#e30613"/>
              <path id="Path_357-2" data-name="Path 357" d="M459.436,346.756s-.161-.087-.421-.224a26.6,26.6,0,0,1-1.294,3.261l.459.224A6.724,6.724,0,0,0,459.436,346.756Z" transform="translate(-441.792 -343.922)" fill="#ffa900"/>
            </g>
            <g id="Group_245-2" data-name="Group 245" transform="translate(9.022 3.588)" style="mix-blend-mode: multiply;isolation: isolate">
              <path id="Path_358-2" data-name="Path 358" d="M440.814,349.573v0Z" transform="translate(-437.924 -344.84)" fill="#cecece"/>
              <path id="Path_359-2" data-name="Path 359" d="M436.677,349.14a4.3,4.3,0,0,0,.873.85l.281-.223,1.735-1.37a21.976,21.976,0,0,1,1.2-2.723C439.541,346.541,437.418,348.462,436.677,349.14Z" transform="translate(-436.677 -343.665)" fill="#cecece"/>
              <path id="Path_360-2" data-name="Path 360" d="M440.754,349.707c.013-.042.027-.087.041-.131C440.795,349.58,440.78,349.624,440.754,349.707Z" transform="translate(-437.906 -344.841)" fill="#cecece"/>
              <path id="Path_361-2" data-name="Path 361" d="M455.254,345.406a24.088,24.088,0,0,0-4.546-2c-.7-.079-1.1-.1-1.308-.112-.116,0-.17,0-.17,0s-.132-.292-.649-.291-2.45-.128-2.45-.128a2.661,2.661,0,0,0-.743-.071c-.02.126-.043.269-.073.433-.256,1.428.2,1.987,1.719,2.109a1.75,1.75,0,0,0,1.822-1.535,12.768,12.768,0,0,1,3.02,1.034,18.609,18.609,0,0,1,3.663,1.741,3.758,3.758,0,0,0,.136-.953S455.514,345.544,455.254,345.406Z" transform="translate(-439.261 -342.797)" fill="#cecece"/>
              <path id="Path_362-2" data-name="Path 362" d="M452.772,345.967a87.048,87.048,0,0,1,.576,14.405,19.7,19.7,0,0,0,2.033-.419s-.418-8.8-.967-11.212C454.413,348.741,454.335,346.566,452.772,345.967Z" transform="translate(-441.53 -343.753)" fill="#cecece"/>
            </g>
            <path id="Path_363-2" data-name="Path 363" d="M448.463,343.941a2.591,2.591,0,0,0,.207-1.033c.082-.985.112-1.2.112-1.2l-3.018.072-.159,1.852A1.912,1.912,0,0,0,448.463,343.941Z" transform="translate(-430.347 -338.881)" fill="#efcaa6"/>
            <path id="Path_364-2" data-name="Path 364" d="M448.708,342.823c.077-.907.105-1.112.105-1.112l-3.018.072-.087,1.021A6.056,6.056,0,0,0,448.708,342.823Z" transform="translate(-430.378 -338.881)" fill="#efcaa6" style="mix-blend-mode: multiply;isolation: isolate"/>
          </g>
          <g id="Group_254-2" data-name="Group 254" transform="translate(1.62)">
            <g id="Group_252-2" data-name="Group 252">
              <path id="Path_365-2" data-name="Path 365" d="M445.4,307.03a1.3,1.3,0,0,1,1.112-1.222c1.068-.146,1.534.265,1.644,1.157Z" transform="translate(-431.905 -305.779)" fill="#e30613"/>
              <path id="Path_366-2" data-name="Path 366" d="M429.086,326.161s-3.1,2.713-3,6.555,5.691,6.87,10.029,3.239Z" transform="translate(-426.08 -311.924)" fill="#006ab0"/>
              <path id="Path_367-2" data-name="Path 367" d="M429.778,326.161a9.9,9.9,0,0,0-1.4,1.644,2.893,2.893,0,0,1,.305-.187.213.213,0,0,1,.315.23,8.927,8.927,0,0,0,1.684,6.455,7.9,7.9,0,0,0,1.129,1.246,10.409,10.409,0,0,1,.912.7c.137.148.3.337.178.561-.316.569-1.531.506-2.065.437a5.262,5.262,0,0,1-.726-.151,6.4,6.4,0,0,0,6.7-1.143Z" transform="translate(-426.772 -311.924)" fill="#006ab0" opacity="0.4" style="mix-blend-mode: multiply;isolation: isolate"/>
              <path id="Path_368-2" data-name="Path 368" d="M431.662,314.093s-2.659,5.592-1.7,10.414a8.673,8.673,0,0,0,2.926,4.975,6.048,6.048,0,0,1-.165-4.065,23.81,23.81,0,0,0,1.676-7.844s.263,4.734.954,4.507,1.606-2.355,1.606-2.355.015,2.844.98,2.066,2.339-2.075,2.339-2.075-.78,2.617.539,2.006a9.6,9.6,0,0,0,2.552-1.973s-.921,2.655.4,2.062a11.172,11.172,0,0,0,2.759-2.1s-1.036,2.2.041,1.755a8.283,8.283,0,0,0,2.279-1.775s.2,2.628.937,1.822,1.285-1.3,1.285-1.3a9.878,9.878,0,0,1,2.4,5.8,18.4,18.4,0,0,0,1.431-6.939C455.212,310.06,437.809,304.573,431.662,314.093Z" transform="translate(-427.187 -306.782)" fill="#8d3e22"/>
              <g id="Group_247-2" data-name="Group 247" transform="translate(3.164 16.998)">
                <path id="Path_369-2" data-name="Path 369" d="M433.621,331.771s-.271-2.163-1.836-1.546-1.978,3.2,1.391,3.175Z" transform="translate(-430.61 -330.114)" fill="#e1b78c"/>
              </g>
              <g id="Group_248-2" data-name="Group 248" transform="translate(25.339 16.458)">
                <path id="Path_370-2" data-name="Path 370" d="M462.356,330.866s.483-2.126,1.98-1.359,1.657,3.375-1.7,3.024Z" transform="translate(-462.356 -329.34)" fill="#e1b78c"/>
              </g>
              <path id="Path_371-2" data-name="Path 371" d="M450.939,325.165c-.734.807-.937-1.822-.937-1.822a8.283,8.283,0,0,1-2.279,1.775c-1.077.446-.041-1.755-.041-1.755a11.171,11.171,0,0,1-2.759,2.1c-1.32.593-.4-2.062-.4-2.062a9.6,9.6,0,0,1-2.552,1.973c-1.319.611-.539-2.006-.539-2.006s-1.375,1.3-2.339,2.075-.98-2.066-.98-2.066-.914,2.128-1.606,2.355-.954-4.507-.954-4.507a23.81,23.81,0,0,1-1.676,7.844,6.048,6.048,0,0,0,.165,4.065c2.221,1.9,5.572,2.987,9.9,2.884,5.07-.119,8.645-1.681,10.55-5.9a8.348,8.348,0,0,0-2.271-6.253S451.674,324.358,450.939,325.165Z" transform="translate(-428.347 -310.437)" fill="#efcaa6"/>
              <g id="Group_249-2" data-name="Group 249" transform="translate(2.128 0.654)">
                <path id="Path_372-2" data-name="Path 372" d="M436.305,310.615c1.075-2.606,3.954-3.518,4.9-3.753a19.085,19.085,0,0,0-6.107,1.714c-4.791,2.286-6.551,9.215-5.808,12.738l2.195-.737s1.513-.2,3.891-.424C435.318,317.957,435.315,313.014,436.305,310.615Z" transform="translate(-429.127 -306.76)" fill="#009a9a"/>
                <path id="Path_373-2" data-name="Path 373" d="M457.211,309.578a13.059,13.059,0,0,0-9.322-2.841,7.074,7.074,0,0,1,5.807,3.451c1.187,2.239,1.391,6.541,1.39,9.26,1.822.024,3.627.1,5.324.264C460.41,319.713,461.781,313.526,457.211,309.578Z" transform="translate(-434.784 -306.716)" fill="#009a9a"/>
                <path id="Path_374-2" data-name="Path 374" d="M450.728,310.2a7.074,7.074,0,0,0-5.807-3.451c-.343.017-.686.043-1.027.08-.946.235-3.825,1.147-4.9,3.753-.99,2.4-.987,7.342-.93,9.538a135.9,135.9,0,0,1,14.054-.66C452.12,316.739,451.916,312.438,450.728,310.2Z" transform="translate(-431.815 -306.725)" fill="#006ab0"/>
              </g>
              <path id="Path_375-2" data-name="Path 375" d="M442.295,321.527l7.711-.182s.486-5.244-3.791-5.143S442.188,320.1,442.295,321.527Z" transform="translate(-430.955 -308.921)" fill="#cc4509"/>
              <g id="Group_250-2" data-name="Group 250" transform="translate(10.007 17.511)">
                <path id="Path_376-2" data-name="Path 376" d="M441.418,331.959c.047.634-.142,1.162-.418,1.182s-.539-.476-.585-1.109.142-1.163.419-1.183S441.372,331.324,441.418,331.959Z" transform="translate(-440.407 -330.848)" fill="#461a00"/>
                <path id="Path_377-2" data-name="Path 377" d="M440.851,331.659c0,.193-.071.348-.154.346s-.152-.157-.149-.35.071-.348.156-.346S440.854,331.466,440.851,331.659Z" transform="translate(-440.449 -330.987)" fill="#fff"/>
              </g>
              <g id="Group_251-2" data-name="Group 251" transform="translate(18.925 17.3)">
                <path id="Path_378-2" data-name="Path 378" d="M454.185,331.657c.047.634-.141,1.162-.418,1.181s-.539-.475-.586-1.109.142-1.163.419-1.183S454.139,331.022,454.185,331.657Z" transform="translate(-453.174 -330.546)" fill="#461a00"/>
                <path id="Path_379-2" data-name="Path 379" d="M453.618,331.357c0,.192-.071.348-.155.347s-.151-.157-.149-.351.071-.347.156-.346S453.621,331.164,453.618,331.357Z" transform="translate(-453.216 -330.685)" fill="#fff"/>
              </g>
              <path id="Path_380-2" data-name="Path 380" d="M440.416,328.4a2.26,2.26,0,0,1,.713.821c-.162-.717-.409-1.526-1.281-1.461a1.328,1.328,0,0,0-1.183,1.339C439,328.463,439.708,327.921,440.416,328.4Z" transform="translate(-429.874 -312.405)" fill="#7d2d05"/>
              <path id="Path_381-2" data-name="Path 381" d="M454.179,327.388a1.734,1.734,0,0,1,.953.4,1.215,1.215,0,0,0-1.417-.807,1.859,1.859,0,0,0-1.377,1.8C452.751,328.159,453.412,327.315,454.179,327.388Z" transform="translate(-433.997 -312.163)" fill="#7d2d05"/>
              <path id="Path_382-2" data-name="Path 382" d="M443.039,338.188s4.155.5,6.778-.634a3.241,3.241,0,0,1-3.049,2.425C444.141,340.217,443.047,338.521,443.039,338.188Z" transform="translate(-431.193 -315.359)" fill="#ef795f"/>
              <path id="Path_383-2" data-name="Path 383" d="M444.739,339.948a4.244,4.244,0,0,0,2.542.487,3.554,3.554,0,0,0,1.981-.758C447.973,338.837,445.7,338.807,444.739,339.948Z" transform="translate(-431.706 -315.815)" fill="#f6b1af"/>
              <path id="Path_384-2" data-name="Path 384" d="M446.46,335.716a1.081,1.081,0,0,1-.443-.29.773.773,0,0,1-.237-.474.52.52,0,0,1,.576-.6,1.117,1.117,0,0,1,.408.1.518.518,0,0,1,.115.071.485.485,0,0,0-.212-.352.515.515,0,0,0-.047-.028.817.817,0,0,0-.516-.029.862.862,0,0,0-.6.774c-.12.826.956,1.2,1.614.926A1.708,1.708,0,0,1,446.46,335.716Z" transform="translate(-431.933 -314.312)" fill="#e1b78c" style="mix-blend-mode: multiply;isolation: isolate"/>
              <path id="Path_385-2" data-name="Path 385" d="M432.752,332.365a.718.718,0,0,0-.5-.518.6.6,0,0,0-.613.21.683.683,0,0,0-.113.261,1.09,1.09,0,0,0-.024.2c0,.074.034.07.044.114,0-.011-.016,0-.017.006l0,.018c0,.015.019.008.022,0,.052-.161.131-.448.342-.467a.481.481,0,0,1,.389.137c.006.006.013.015.019.02-.027.1-.048.191-.082.285-.045.124-.185.408-.346.4-.012,0-.036.024-.02.034.143.092.344-.122.434-.218a.908.908,0,0,0,.184-.3,1.475,1.475,0,0,1,.287.661c0,.051.073.008.081-.019A1.3,1.3,0,0,0,432.752,332.365Z" transform="translate(-427.714 -313.633)" fill="#e1b78c" style="mix-blend-mode: multiply;isolation: isolate"/>
              <path id="Path_386-2" data-name="Path 386" d="M464.83,330.755c-.237-.1-.569.147-.737.288-.349.293-.689.936-.385,1.373.024.035.077,0,.078-.038a2.052,2.052,0,0,1,.107-.6c.113.251.414.45.641.273.008-.008.013-.031-.006-.027-.237.051-.4-.4-.451-.611.228-.3.806-.643,1.012-.149.007.018.031,0,.032-.015A.43.43,0,0,0,464.83,330.755Z" transform="translate(-437.389 -313.302)" fill="#e1b78c" style="mix-blend-mode: multiply;isolation: isolate"/>
              <path id="Path_387-2" data-name="Path 387" d="M438.936,334.9c.031.359-.645.707-1.509.779s-1.588-.159-1.618-.52.645-.71,1.51-.78S438.908,334.537,438.936,334.9Z" transform="translate(-429.013 -314.396)" fill="#f9cbc0" style="mix-blend-mode: multiply;isolation: isolate"/>
              <path id="Path_388-2" data-name="Path 388" d="M458.362,334.421c.033.359-.639.713-1.5.793s-1.59-.145-1.623-.505.64-.716,1.5-.793S458.33,334.063,458.362,334.421Z" transform="translate(-434.87 -314.257)" fill="#f9cbc0" style="mix-blend-mode: multiply;isolation: isolate"/>
            </g>
            <g id="Group_253-2" data-name="Group 253" transform="translate(2.189 0.657)" style="mix-blend-mode: multiply;isolation: isolate">
              <path id="Path_389-2" data-name="Path 389" d="M451.477,309.582a13.056,13.056,0,0,0-9.322-2.841c-.343.017-.686.043-1.027.08a19.1,19.1,0,0,0-6.107,1.715c-.047.022-.093.048-.14.072,4.583-2.1,10.139-1.889,12.127,1.764,1.943,3.571,1.155,8.415,1.155,8.415-2.055-.057-8.842.439-8.842.439-9.03.74-10.107,2.047-10.107,2.047l2.195-.737s1.512-.2,3.89-.424a135.89,135.89,0,0,1,14.055-.661c1.822.024,3.625.1,5.324.264C454.678,319.716,456.048,313.53,451.477,309.582Z" transform="translate(-429.214 -306.72)" fill="#b4b4b4"/>
            </g>
          </g>
        </g>
      </g>
    </g>
  </g>
</svg>
