<svg id="Group_150" data-name="Group 150" xmlns="http://www.w3.org/2000/svg" xmlns:xlink="http://www.w3.org/1999/xlink" width="48.727" height="60.449" viewBox="0 0 48.727 60.449">
  <defs>
    <clipPath id="clip-path">
      <rect id="Rectangle_49" data-name="Rectangle 49" width="48.727" height="60.449" fill="none"/>
    </clipPath>
  </defs>
  <g id="Group_149" data-name="Group 149" transform="translate(0 0)" clip-path="url(#clip-path)">
    <g id="Group_148" data-name="Group 148" transform="translate(-2.466 1.589)">
      <g id="Group_144" data-name="Group 144">
        <path id="Path_23" data-name="Path 23" d="M437.257,191.036l-1.6-1s-3.151,1.207-4.784,5.7-6.4,20.433-6.4,20.433h6.73l4.964-13.459Z" transform="translate(-424.476 -141.571)" fill="#111214"/>
        <path id="Path_24" data-name="Path 24" d="M468.4,191.036l1.594-1s3.151,1.207,4.784,5.7,6.4,20.433,6.4,20.433h-6.728l-4.966-13.459Z" transform="translate(-430.678 -141.571)" fill="#111214"/>
        <g id="Group_143" data-name="Group 143" transform="translate(5.987)">
          <path id="Path_25" data-name="Path 25" d="M456.164,186.732l-.127-6.221-6.985.246-.326,6.237-4.6.884s-.928,5.161,2.25,8.926c1.9,2.249,11.81,4.267,14.1-3.118l1.386-5.166Z" transform="translate(-433.22 -140.225)" fill="#f2d7bd"/>
          <path id="Path_26" data-name="Path 26" d="M454.593,184.656a11.417,11.417,0,0,0,2.323-.392l-.077-3.753-6.985.246-.173,3.294A12.338,12.338,0,0,0,454.593,184.656Z" transform="translate(-434.022 -140.225)" fill="#c19168"/>
          <g id="Group_131" data-name="Group 131">
            <g id="Group_130" data-name="Group 130" transform="translate(0.095 6.13)">
              <g id="Group_119" data-name="Group 119">
                <g id="Group_118" data-name="Group 118">
                  <g id="Group_117" data-name="Group 117">
                    <g id="Group_104" data-name="Group 104" transform="translate(0 18.863)">
                      <g id="Group_102" data-name="Group 102">
                        <path id="Path_27" data-name="Path 27" d="M432.855,162.942c-2.564.916-1.3,6.812,3.552,7.091a25.454,25.454,0,0,1-1.352-7.124A2.808,2.808,0,0,0,432.855,162.942Z" transform="translate(-431.558 -162.704)" fill="#edc8a5"/>
                      </g>
                      <g id="Group_103" data-name="Group 103" transform="translate(35.205 4.797)">
                        <path id="Path_28" data-name="Path 28" d="M477.788,168.547a2.947,2.947,0,0,0-2.453.021,46.818,46.818,0,0,1-2.783,5.7,14.717,14.717,0,0,0,2.916-.03C478.653,174.012,480.092,169.538,477.788,168.547Z" transform="translate(-472.552 -168.289)" fill="#edc8a5"/>
                      </g>
                    </g>
                    <g id="Group_105" data-name="Group 105" transform="translate(0.93 21.695)">
                      <path id="Path_29" data-name="Path 29" d="M432.641,166.032a2.3,2.3,0,0,1,.654-.017,2.834,2.834,0,0,1,.66.144,3.058,3.058,0,0,1,.705.345,2.315,2.315,0,0,1,.577.544,1.284,1.284,0,0,1,.195.307,1.428,1.428,0,0,1,.131.3,1.513,1.513,0,0,1,.092.468c.009.117.009.181.009.181l-.094-.155c-.026-.049-.058-.106-.1-.172s-.091-.131-.143-.207a2,2,0,0,0-.176-.23,1.941,1.941,0,0,0-.217-.234,2.388,2.388,0,0,0-.248-.224,2.157,2.157,0,0,0-.281-.208,3.214,3.214,0,0,0-.3-.188c-.107-.052-.2-.119-.306-.164-.2-.1-.4-.184-.571-.258C432.876,166.125,432.641,166.032,432.641,166.032Z" transform="translate(-432.641 -166.001)" fill="#c19168"/>
                    </g>
                    <g id="Group_106" data-name="Group 106" transform="translate(37.054 26.152)">
                      <path id="Path_30" data-name="Path 30" d="M477.932,171.819a2.215,2.215,0,0,0-.538-.2,2.472,2.472,0,0,0-.255-.035,1.93,1.93,0,0,0-.282,0,2.072,2.072,0,0,0-.593.144,1.518,1.518,0,0,0-.29.128,1.88,1.88,0,0,0-.278.149,2.859,2.859,0,0,0-.256.156c-.082.056-.161.1-.236.149-.143.1-.261.186-.352.24s-.145.087-.145.087.027-.057.08-.147c.029-.046.059-.1.1-.163a1.049,1.049,0,0,1,.143-.2,2.513,2.513,0,0,1,.443-.445,1.416,1.416,0,0,1,.3-.207,2.007,2.007,0,0,1,.715-.262,1.479,1.479,0,0,1,.378-.023,1.455,1.455,0,0,1,.346.07,1.111,1.111,0,0,1,.287.125A1.077,1.077,0,0,1,477.932,171.819Z" transform="translate(-474.705 -171.19)" fill="#c19168"/>
                    </g>
                    <g id="Group_108" data-name="Group 108" transform="translate(2.707)">
                      <g id="Group_107" data-name="Group 107">
                        <path id="Path_31" data-name="Path 31" d="M472.426,154.228c.774-5.658-4.481-8.768-9-10.619-4.457-1.825-9.826-2.3-14.58-2.791-7.052-.731-12.222,3.665-13.276,10.565a24.912,24.912,0,0,0-.774,4.33,22.082,22.082,0,0,0,.312,6.134c.72,3.679,1.891,7.483,4.369,10.4a16.053,16.053,0,0,0,13.272,6.082,18.983,18.983,0,0,0,13.571-6.656c.8-.9,1.493-1.875,2.211-2.843a30.4,30.4,0,0,0,1.657-3.58,33.238,33.238,0,0,0,1.493-4.976A29.655,29.655,0,0,0,472.426,154.228Z" transform="translate(-434.71 -140.739)" fill="#f2d7bd"/>
                      </g>
                    </g>
                    <g id="Group_111" data-name="Group 111" transform="translate(12.694 22.006)">
                      <g id="Group_109" data-name="Group 109">
                        <path id="Path_32" data-name="Path 32" d="M448.222,168.552c-.079,1.171-.564,2.1-1.08,2.06s-.87-1.013-.792-2.188.566-2.1,1.082-2.06S448.3,167.377,448.222,168.552Z" transform="translate(-446.339 -166.363)" fill="#673121"/>
                      </g>
                      <g id="Group_110" data-name="Group 110" transform="translate(0.295 0.543)">
                        <path id="Path_33" data-name="Path 33" d="M447.261,167.679c-.052.351-.222.617-.377.594s-.239-.327-.185-.679.224-.619.379-.6S447.316,167.326,447.261,167.679Z" transform="translate(-446.683 -166.995)" fill="#fff"/>
                      </g>
                    </g>
                    <g id="Group_114" data-name="Group 114" transform="translate(25.987 22.549)">
                      <g id="Group_112" data-name="Group 112">
                        <path id="Path_34" data-name="Path 34" d="M463.7,169.184c-.076,1.175-.562,2.1-1.08,2.059s-.872-1.014-.79-2.185.567-2.1,1.081-2.063S463.786,168.01,463.7,169.184Z" transform="translate(-461.818 -166.995)" fill="#673121"/>
                      </g>
                      <g id="Group_113" data-name="Group 113" transform="translate(0.295 0.547)">
                        <path id="Path_35" data-name="Path 35" d="M462.742,168.31c-.056.355-.222.622-.38.6s-.236-.33-.184-.681.226-.618.378-.594S462.8,167.962,462.742,168.31Z" transform="translate(-462.162 -167.631)" fill="#fff"/>
                      </g>
                    </g>
                    <g id="Group_115" data-name="Group 115" transform="translate(6.699 26.093)" style="mix-blend-mode: multiply;isolation: isolate">
                      <path id="Path_36" data-name="Path 36" d="M445.124,173.261c-.169.655-1.595.854-3.183.447s-2.735-1.273-2.566-1.928,1.6-.855,3.186-.444S445.3,172.6,445.124,173.261Z" transform="translate(-439.359 -171.122)" fill="#f7c9be"/>
                    </g>
                    <g id="Group_116" data-name="Group 116" transform="translate(27.472 27.665)" style="mix-blend-mode: multiply;isolation: isolate">
                      <path id="Path_37" data-name="Path 37" d="M469.481,174.063c.03.675-1.277,1.279-2.915,1.348s-2.989-.429-3.019-1.1,1.278-1.284,2.916-1.349S469.456,173.388,469.481,174.063Z" transform="translate(-463.547 -172.953)" fill="#f7c9be"/>
                    </g>
                  </g>
                </g>
              </g>
              <g id="Group_120" data-name="Group 120" transform="translate(16.945 20.162)">
                <path id="Path_38" data-name="Path 38" d="M453.086,172.955c-.869-.106-1.4-.423-1.052-1.249.155-.368.3-.736.442-1.106a19.022,19.022,0,0,0,.946-6.384,20.874,20.874,0,0,1-.846,4.924,18.763,18.763,0,0,1-.794,2.193,4.03,4.03,0,0,0-.493,1.2c-.013.753,1.5.823,1.939.812a7.643,7.643,0,0,0,3.126-.644A15.4,15.4,0,0,1,453.086,172.955Z" transform="translate(-451.289 -164.216)" fill="#c19168"/>
              </g>
              <g id="Group_124" data-name="Group 124" transform="translate(15.343 30.872)">
                <g id="Group_121" data-name="Group 121">
                  <path id="Path_39" data-name="Path 39" d="M449.424,177.424s3.906,2.51,9.424-.737a5.618,5.618,0,0,1-5.11,4.354C450.068,181.228,449.424,177.424,449.424,177.424Z" transform="translate(-449.424 -176.687)" fill="#ed795f"/>
                </g>
                <g id="Group_122" data-name="Group 122" transform="translate(1.785 2.114)">
                  <path id="Path_40" data-name="Path 40" d="M454.9,179.22A5.78,5.78,0,0,0,451.5,180.7a3.842,3.842,0,0,0,2.53.691,5.14,5.14,0,0,0,3.669-1.678A4.1,4.1,0,0,0,454.9,179.22Z" transform="translate(-451.502 -179.149)" fill="#f4afad"/>
                </g>
                <g id="Group_123" data-name="Group 123" transform="translate(0.244 0.207)">
                  <path id="Path_41" data-name="Path 41" d="M457.04,179.152a3.743,3.743,0,0,0,1.463-2.224c-4.528,2.48-7.9,1.123-8.795.664a4.218,4.218,0,0,0,.285.881,7,7,0,0,0,5.2,1.155A9.452,9.452,0,0,0,457.04,179.152Z" transform="translate(-449.708 -176.928)" fill="#fff"/>
                </g>
              </g>
              <g id="Group_125" data-name="Group 125" transform="translate(24.245 19.047)">
                <path id="Path_42" data-name="Path 42" d="M465.665,165.148a.7.7,0,0,1-.433-.15c-1.932-1.539-4.269-.03-4.366.035a.694.694,0,0,1-.77-1.153c.132-.089,3.268-2.142,6,.033a.693.693,0,0,1-.431,1.235Z" transform="translate(-459.789 -162.917)" fill="#737577"/>
              </g>
              <g id="Group_126" data-name="Group 126" transform="translate(10.33 19.049)">
                <path id="Path_43" data-name="Path 43" d="M449.382,165.37a.693.693,0,0,1-.417-.189c-1.793-1.7-4.249-.4-4.354-.344a.693.693,0,0,1-.666-1.215c.14-.078,3.44-1.852,5.975.555a.692.692,0,0,1-.538,1.193Z" transform="translate(-443.587 -162.92)" fill="#737577"/>
              </g>
              <g id="Group_129" data-name="Group 129" transform="translate(12.92 29.737)">
                <g id="Group_127" data-name="Group 127">
                  <path id="Path_44" data-name="Path 44" d="M453.992,176.226a3.752,3.752,0,0,0-2.977-.767c-.68.2-4.15.985-4.4,1.765s2.859.331,5.118-.333c0,0-1.6.54-.712.657S454.3,177.12,453.992,176.226Z" transform="translate(-446.603 -175.366)" fill="#c5c5c5"/>
                </g>
                <g id="Group_128" data-name="Group 128" transform="translate(6.712)">
                  <path id="Path_45" data-name="Path 45" d="M454.445,176.226a3.752,3.752,0,0,1,2.977-.767c.681.2,4.151.985,4.4,1.765s-2.859.331-5.118-.333c0,0,1.6.54.713.657S454.142,177.12,454.445,176.226Z" transform="translate(-454.418 -175.366)" fill="#c5c5c5"/>
                </g>
              </g>
            </g>
            <path id="Path_46" data-name="Path 46" d="M469.269,165.3c.277-.313.58-.6.88-.894a19.268,19.268,0,0,0,4.4-11.093c.11-3.932-2.462-8.008-5.492-10.569-1.5-6.64-12.288-9.3-18.04-9.131-5.635.161-18.354,6.849-19.479,15.221-.513,3.812,1.128,9.272,3.224,12.6.167.265,1.147-7.55,4.4-11.529,3,2.606,7.776,3.065,11.506,3.241,5.012.237,10.971,1.315,15.52-.928.544,5.938,1.24,10.443,3.1,13.02A.218.218,0,0,0,469.269,165.3Z" transform="translate(-431.448 -133.602)" fill="#c5c5c5"/>
          </g>
          <g id="Group_138" data-name="Group 138" transform="translate(1.39 24.643)">
            <g id="Group_135" data-name="Group 135" transform="translate(5.955 0.338)">
              <g id="Group_132" data-name="Group 132" transform="translate(15.152 1.038)">
                <path id="Path_47" data-name="Path 47" d="M464.21,172.775c-.1,0-.2,0-.3-.01l-2.2-.15a4.363,4.363,0,0,1,.6-8.706l2.2.149a4.364,4.364,0,0,1-.293,8.717ZM462,164.486a3.775,3.775,0,0,0-.254,7.541l2.2.151a3.775,3.775,0,0,0,3.1-6.248,3.744,3.744,0,0,0-2.588-1.286l-2.2-.149C462.177,164.489,462.088,164.486,462,164.486Z" transform="translate(-457.643 -163.898)" fill="#231f20"/>
              </g>
              <g id="Group_133" data-name="Group 133">
                <path id="Path_48" data-name="Path 48" d="M446.565,171.566c-.1,0-.2,0-.3-.009l-2.2-.151a4.363,4.363,0,0,1-4.054-4.65,4.387,4.387,0,0,1,4.65-4.056l2.2.151a4.363,4.363,0,0,1-.294,8.716Zm-2.206-8.29a3.776,3.776,0,0,0-.253,7.544l2.2.15a3.785,3.785,0,0,0,4.023-3.508,3.775,3.775,0,0,0-3.507-4.026l-2.2-.15C444.533,163.28,444.446,163.276,444.358,163.276Z" transform="translate(-440 -162.689)" fill="#231f20"/>
              </g>
              <g id="Group_134" data-name="Group 134" transform="translate(10.421 3.299)">
                <path id="Path_49" data-name="Path 49" d="M457.169,168.649a.294.294,0,0,1-.282-.207c-.492-1.59-2.793-1.3-2.816-1.293a1.893,1.893,0,0,0-1.389.878.293.293,0,1,1-.51-.289,2.426,2.426,0,0,1,1.841-1.174c.95-.128,2.925.057,3.436,1.7a.293.293,0,0,1-.194.368A.3.3,0,0,1,457.169,168.649Z" transform="translate(-452.134 -166.531)" fill="#231f20"/>
              </g>
            </g>
            <g id="Group_136" data-name="Group 136">
              <path id="Path_50" data-name="Path 50" d="M439.279,166.082a.348.348,0,0,1-.2-.039l-5.851-3.17a.3.3,0,0,1-.118-.421.334.334,0,0,1,.444-.117l5.851,3.169a.3.3,0,0,1,.118.42A.335.335,0,0,1,439.279,166.082Z" transform="translate(-433.066 -162.296)" fill="#231f20"/>
            </g>
            <g id="Group_137" data-name="Group 137" transform="translate(31.444 4.854)">
              <path id="Path_51" data-name="Path 51" d="M470,169.248a.317.317,0,0,1-.322-.258.3.3,0,0,1,.283-.327l6.237-.714a.326.326,0,0,1,.364.255.3.3,0,0,1-.283.328l-6.237.714A.346.346,0,0,1,470,169.248Z" transform="translate(-469.68 -167.948)" fill="#231f20"/>
            </g>
          </g>
          <path id="Path_52" data-name="Path 52" d="M465.022,190.149l-7.2-1.806-6.457,3.613-6.458-3.613-7.2,1.806L435.98,215.2h30.773Z" transform="translate(-432.088 -141.331)" fill="#dadbdc"/>
          <path id="Path_53" data-name="Path 53" d="M453.472,190.672l-2.888,2.411,1.849,2.744h1.659l2.179-2.891Z" transform="translate(-434.15 -141.66)" fill="#3d59a8"/>
          <g id="Group_139" data-name="Group 139" transform="translate(12.775 43.722)">
            <path id="Path_54" data-name="Path 54" d="M449.186,184.513l-2.863,3.289,2.736,5.572L453,190.057Z" transform="translate(-446.324 -184.513)" fill="#f2f2f2"/>
            <path id="Path_55" data-name="Path 55" d="M457.506,184.513l2.862,3.289-2.735,5.572-3.941-3.316Z" transform="translate(-447.364 -184.513)" fill="#f2f2f2"/>
          </g>
          <path id="Path_56" data-name="Path 56" d="M453.9,196.675h-1.68l-3,21.834,3.039,1.128.8.3.8-.3,3.038-1.128Z" transform="translate(-433.957 -142.508)" fill="#263670"/>
          <g id="Group_142" data-name="Group 142" transform="translate(2.391 45.942)">
            <g id="Group_140" data-name="Group 140">
              <path id="Path_57" data-name="Path 57" d="M445.167,187.1l-8.127,2.527-2.807,30.639h16.887v-9.8Z" transform="translate(-434.232 -187.097)" fill="#232426"/>
              <path id="Path_58" data-name="Path 58" d="M446.217,187.1l-4.549,1.415,4.9,11.662-2.306,3.506,7.9,11.242v-4.458Z" transform="translate(-435.282 -187.097)" fill="#232426" style="mix-blend-mode: multiply;isolation: isolate"/>
              <path id="Path_59" data-name="Path 59" d="M446.257,187.1l-4.306,1.07,5.031,11.975-2.157,3.537,7.383,10.435v-3.65Z" transform="translate(-435.322 -187.097)" fill="#37393b"/>
            </g>
            <g id="Group_141" data-name="Group 141" transform="translate(16.887)">
              <path id="Path_60" data-name="Path 60" d="M459.847,187.1l8.127,2.527,2.808,30.639H453.9v-9.8Z" transform="translate(-453.895 -187.097)" fill="#232426"/>
              <path id="Path_61" data-name="Path 61" d="M459.847,187.1l4.581,1.425-4.948,11.6,2.348,3.555-7.932,11.34v-4.555Z" transform="translate(-453.895 -187.097)" fill="#232426" style="mix-blend-mode: multiply;isolation: isolate"/>
              <path id="Path_62" data-name="Path 62" d="M459.847,187.1l4.306,1.07-5.03,11.975,2.156,3.537L453.9,214.114v-3.65Z" transform="translate(-453.895 -187.097)" fill="#37393b"/>
            </g>
          </g>
        </g>
      </g>
      <g id="Group_145" data-name="Group 145" transform="translate(18.967 20.781)">
        <path id="Path_63" data-name="Path 63" d="M461.67,158.74a35.07,35.07,0,0,0-14.867-.251c-.024.005-.062.073-.022.067a49.536,49.536,0,0,1,14.728.422C461.619,159,461.8,158.766,461.67,158.74Z" transform="translate(-446.59 -157.8)" fill="#edc8a5"/>
        <path id="Path_64" data-name="Path 64" d="M461.524,160.95c-4.783-.991-10.125-1.394-14.922-.252-.024.006-.063.073-.022.068a49.681,49.681,0,0,1,14.784.423C461.474,161.207,461.651,160.976,461.524,160.95Z" transform="translate(-446.562 -158.111)" fill="#edc8a5"/>
        <path id="Path_65" data-name="Path 65" d="M460.783,162.46a28.579,28.579,0,0,0-13.432-.137c-.021.006-.057.074-.021.068a40.253,40.253,0,0,1,13.305.31C460.735,162.718,460.9,162.485,460.783,162.46Z" transform="translate(-446.668 -158.333)" fill="#edc8a5"/>
      </g>
      <g id="Group_146" data-name="Group 146" transform="translate(34.558 29.283)">
        <path id="Path_66" data-name="Path 66" d="M467.538,167.705c-.436.145-.875.3-1.317.43a5.475,5.475,0,0,1-1.265.3c-.021-.037-.069.009-.08.032a.255.255,0,0,0-.024.058c0,.025.006.045.032.046a5.124,5.124,0,0,0,2.64-.711C467.574,167.83,467.652,167.668,467.538,167.705Z" transform="translate(-464.736 -167.7)" fill="#edc8a5" opacity="0.5" style="mix-blend-mode: multiply;isolation: isolate"/>
        <path id="Path_67" data-name="Path 67" d="M467.137,169.218a3.842,3.842,0,0,0-.99.073,4.8,4.8,0,0,1-1.115-.04c-.045,0-.127.1-.066.119a6.626,6.626,0,0,0,.944.168,4.52,4.52,0,0,0,1.171-.15C467.144,169.377,467.244,169.23,467.137,169.218Z" transform="translate(-464.749 -167.912)" fill="#edc8a5" opacity="0.5" style="mix-blend-mode: multiply;isolation: isolate"/>
        <path id="Path_68" data-name="Path 68" d="M465.793,170.688c-.155-.155-.8-.817-1.049-.637a.058.058,0,0,0-.027.058l.008.025c0,.016.021.02.035.021.155.023.417.334.533.439a3.722,3.722,0,0,1,.572.62,10.915,10.915,0,0,1,.723,1.291c.041.083.17-.04.162-.1A3.189,3.189,0,0,0,465.793,170.688Z" transform="translate(-464.716 -168.027)" fill="#edc8a5" opacity="0.5" style="mix-blend-mode: multiply;isolation: isolate"/>
      </g>
      <g id="Group_147" data-name="Group 147" transform="translate(15.701 27.873)">
        <path id="Path_69" data-name="Path 69" d="M442.821,166.067c.41.21.819.434,1.236.626a5.628,5.628,0,0,0,1.2.488c.027-.033.066.02.074.043a.219.219,0,0,1,.015.061c0,.025-.012.043-.038.04a5.116,5.116,0,0,1-2.5-1.1C442.768,166.186,442.715,166.013,442.821,166.067Z" transform="translate(-442.759 -166.057)" fill="#edc8a5" opacity="0.5" style="mix-blend-mode: multiply;isolation: isolate"/>
        <path id="Path_70" data-name="Path 70" d="M443.068,167.639a3.817,3.817,0,0,1,.968.223,4.847,4.847,0,0,0,1.108.13c.045,0,.11.123.047.128a6.609,6.609,0,0,1-.958.023,4.5,4.5,0,0,1-1.135-.327C443.038,167.794,442.961,167.634,443.068,167.639Z" transform="translate(-442.795 -166.28)" fill="#edc8a5" opacity="0.5" style="mix-blend-mode: multiply;isolation: isolate"/>
        <path id="Path_71" data-name="Path 71" d="M444.148,169.345c.178-.129.914-.684,1.134-.469a.057.057,0,0,1,.017.061l-.011.024c-.007.015-.024.015-.038.015-.157,0-.464.266-.594.353a3.757,3.757,0,0,0-.66.526,10.836,10.836,0,0,0-.911,1.165c-.053.076-.161-.065-.144-.126A3.192,3.192,0,0,1,444.148,169.345Z" transform="translate(-442.784 -166.448)" fill="#edc8a5" opacity="0.5" style="mix-blend-mode: multiply;isolation: isolate"/>
      </g>
    </g>
  </g>
</svg>
