<svg id="Group_169" data-name="Group 169" xmlns="http://www.w3.org/2000/svg" xmlns:xlink="http://www.w3.org/1999/xlink" width="56.461" height="60.449" viewBox="0 0 56.461 60.449">
  <defs>
    <clipPath id="clip-path">
      <rect id="Rectangle_50" data-name="Rectangle 50" width="56.461" height="60.449" fill="none"/>
    </clipPath>
  </defs>
  <g id="Group_168" data-name="Group 168" transform="translate(0 0)" clip-path="url(#clip-path)">
    <g id="Group_167" data-name="Group 167" transform="translate(1.853 1.214)">
      <g id="Group_166" data-name="Group 166">
        <g id="Group_159" data-name="Group 159">
          <path id="Path_72" data-name="Path 72" d="M545.623,162.225a4.373,4.373,0,0,0,.181-5.037,7.116,7.116,0,0,0-2.255-2.006,2.723,2.723,0,0,0-1.983-.216,3.073,3.073,0,0,0,.119-1.821,4.786,4.786,0,0,0-.77-1.68,6.654,6.654,0,0,0-.727-.828,11.643,11.643,0,0,0-6.743-3.882,18.852,18.852,0,0,0-11.833,1.77c-.262.129-.514.268-.762.413-.247-.145-.5-.285-.76-.413a18.853,18.853,0,0,0-11.833-1.77,11.638,11.638,0,0,0-6.743,3.882,6.664,6.664,0,0,0-.728.828,4.8,4.8,0,0,0-.77,1.68,3.073,3.073,0,0,0,.119,1.821,2.723,2.723,0,0,0-1.983.216,7.1,7.1,0,0,0-2.254,2.006,4.372,4.372,0,0,0,.181,5.037c-2.543.241-1.931,3.946-1.042,5.529a4.97,4.97,0,0,0,2.856,2.411,4.294,4.294,0,0,0,1.948.078,4.108,4.108,0,0,0-.268,2.2,4.27,4.27,0,0,0,2.944,3.308,5.067,5.067,0,0,0,4.25-.632,4.3,4.3,0,0,0,1.251-1.285c.048-.064.113-.153.177-.257a4.693,4.693,0,0,0,.908,1.852,6.042,6.042,0,0,0,2.724,1.924,7.825,7.825,0,0,0,6.256-.759c.11-.062.214-.13.314-.2a2.17,2.17,0,0,0,1.027,0,1.649,1.649,0,0,1,2.855,0,2.17,2.17,0,0,0,1.027,0c.1.069.2.136.314.2a7.825,7.825,0,0,0,6.256.759,6.049,6.049,0,0,0,2.724-1.924,4.681,4.681,0,0,0,.907-1.852c.064.1.13.193.177.257a4.291,4.291,0,0,0,1.252,1.285,5.068,5.068,0,0,0,4.25.632,4.269,4.269,0,0,0,2.943-3.308,4.107,4.107,0,0,0-.268-2.2,4.3,4.3,0,0,0,1.948-.078,4.968,4.968,0,0,0,2.856-2.411C547.552,166.171,548.165,162.466,545.623,162.225Z" transform="translate(-494.265 -135.421)" fill="#c5c5c5"/>
          <path id="Path_73" data-name="Path 73" d="M545.623,162.225a4.373,4.373,0,0,0,.181-5.037,7.116,7.116,0,0,0-2.255-2.006,2.723,2.723,0,0,0-1.983-.216,3.073,3.073,0,0,0,.119-1.821,4.786,4.786,0,0,0-.77-1.68,6.654,6.654,0,0,0-.727-.828,11.643,11.643,0,0,0-6.743-3.882,18.852,18.852,0,0,0-11.833,1.77c-.262.129-.514.268-.762.413-.247-.145-.5-.285-.76-.413a18.853,18.853,0,0,0-11.833-1.77,11.638,11.638,0,0,0-6.743,3.882,6.664,6.664,0,0,0-.728.828,4.8,4.8,0,0,0-.77,1.68,3.073,3.073,0,0,0,.119,1.821,2.723,2.723,0,0,0-1.983.216,7.1,7.1,0,0,0-2.254,2.006,4.372,4.372,0,0,0,.181,5.037c-2.543.241-1.931,3.946-1.042,5.529a4.97,4.97,0,0,0,2.856,2.411,4.294,4.294,0,0,0,1.948.078,4.108,4.108,0,0,0-.268,2.2,4.27,4.27,0,0,0,2.944,3.308,5.067,5.067,0,0,0,4.25-.632,4.3,4.3,0,0,0,1.251-1.285c.048-.064.113-.153.177-.257a4.693,4.693,0,0,0,.908,1.852,6.042,6.042,0,0,0,2.724,1.924,7.825,7.825,0,0,0,6.256-.759c.11-.062.214-.13.314-.2a2.17,2.17,0,0,0,1.027,0,1.649,1.649,0,0,1,2.855,0,2.17,2.17,0,0,0,1.027,0c.1.069.2.136.314.2a7.825,7.825,0,0,0,6.256.759,6.049,6.049,0,0,0,2.724-1.924,4.681,4.681,0,0,0,.907-1.852c.064.1.13.193.177.257a4.291,4.291,0,0,0,1.252,1.285,5.068,5.068,0,0,0,4.25.632,4.269,4.269,0,0,0,2.943-3.308,4.107,4.107,0,0,0-.268-2.2,4.3,4.3,0,0,0,1.948-.078,4.968,4.968,0,0,0,2.856-2.411C547.552,166.171,548.165,162.466,545.623,162.225Zm-46.8,6.43a1.457,1.457,0,0,1-.667-1.408,1.981,1.981,0,0,1,.124-.5,2.149,2.149,0,0,1-1.906-1.331,3.61,3.61,0,0,1,1.026-3.981,1.308,1.308,0,0,1-.207-.051,1.943,1.943,0,0,1-1.257-1.572,4.249,4.249,0,0,1,2.017-4.079,1.863,1.863,0,0,1,2.033.059,1.276,1.276,0,0,1,.207.2.072.072,0,0,1,.1.006,1.775,1.775,0,0,1,.507.912,4.449,4.449,0,0,1-1.447,3.69,3.047,3.047,0,0,1,2.112,2.8,3.8,3.8,0,0,1-.286,1.476,1.853,1.853,0,0,1,1.033.643c.906,1.147-.328,2.739-1.408,3.2A2.028,2.028,0,0,1,498.818,168.655Zm7.574,4.035a2.977,2.977,0,0,1-2.342,2.251,2.579,2.579,0,0,1-2.835-1.237,3.465,3.465,0,0,1-.376-1.614,3.07,3.07,0,0,1,.127-1.79,2.561,2.561,0,0,1,3.413-1.446A3.578,3.578,0,0,1,506.392,172.69Zm39.984-6.672a4.237,4.237,0,0,1-3.212,2.638,3.906,3.906,0,0,1-2.4-.449c0,.031,0,.062-.006.094a4.716,4.716,0,0,1,.053,3.132,3.059,3.059,0,0,1-3.832,2,3.322,3.322,0,0,1-1.708-3.788,3.633,3.633,0,0,1,2.969-3.075,3.168,3.168,0,0,1,1.326.1,2.676,2.676,0,0,1,.973-2.412,4.346,4.346,0,0,1,1.644-1.286l-.029-.015a1.589,1.589,0,0,1-.641-1.663c.25-1.235,1.573-2.806,2.984-2.455,1.066.266.79,1.5.412,2.23a5.649,5.649,0,0,1-.472.759,3.878,3.878,0,0,1-.437.512,3.461,3.461,0,0,1-.306.275,2.972,2.972,0,0,1,1.194.21A2.531,2.531,0,0,1,546.376,166.018Z" transform="translate(-494.265 -135.421)" fill="#c5c5c5" opacity="0.51" style="mix-blend-mode: multiply;isolation: isolate"/>
          <g id="Group_158" data-name="Group 158" transform="translate(6.748 8.743)">
            <g id="Group_157" data-name="Group 157">
              <g id="Group_156" data-name="Group 156">
                <path id="Path_74" data-name="Path 74" d="M519.427,181.947a18.5,18.5,0,0,1-3.46.742,20.318,20.318,0,0,0,.949,8.626,8.067,8.067,0,0,0,3.252,4.232c.107.063.216.123.328.181h6.352a9.486,9.486,0,0,0,3.465-5.423,20.968,20.968,0,0,0,.476-6.925,48.522,48.522,0,0,1-4.72-1.433c-1.252-.795,0-4.505,0-4.505h-6.642S520.679,181.152,519.427,181.947Z" transform="translate(-502.766 -146.679)" fill="#efcfb1"/>
                <path id="Path_75" data-name="Path 75" d="M523.593,180.2a15.687,15.687,0,0,0,2.237-.013,11.845,11.845,0,0,1,.551-2.747H519.74a12.172,12.172,0,0,1,.54,2.579C521.37,180.188,522.51,180.146,523.593,180.2Z" transform="translate(-503.08 -146.679)" fill="#efcfb1" style="mix-blend-mode: multiply;isolation: isolate"/>
                <path id="Path_76" data-name="Path 76" d="M538.525,211.875c-.372-7.9-1.322-20.484-3.687-25.437-.847-1.774-4.271-2.287-5.916-2.864-1.253,4.5-3.134,7.7-5.159,8.851-3.219,1.83-5.851-.611-7.328-4.476a17.085,17.085,0,0,1-1.3-4.826c-1.617.566-4.178.9-5.661,2.452-2.2,2.3-3.021,6.859-4,14.55l-1.535,11.749Z" transform="translate(-501.797 -147.14)" fill="#236caf"/>
                <path id="Path_77" data-name="Path 77" d="M534.838,186.582a3.941,3.941,0,0,0-2.155-1.684c.256,1.478.621,2.941.833,4.428a22.5,22.5,0,0,1,.066,6.415,6.864,6.864,0,0,1-2.354,4.7,10.818,10.818,0,0,1-4.857,1.76,27.4,27.4,0,0,1-8.69.05c-2.341-.378-4.807-1.011-6.592-2.668a8.134,8.134,0,0,1-2.422-6.6c.081-1.528.347-3.043.563-4.557.116-.814.252-1.625.417-2.431.04-.193.1-.389.156-.586-.115.1-.226.2-.331.31-2.2,2.3-3.021,6.859-4,14.55l-1.535,11.749h34.591C538.153,204.118,537.2,191.535,534.838,186.582Z" transform="translate(-501.797 -147.284)" fill="#1d5c8f" opacity="0.5" style="mix-blend-mode: multiply;isolation: isolate"/>
                <g id="Group_155" data-name="Group 155">
                  <g id="Group_151" data-name="Group 151" transform="translate(0 11.622)">
                    <path id="Path_78" data-name="Path 78" d="M506.58,158.529s-.631-1.685-1.479-1.886-2.882.549-3.384,2.964a4.166,4.166,0,0,0,2.093,4.759c1.245.485,1.976-1.07,1.976-1.07Z" transform="translate(-501.608 -156.611)" fill="#e9be95"/>
                    <path id="Path_79" data-name="Path 79" d="M505.162,156.642a1.222,1.222,0,0,0-.236-.028,1.653,1.653,0,0,1,.477.592,3.362,3.362,0,0,1,.1,2.528.08.08,0,0,1-.145.018,1.348,1.348,0,0,0-2.327-.346,3.325,3.325,0,0,0-.65,2.27,6.524,6.524,0,0,0,.448,1.88l.059.137a2.964,2.964,0,0,0,.988.674c1.245.485,1.976-1.07,1.976-1.07l.794-4.767S506.01,156.844,505.162,156.642Z" transform="translate(-501.67 -156.611)" fill="#efcfb1" opacity="0.6" style="mix-blend-mode: multiply;isolation: isolate"/>
                    <path id="Path_80" data-name="Path 80" d="M504.467,159.6c-1.1-.64-1.605.85-1.814,1.824-.011.048.045.057.062.019.177-.366.336-.761.532-1.117.338-.612.9-.43,1.229-.024a2.092,2.092,0,0,1,.3.509,1.222,1.222,0,0,0-.65.458,2.693,2.693,0,0,0-.453.977.042.042,0,0,0,.077.035c.171-.232.321-.49.5-.712a1.163,1.163,0,0,1,.666-.369,16.534,16.534,0,0,1,.278,1.74.086.086,0,0,0,.172,0C505.572,161.794,505.472,160.188,504.467,159.6Z" transform="translate(-501.693 -156.841)" fill="#b48055"/>
                  </g>
                  <g id="Group_152" data-name="Group 152" transform="translate(34.563 11.821)">
                    <path id="Path_81" data-name="Path 81" d="M540.061,158.006s1.231-1.273,2.17-1.172a3.274,3.274,0,0,1,2.449,3.717,4.072,4.072,0,0,1-3.8,3.494c-1.443.019-1.659-1.588-1.659-1.588Z" transform="translate(-539.224 -156.828)" fill="#e9be95"/>
                    <path id="Path_82" data-name="Path 82" d="M543.823,162.584a4.13,4.13,0,0,0,.136-1.863,1.539,1.539,0,0,0-.965-1.29,2.576,2.576,0,0,0-1.944.138.08.08,0,0,1-.117-.047,9.5,9.5,0,0,1-.135-2.092,6.023,6.023,0,0,0-.737.626l-.837,4.451s.215,1.607,1.659,1.588A4.055,4.055,0,0,0,543.823,162.584Z" transform="translate(-539.224 -156.877)" fill="#efcfb1" opacity="0.6" style="mix-blend-mode: multiply;isolation: isolate"/>
                    <path id="Path_83" data-name="Path 83" d="M542.089,159.7c1.352-.2,1.353,1.274,1.228,2.2,0,.043-.063.034-.069,0-.055-.384-.079-.781-.162-1.16-.131-.646-.772-.67-1.25-.423a2.044,2.044,0,0,0-.487.35,1.19,1.19,0,0,1,.508.617,2.146,2.146,0,0,1,.128,1.005c0,.051-.078.046-.094.006-.093-.262-.157-.535-.263-.791a1.209,1.209,0,0,0-.553-.544,13.348,13.348,0,0,0-.89,1.44.1.1,0,0,1-.179-.056C540.2,161.264,540.853,159.883,542.089,159.7Z" transform="translate(-539.287 -157.059)" fill="#b48055"/>
                  </g>
                  <path id="Path_84" data-name="Path 84" d="M505.662,150.627s.894,5.086.365,7.56-2.2,6.693,1.534,11.673a17.493,17.493,0,0,0,16.9,6.452c6.568-1.128,11.739-6.6,12.819-13.946a82.4,82.4,0,0,0,.458-15.555,37.538,37.538,0,0,0-12.07-2.7S512.755,142.412,505.662,150.627Z" transform="translate(-501.899 -143.963)" fill="#efcfb1"/>
                  <path id="Path_85" data-name="Path 85" d="M519.54,165.763a2.031,2.031,0,0,0,1.947,1.53,2.391,2.391,0,0,0,2.1-1.367C522.411,166.455,520.263,167.114,519.54,165.763Z" transform="translate(-503.063 -145.731)" fill="#efcfb1" style="mix-blend-mode: multiply;isolation: isolate"/>
                  <path id="Path_86" data-name="Path 86" d="M518.234,167.505c-1.335,1.6-2.729,3.14-4.128,4.68A9.514,9.514,0,0,0,518.234,167.505Z" transform="translate(-502.623 -145.873)" fill="#efcfb1" style="mix-blend-mode: multiply;isolation: isolate"/>
                  <path id="Path_87" data-name="Path 87" d="M527.479,168.636a17.649,17.649,0,0,0,4.306,3.143C530.691,170.313,529.008,169.579,527.479,168.636Z" transform="translate(-503.708 -145.964)" fill="#efcfb1" style="mix-blend-mode: multiply;isolation: isolate"/>
                  <path id="Path_88" data-name="Path 88" d="M516.656,164.143a2.853,2.853,0,0,0-1.576-.535,2.4,2.4,0,0,0-1.657.344A9.938,9.938,0,0,0,516.656,164.143Z" transform="translate(-502.567 -145.555)" fill="#efcfb1" style="mix-blend-mode: multiply;isolation: isolate"/>
                  <path id="Path_89" data-name="Path 89" d="M516.042,157.737c1.375-.5,2.781-1.461,2.663-3.06a5.594,5.594,0,0,1-3.562,2.594,5.35,5.35,0,0,1-2.7-.071,2.36,2.36,0,0,0,.989.743A4.241,4.241,0,0,0,516.042,157.737Z" transform="translate(-502.487 -144.832)" fill="#efcfb1" style="mix-blend-mode: multiply;isolation: isolate"/>
                  <path id="Path_90" data-name="Path 90" d="M520.615,154.573v0a3.191,3.191,0,0,1-1,2.248C520.575,156.522,521.385,155.442,520.615,154.573Z" transform="translate(-503.07 -144.823)" fill="#efcfb1" style="mix-blend-mode: multiply;isolation: isolate"/>
                  <path id="Path_91" data-name="Path 91" d="M525.64,157.248a6.015,6.015,0,0,0-1.2-2.575A3.415,3.415,0,0,0,525.64,157.248Z" transform="translate(-503.461 -144.832)" fill="#efcfb1" style="mix-blend-mode: multiply;isolation: isolate"/>
                  <path id="Path_92" data-name="Path 92" d="M529.152,157.237a6.166,6.166,0,0,1-2.168-1.772,3.841,3.841,0,0,0,2.429,2.874,3.717,3.717,0,0,0,3.731-.949A5.566,5.566,0,0,1,529.152,157.237Z" transform="translate(-503.667 -144.896)" fill="#efcfb1" style="mix-blend-mode: multiply;isolation: isolate"/>
                  <path id="Path_93" data-name="Path 93" d="M528.916,164.217a18.526,18.526,0,0,1,4.067-.084A4.1,4.1,0,0,0,528.916,164.217Z" transform="translate(-503.824 -145.559)" fill="#efcfb1" style="mix-blend-mode: multiply;isolation: isolate"/>
                  <path id="Path_94" data-name="Path 94" d="M532.565,173.709a18.553,18.553,0,0,1-8.212,3.736,17.458,17.458,0,0,1-5.9.2,19.224,19.224,0,0,1-6.258-2.133,14.347,14.347,0,0,1-6.015-6.113,11.65,11.65,0,0,0,1.457,2.526,17.493,17.493,0,0,0,16.9,6.452,15.324,15.324,0,0,0,10.729-7.753A37.2,37.2,0,0,1,532.565,173.709Z" transform="translate(-501.98 -146.026)" fill="#efcfb1" style="mix-blend-mode: multiply;isolation: isolate"/>
                  <path id="Path_95" data-name="Path 95" d="M508.1,167.4c-.083.583,1.038,1.206,2.506,1.4s2.728-.124,2.814-.7-1.036-1.207-2.506-1.4S508.189,166.821,508.1,167.4Z" transform="translate(-502.135 -145.803)" fill="#f5beb2"/>
                  <path id="Path_96" data-name="Path 96" d="M536.073,167.327c.1.58-1.005,1.234-2.466,1.467s-2.73-.047-2.832-.626,1-1.236,2.465-1.47S535.971,166.748,536.073,167.327Z" transform="translate(-503.974 -145.801)" fill="#f5beb2"/>
                  <g id="Group_153" data-name="Group 153" transform="translate(12.19 15.455)">
                    <path id="Path_97" data-name="Path 97" d="M516.391,162.429c-.05.9-.425,1.638-.844,1.636s-.718-.736-.667-1.646.43-1.641.845-1.637S516.443,161.519,516.391,162.429Z" transform="translate(-514.875 -160.782)" fill="#2e140b"/>
                    <path id="Path_98" data-name="Path 98" d="M515.585,161.773c-.039.275-.173.489-.3.479s-.2-.241-.159-.515.172-.488.3-.476S515.622,161.5,515.585,161.773Z" transform="translate(-514.895 -160.821)" fill="#fff"/>
                  </g>
                  <g id="Group_154" data-name="Group 154" transform="translate(25.4 15.245)">
                    <path id="Path_99" data-name="Path 99" d="M530.766,162.2c-.049.9-.425,1.638-.844,1.636s-.717-.737-.666-1.646.429-1.641.844-1.637S530.818,161.291,530.766,162.2Z" transform="translate(-529.251 -160.554)" fill="#2e140b"/>
                    <path id="Path_100" data-name="Path 100" d="M529.961,161.545c-.04.275-.173.489-.3.479s-.2-.241-.16-.515.172-.489.3-.477S530,161.273,529.961,161.545Z" transform="translate(-529.271 -160.593)" fill="#fff"/>
                  </g>
                  <path id="Path_101" data-name="Path 101" d="M522.515,168.321s-.007,0,0,.006a.581.581,0,0,0,.054.042s.01,0,.005-.006C522.535,168.326,522.553,168.337,522.515,168.321Z" transform="translate(-503.304 -145.939)" fill="#b48055"/>
                  <path id="Path_102" data-name="Path 102" d="M532.67,157.129a5.978,5.978,0,0,1-5.826-2.426c-.04-.046-.128-.016-.106.051.78,2.239,3.81,4.733,6.06,2.755C532.937,157.388,532.9,157.094,532.67,157.129Z" transform="translate(-503.647 -144.832)" fill="#737577"/>
                  <path id="Path_103" data-name="Path 103" d="M518.473,155.1a6.352,6.352,0,0,1-6.343,1.641c-.307-.069-.285-.047-.079.2,1.822,2.146,5.463.473,6.431-1.676C518.552,155.1,518.613,154.939,518.473,155.1Z" transform="translate(-502.443 -144.861)" fill="#737577"/>
                </g>
                <path id="Path_104" data-name="Path 104" d="M522.2,166.779a3.034,3.034,0,0,1-2.034-.483,1.969,1.969,0,0,1-.534-.69c-.2-.4.153-.789.347-1.114A7.05,7.05,0,0,0,521,161.1c0-.028-.036,0-.037.014a8.281,8.281,0,0,1-.8,2.785c-.215.463-.76.953-.766,1.473-.016,1.365,1.685,1.726,2.741,1.6C522.213,166.961,522.322,166.779,522.2,166.779Z" transform="translate(-503.052 -145.352)" fill="#b48055"/>
              </g>
            </g>
          </g>
          <path id="Path_105" data-name="Path 105" d="M542.419,146.452a9.066,9.066,0,0,0-9.107-8.793,11.643,11.643,0,0,0-3.67-1.866,25.926,25.926,0,0,0-9.358-1.324,33.721,33.721,0,0,0-8.962,1.652,9.641,9.641,0,0,0-5.317,3.693c-.119.024-.233.051-.339.075-5.137,1.176-5.372,9.241-4.142,13.051.861,2.669,3.424,4.725,4.033,5.31v-.023a8.75,8.75,0,0,1,.266-1.433,6.154,6.154,0,0,1,2.595-2.837,19.818,19.818,0,0,1,3.824-1.63c2.724-.846,5.59-1,8.363-1.607a37.949,37.949,0,0,0,7.471-2.424,11.782,11.782,0,0,0,3.716-2.438c0,.354.009.694.009.963a14.607,14.607,0,0,0,.894,4.439,18.421,18.421,0,0,0,4.492,7.34c0,.39,0,.777-.021,1.16a24.175,24.175,0,0,0,4.112-5.895A14.581,14.581,0,0,0,542.419,146.452Z" transform="translate(-494.804 -134.447)" fill="#c5c5c5"/>
          <path id="Path_106" data-name="Path 106" d="M505.47,140.806a4.638,4.638,0,0,0-2.015,2.36,4.54,4.54,0,0,1,1.806-1.081,2.079,2.079,0,0,1,1.1-.147c.079,0,.156,0,.236.009a4.466,4.466,0,0,1,2.344.937,5.479,5.479,0,0,1-.166-2.867,4.022,4.022,0,0,1,1.34-1.932c-.554.265-1.093.561-1.62.867a.081.081,0,0,1-.109-.11,10.243,10.243,0,0,1,1.354-1.793,8.657,8.657,0,0,0-3.524,2.976c-.119.024-.233.051-.339.075a4.918,4.918,0,0,0-2.339,1.262,4.692,4.692,0,0,1,1.874-.7C505.488,140.649,505.56,140.767,505.47,140.806Z" transform="translate(-495.01 -134.658)" fill="#c5c5c5" opacity="0.51" style="mix-blend-mode: multiply;isolation: isolate"/>
          <path id="Path_107" data-name="Path 107" d="M542.643,147.3l-.014.1a18.784,18.784,0,0,1-1.735,5.623,15.9,15.9,0,0,1-1.006,1.79,4.549,4.549,0,0,1-1.375,1.494c-1.31.735-1.848-1.336-2.116-2.22a16.057,16.057,0,0,1-.632-2.57,16.55,16.55,0,0,1-.118-2.514,24.084,24.084,0,0,0-.27,3.545.081.081,0,0,1-.149.04,11.685,11.685,0,0,1-.659-1.633,16.019,16.019,0,0,1-.7-6.061,7.979,7.979,0,0,1,1.707-4.895,2.68,2.68,0,0,1,1.948-.914,3.518,3.518,0,0,1,1,.173,9.454,9.454,0,0,0-5.032-1.5,11.643,11.643,0,0,0-3.67-1.866q-.3-.1-.606-.2c.2.13.4.263.6.4a12.023,12.023,0,0,1,2.02,1.738,3.3,3.3,0,0,1,1.073,1.917c.09,1.641-1.233,3.133-2.277,4.253a14.162,14.162,0,0,1-7.421,4.024,26.312,26.312,0,0,1-4.55.726,42.621,42.621,0,0,0-6.089.909,11.59,11.59,0,0,0-5.89,3.12l-.119.137c-.078.1-.153.211-.225.321a7.419,7.419,0,0,0-.714,1.375,5.921,5.921,0,0,1-.47,1.16c-.538.821-1.342.464-2.017-.118a20.421,20.421,0,0,0,2.6,2.693v-.023A8.75,8.75,0,0,1,506,156.9a6.154,6.154,0,0,1,2.595-2.837,19.817,19.817,0,0,1,3.824-1.63c2.724-.846,5.59-1,8.363-1.607a37.95,37.95,0,0,0,7.471-2.424,11.782,11.782,0,0,0,3.716-2.438c0,.354.009.694.009.963a14.608,14.608,0,0,0,.894,4.439,18.422,18.422,0,0,0,4.492,7.34c0,.39,0,.777-.021,1.16a24.177,24.177,0,0,0,4.112-5.895A14.057,14.057,0,0,0,542.643,147.3Z" transform="translate(-494.985 -134.549)" fill="#c5c5c5" opacity="0.51" style="mix-blend-mode: multiply;isolation: isolate"/>
        </g>
        <path id="Path_108" data-name="Path 108" d="M509.839,184.961s-5.8,1.395-8.112,5.939c-1.795,3.521-7.378,19.639-3.893,21.992s7.14-5.225,7.14-5.225Z" transform="translate(-494.463 -138.546)" fill="#236caf"/>
        <path id="Path_109" data-name="Path 109" d="M498.022,202.752a85.627,85.627,0,0,1,2.813-8.9,16.561,16.561,0,0,1,6.873-8.055,12,12,0,0,0-5.964,5.174,65.685,65.685,0,0,0-4.834,16.049C497.228,205.582,497.611,204.162,498.022,202.752Z" transform="translate(-494.479 -138.613)" fill="#236caf" style="mix-blend-mode: screen;isolation: isolate"/>
        <path id="Path_110" data-name="Path 110" d="M508.462,188.36c-.593,1.437-1.044,2.924-1.521,4.4-.5,1.548-.968,3.1-1.355,4.684a38.821,38.821,0,0,0-.911,4.338,3.287,3.287,0,0,1-.972,2.415,10.435,10.435,0,0,1-1.791.831,18.776,18.776,0,0,0-1.735.845,7.723,7.723,0,0,0-2.788,2.509,6.253,6.253,0,0,0-.675,1.357,8.273,8.273,0,0,0,.153,1.531,1.266,1.266,0,0,0,.124.131.1.1,0,0,1-.051.165,2.424,2.424,0,0,0,.895,1.435c3.484,2.352,7.14-5.225,7.14-5.225l4.592-21.426A12.619,12.619,0,0,0,508.462,188.36Z" transform="translate(-494.464 -138.659)" fill="#236caf" opacity="0.5" style="mix-blend-mode: multiply;isolation: isolate"/>
        <path id="Path_111" data-name="Path 111" d="M535.07,184.961s5.8,1.395,8.112,5.939c1.795,3.521,7.378,19.639,3.894,21.992s-7.14-5.225-7.14-5.225Z" transform="translate(-497.576 -138.546)" fill="#236caf"/>
        <path id="Path_112" data-name="Path 112" d="M541.1,188.728a19.258,19.258,0,0,1,3.628,6.54c.991,2.648,1.813,5.363,2.556,8.091.317,1.166.606,2.338.856,3.516a65.828,65.828,0,0,0-4.818-15.929c-1.548-3.038-4.65-4.667-6.538-5.414A16.128,16.128,0,0,1,541.1,188.728Z" transform="translate(-497.715 -138.592)" fill="#236caf" style="mix-blend-mode: screen;isolation: isolate"/>
        <path id="Path_113" data-name="Path 113" d="M548.044,209.417a5.069,5.069,0,0,0-1.277-1.735,7.419,7.419,0,0,0-3.579-1.865c-1.045-.18-2.18-.231-2.731-1.285a17.954,17.954,0,0,1-1.136-3.778c-.824-3.157-1.65-6.323-2.541-9.462-.316-1.118-.664-2.223-1.063-3.312l4.271,19.932s3.656,7.577,7.14,5.225c.719-.486,1.051-1.558,1.111-2.984A2.992,2.992,0,0,0,548.044,209.417Z" transform="translate(-497.628 -138.791)" fill="#236caf" opacity="0.5" style="mix-blend-mode: multiply;isolation: isolate"/>
        <g id="Group_163" data-name="Group 163" transform="translate(16.552 66.735)">
          <g id="Group_162" data-name="Group 162">
            <g id="Group_160" data-name="Group 160" transform="translate(0 1.049)">
              <path id="Path_114" data-name="Path 114" d="M519.4,215.361a10.675,10.675,0,0,0-3.744,1.116c-.606.373-2.305-.819,1.206-2.074.18-.064,1.422-.9,1.6-.989-.394.077-2.323.8-2.713.885-.988.215-2.43.855-3.427.378a.064.064,0,0,1-.044-.049c-.006-.83.734-.946,1.358-1.295a33.624,33.624,0,0,1,4.46-1.413c-1.8.043-5.874.481-5.411-.624.377-.9,4.347-1.251,5.844-1.183-.733-.274-4.863-.351-4.95-.777s.721-.987,1.073-1.009c2.83-.19,11.739-.585,11.02,3.3C525.154,214.418,521.72,215.249,519.4,215.361Z" transform="translate(-512.279 -208.216)" fill="#f4d9bf"/>
            </g>
            <g id="Group_161" data-name="Group 161" transform="translate(0.371 1.049)" style="mix-blend-mode: multiply;isolation: isolate">
              <path id="Path_115" data-name="Path 115" d="M518.13,211.921c-.174.043-.436.112-.749.2.609-.082,1.222-.147,1.837-.218a21.483,21.483,0,0,1,3.821-.051c.837.053,1.678.256,2.518.323a3.6,3.6,0,0,0,.15-.551c.719-3.88-8.19-3.485-11.02-3.3-.352.022-1.161.594-1.073,1.009s4.217.5,4.95.777c-1.5-.067-5.467.282-5.844,1.183C512.256,212.4,516.334,211.964,518.13,211.921Z" transform="translate(-512.682 -208.216)" fill="#efcfb1"/>
            </g>
            <path id="Path_116" data-name="Path 116" d="M522.591,209.652c.129.116-3.574-1.645-2.717-2.442s6.143,2.108,5.86,4.151S522.591,209.652,522.591,209.652Z" transform="translate(-512.885 -207.074)" fill="#f4d9bf"/>
          </g>
          <path id="Path_117" data-name="Path 117" d="M545.918,209.631c-2.641-2.043-15.7-1.169-20.119-.807a5.713,5.713,0,0,1,.429,2.664,5.2,5.2,0,0,1-1.295,3.186c1.059.114,13.42,1.451,16.106,2.078C546.386,218,549.112,212.1,545.918,209.631Z" transform="translate(-513.306 -207.176)" fill="#236caf"/>
          <path id="Path_118" data-name="Path 118" d="M537.166,208.6a41.787,41.787,0,0,1,5.894.221,11.6,11.6,0,0,1,2.7.653c-3.1-1.838-15.579-1-19.884-.65.034.074.063.152.094.229C529.7,208.808,533.43,208.619,537.166,208.6Z" transform="translate(-513.382 -207.176)" fill="#236caf" style="mix-blend-mode: screen;isolation: isolate"/>
        </g>
        <path id="Path_119" data-name="Path 119" d="M530.848,207.06a33.542,33.542,0,0,0-4.648-.539c1.771-.3,5.858-.646,5.193-1.642-.541-.813-4.505-.4-5.962-.051.667-.407,4.706-1.269,4.711-1.7s-.9-.832-1.245-.786a24.958,24.958,0,0,0-5.221,1.335c.552-.591.924-1.2.5-1.464-.994-.621-5.626,3.234-4.964,5.188a2.249,2.249,0,0,0,.158,1.058c1.042,2.647,3.91,2.022,6.21,1.691a10.677,10.677,0,0,1,3.888.384c.665.251,2.107-1.241-1.579-1.806-.189-.029-1.568-.616-1.761-.666.4,0,2.432.341,2.832.353,1.011.023,2.549.377,3.438-.281a.064.064,0,0,0,.034-.057C532.275,207.257,531.526,207.283,530.848,207.06Z" transform="translate(-496.283 -139.94)" fill="#f4d9bf"/>
        <path id="Path_120" data-name="Path 120" d="M520.877,204.19c-1.111,1.1-1.982,2.45-1.669,3.373a2.249,2.249,0,0,0,.158,1.058,2.87,2.87,0,0,0,2.049,1.853C519.99,208.769,520.1,206.261,520.877,204.19Z" transform="translate(-496.283 -140.106)" fill="#efcfb1" style="mix-blend-mode: multiply;isolation: isolate"/>
        <g id="Group_164" data-name="Group 164" transform="translate(2.296 64.678)">
          <path id="Path_121" data-name="Path 121" d="M518.093,207.634a5.041,5.041,0,0,1,.094-2.021c.068-.261.144-.519.219-.777-2.394.242-18.3,1.942-20.764,4.743-2.667,3.03,1.132,8.3,6.144,6.061,2.577-1.152,14.969-4.965,15.47-5.119A6.359,6.359,0,0,1,518.093,207.634Z" transform="translate(-496.764 -204.836)" fill="#236caf"/>
        </g>
        <g id="Group_165" data-name="Group 165" transform="translate(2.299 64.678)" style="mix-blend-mode: screen;isolation: isolate">
          <path id="Path_122" data-name="Path 122" d="M502.981,207.588c2.644-.652,5.36-1.121,8.05-1.533,2.447-.375,4.921-.586,7.342-1.106.01-.038.021-.075.032-.113-2.394.242-18.3,1.942-20.764,4.743a3.436,3.436,0,0,0-.851,2.708C497.056,209.524,500.435,208.216,502.981,207.588Z" transform="translate(-496.767 -204.836)" fill="#236caf"/>
        </g>
      </g>
      <path id="Path_123" data-name="Path 123" d="M524.268,173.137a3.534,3.534,0,0,1-2.717.922,3.772,3.772,0,0,1-1.135-.387c-.116-.06-.764-.539-.695-.6-.036.029-.111-.04-.09-.079l.015-.026c.018-.034.062-.01.081.01,1.275,1.269,3.033.765,4.422.011C524.208,172.959,524.32,173.085,524.268,173.137Z" transform="translate(-496.323 -137.571)" fill="#b48055"/>
    </g>
  </g>
</svg>
