<svg xmlns="http://www.w3.org/2000/svg" xmlns:xlink="http://www.w3.org/1999/xlink" width="61.11" height="37.439" viewBox="0 0 61.11 37.439">
  <defs>
    <clipPath id="clip-path">
      <rect id="Rectangle_54" data-name="Rectangle 54" width="37.862" height="36.97" fill="none"/>
    </clipPath>
    <clipPath id="clip-path-2">
      <rect id="Rectangle_52" data-name="Rectangle 52" width="38.076" height="32.63" fill="none"/>
    </clipPath>
  </defs>
  <g id="Group_298" data-name="Group 298" transform="translate(-24.638 -685.708)">
    <g id="Group_236" data-name="Group 236" transform="translate(24.638 686.177)">
      <g id="Group_235" data-name="Group 235" clip-path="url(#clip-path)">
        <g id="Group_234" data-name="Group 234" transform="translate(1.615 2.347)">
          <path id="Path_269" data-name="Path 269" d="M444.327,313.287a57.324,57.324,0,0,0-.508,15.943l-1.736.195s-1.1-10.484.452-16.465Z" transform="translate(-431.716 -259.325)" fill="#f4d9bf"/>
          <path id="Path_270" data-name="Path 270" d="M454.383,312.849a74.666,74.666,0,0,1,3.222,15.649s.521.9,1.747-.263a87.589,87.589,0,0,0-3.049-15.66Z" transform="translate(-434.148 -259.251)" fill="#f4d9bf"/>
          <path id="Path_271" data-name="Path 271" d="M444.147,315.075c.162-1.161.3-1.789.3-1.789l-1.792-.327c-.125.485-.232,1-.325,1.537A10.429,10.429,0,0,0,444.147,315.075Z" transform="translate(-431.836 -259.325)" fill="#e3bb94"/>
          <path id="Path_272" data-name="Path 272" d="M441.817,328.281c.112,2.4.288,4.082.288,4.082l1.736-.195c-.12-1.315-.2-2.566-.24-3.748A4.148,4.148,0,0,1,441.817,328.281Z" transform="translate(-431.738 -262.263)" fill="#dfefe7"/>
          <path id="Path_273" data-name="Path 273" d="M457.856,328.022c.158,1.084.3,2.218.415,3.391,0,0,.521.9,1.747-.263,0,0-.132-1.348-.416-3.377A6.524,6.524,0,0,1,457.856,328.022Z" transform="translate(-434.814 -262.166)" fill="#dfefe7"/>
          <path id="Path_274" data-name="Path 274" d="M456.68,313.787c-.122-.412-.247-.818-.377-1.213l-1.919.275s.194.557.492,1.562C455.482,314.224,456.083,314.013,456.68,313.787Z" transform="translate(-434.148 -259.251)" fill="#e3bb94"/>
          <path id="Path_275" data-name="Path 275" d="M437.263,338.28a6.751,6.751,0,0,1-2.8-.583c0,.26,0,.537.019.837a17.411,17.411,0,0,0,9.748-.408s.032-.376.027-.918A16.149,16.149,0,0,1,437.263,338.28Z" transform="translate(-430.326 -263.976)" fill="#006ab0"/>
          <path id="Path_276" data-name="Path 276" d="M462.3,337.881a9.768,9.768,0,0,1-4.894-1.346c.01.507.015.874.015.874a12.972,12.972,0,0,0,9.954.558,4.2,4.2,0,0,0-.065-.783A11.647,11.647,0,0,1,462.3,337.881Z" transform="translate(-434.727 -263.847)" fill="#006ab0"/>
          <g id="Group_220" data-name="Group 220" transform="translate(4.133 69.288)">
            <path id="Path_277" data-name="Path 277" d="M437.045,333.885c-1.816.346-2.549,1.265-2.586,3.175a6.752,6.752,0,0,0,2.8.583,19.991,19.991,0,0,0,3.061-.1A3.421,3.421,0,0,0,437.045,333.885Z" transform="translate(-434.459 -332.627)" fill="#e30613"/>
            <path id="Path_278" data-name="Path 278" d="M442.994,332.374l.049.571-.529.06a1.444,1.444,0,0,0-1.54-.645c-1.071.205.027.858-2.6,1.123-.255.025-.491.061-.714.1a3.421,3.421,0,0,1,3.28,3.659,11.944,11.944,0,0,0,3.929-.974C444.855,334.9,444.606,332.464,442.994,332.374Z" transform="translate(-435.073 -332.328)" fill="#ffa900"/>
          </g>
          <g id="Group_221" data-name="Group 221" transform="translate(22.607 68.665)">
            <path id="Path_279" data-name="Path 279" d="M465.831,333.613c-.219-.013-3.349-.112-3.134,3.654.2.02.4.038.613.053a11.646,11.646,0,0,0,5.01-.7A3.648,3.648,0,0,0,465.831,333.613Z" transform="translate(-458.348 -331.951)" fill="#e30613"/>
            <path id="Path_280" data-name="Path 280" d="M464.8,333.219a4.439,4.439,0,0,0-.661-.164c-3.36-.559-2.839-.6-3.141-.968a1.479,1.479,0,0,0-2.475.336.674.674,0,0,0-.789-.607s-.447.195-.416.975c.02.5.048,1.874.065,2.789a9.18,9.18,0,0,0,4.282,1.293C461.452,333.108,464.582,333.206,464.8,333.219Z" transform="translate(-457.318 -331.557)" fill="#ffa900"/>
          </g>
          <path id="Path_281" data-name="Path 281" d="M439.966,333.432a2.159,2.159,0,0,1,1.5.939c.373.776.92.246.763-.2a2.133,2.133,0,0,0-1.551-1.106A.709.709,0,0,0,439.966,333.432Z" transform="translate(-431.383 -263.181)" fill="#006ab0"/>
          <path id="Path_282" data-name="Path 282" d="M461.757,332.518s-1.108.281-1.285,1.064.5.7.772.263.965-1.119,1.607-.995A1.545,1.545,0,0,0,461.757,332.518Z" transform="translate(-435.31 -263.076)" fill="#006ab0"/>
          <path id="Path_283" data-name="Path 283" d="M441.022,302.432s-1.2,4.464-1.746,8.137a17.41,17.41,0,0,0,6.43,1.545l1.044-3.987.824,4.043a16.4,16.4,0,0,0,7.317-1.743l-1.652-7.568Z" transform="translate(-431.25 -257.306)" fill="#006ab0"/>
          <path id="Path_284" data-name="Path 284" d="M456.883,306.49l-.773-3.544-1.865-.065C454.515,304.473,455.5,306.346,456.883,306.49Z" transform="translate(-434.121 -257.392)" fill="#0096b0"/>
          <path id="Path_285" data-name="Path 285" d="M441.857,305.653a5.707,5.707,0,0,0,1.443-3.147l-2.107-.074s-.514,1.918-1.022,4.273A5.912,5.912,0,0,0,441.857,305.653Z" transform="translate(-431.422 -257.306)" fill="#0096b0"/>
          <g id="Group_222" data-name="Group 222" transform="translate(13.415 45.473)" opacity="0.4" style="mix-blend-mode: multiply;isolation: isolate">
            <path id="Path_286" data-name="Path 286" d="M445.944,313.079c.346.032.7.052,1.041.049l1.037-3.96-.051-1.449S446.707,311.081,445.944,313.079Z" transform="translate(-445.944 -303.793)" fill="#006ab0"/>
            <path id="Path_287" data-name="Path 287" d="M456,302.942l-2.31-.081c.4,1.842,1.139,5.332,1.747,8.611a10.733,10.733,0,0,0,2.214-.963Z" transform="translate(-447.43 -302.861)" fill="#006ab0"/>
          </g>
          <path id="Path_288" data-name="Path 288" d="M453.775,303.764l-.2-.9-12.217-.428s-.127.476-.318,1.242A17.4,17.4,0,0,0,453.775,303.764Z" transform="translate(-431.589 -257.306)" fill="#006ab0" opacity="0.5" style="mix-blend-mode: multiply;isolation: isolate"/>
          <path id="Path_289" data-name="Path 289" d="M444.628,281.529s-6.036-.149-10.173,6.8l3.462,2.533L440,288.2l-1.262,10.661s8.638,3.076,14.644-.082l-1.11-10.035,2.984,3.543,3.339-3.092S453.313,280.989,444.628,281.529Z" transform="translate(-430.326 -253.291)" fill="#dfefe7"/>
          <path id="Path_290" data-name="Path 290" d="M444.628,281.529s-6.036-.149-10.173,6.8l3.462,2.533L440,288.2l-1.262,10.661s8.638,3.076,14.644-.082l-1.11-10.035,2.984,3.543,3.339-3.092S453.313,280.989,444.628,281.529Z" transform="translate(-430.326 -253.291)" fill="#dfefe7"/>
          <path id="Path_291" data-name="Path 291" d="M435.95,291.327s-1.958,2.265-2.7,11.331a2.581,2.581,0,0,1,1.54.691c.451.584,1.3,1.282.857,1.529s-.739-.816-1.571-.787-.659.657-.657,1.245.683,2.252.06,2.217-1.015-2.07-.856-2.844c0,0,0-.191-.11-.082a6.082,6.082,0,0,0-.33,2.233c.035.944.006,1.038-.228,1.04s-.5-.373-.407-1.889.209-1.474.03-1.336a5.8,5.8,0,0,0-.76,1.965c-.123.685-.38.574-.517.376a3.519,3.519,0,0,1,.4-2.144c.411-.729.065-.453-.189-.175s-.751,1.317-1.06,1.23.1-1.217,1.031-2.113,1.01-.855,1.048-1.308.51-8.562,3.124-12.091Z" transform="translate(-429.346 -255.001)" fill="#f4d9bf"/>
          <path id="Path_292" data-name="Path 292" d="M461.439,293.052s2.378,2.153,4.355,11.031a3.052,3.052,0,0,0-1.38.605c-.617.4-1.047,1.2-.578,1.384s.381-.548,1.207-.634.743.56.822,1.144-.367,2.324.244,2.2.723-2.189.458-2.935c0,0-.023-.189.1-.1a6.045,6.045,0,0,1,.633,2.166c.1.94.137,1.03.368,1s.444-.437.145-1.925-.41-1.432-.213-1.321a5.8,5.8,0,0,1,1.024,1.844c.215.661.454.516.563.3a3.509,3.509,0,0,0-.686-2.069c-.505-.666-.126-.44.165-.2s.923,1.2,1.217,1.073-.263-1.393-1.309-2.152-1.3-.374-1.4-.818-1.5-8.545-4.574-11.682Z" transform="translate(-435.501 -255.299)" fill="#f4d9bf"/>
          <path id="Path_293" data-name="Path 293" d="M436.034,292.378q.15.112.308.224a5.413,5.413,0,0,1,.693-1.275l-1.3-.911a8.362,8.362,0,0,0-.735,1.215C435.35,291.872,435.693,292.123,436.034,292.378Z" transform="translate(-430.431 -255.001)" fill="#e3bb94"/>
          <path id="Path_294" data-name="Path 294" d="M462.653,293.213c.207-.144.42-.282.636-.419a7.75,7.75,0,0,0-.689-.824l-1.161,1.081a4.347,4.347,0,0,1,.523.642A8.016,8.016,0,0,1,462.653,293.213Z" transform="translate(-435.501 -255.299)" fill="#e3bb94"/>
          <g id="Group_223" data-name="Group 223" transform="translate(4.129 28.212)">
            <path id="Path_295" data-name="Path 295" d="M434.455,289.751l3.462,2.533.507-.647-3.436-2.72C434.807,289.184,434.629,289.459,434.455,289.751Z" transform="translate(-434.455 -282.925)" fill="#009a9a"/>
            <path id="Path_296" data-name="Path 296" d="M447.852,284.6c1.531-.239,2.106-1.744,2.321-2.806a13.017,13.017,0,0,0-3.552-.265,7.926,7.926,0,0,0-1.772.232C445.059,282.833,445.74,284.93,447.852,284.6Z" transform="translate(-436.449 -281.503)" fill="#e30613"/>
            <path id="Path_297" data-name="Path 297" d="M459.447,293.228l.6.712,3.339-3.092s-.184-.285-.537-.746Z" transform="translate(-439.249 -283.153)" fill="#009a9a"/>
          </g>
          <path id="Path_298" data-name="Path 298" d="M446.314,280.314l-.044,1.591s0,1.454,1.241,1.488a1.6,1.6,0,0,0,1.684-1.477,5.5,5.5,0,0,0,.08-1.884Z" transform="translate(-432.592 -253.009)" fill="#efcaa6"/>
          <path id="Path_299" data-name="Path 299" d="M446.314,280.314l-.044,1.591s0,1.454,1.241,1.488a1.6,1.6,0,0,0,1.684-1.477,5.5,5.5,0,0,0,.08-1.884Z" transform="translate(-432.592 -253.009)" fill="#f4d9bf" style="mix-blend-mode: multiply;isolation: isolate"/>
          <g id="Group_227" data-name="Group 227" transform="translate(12.347 34.053)">
            <path id="Path_300" data-name="Path 300" d="M447.878,292.1a2.6,2.6,0,0,1-.588-.058,2.05,2.05,0,0,0-1.085.006,2.183,2.183,0,0,0-.928.534,1.955,1.955,0,0,0-.4.563,4.779,4.779,0,0,0,.8,4.451s.691,1.024,1.313.792.632-.253,1.223-.037,1.135-.135,1.591-.681a6.108,6.108,0,0,0,.969-3.638c-.2-1.146-.782-2.1-1.578-2.083a7.972,7.972,0,0,0-.959.123A3.072,3.072,0,0,1,447.878,292.1Z" transform="translate(-444.623 -289.348)" fill="#e30613"/>
            <g id="Group_225" data-name="Group 225" transform="translate(2.294 0.737)">
              <g id="Group_224" data-name="Group 224">
                <path id="Path_301" data-name="Path 301" d="M447.847,289.688l0-.01s-.06-.082-.239,0-.164.131-.086.2A.55.55,0,0,0,447.847,289.688Z" transform="translate(-447.462 -289.642)" fill="#623f24"/>
                <path id="Path_302" data-name="Path 302" d="M447.861,289.7a.55.55,0,0,1-.331.188,4.189,4.189,0,0,1,.6,2.417.306.306,0,0,0,.137.037A4.938,4.938,0,0,0,447.861,289.7Z" transform="translate(-447.475 -289.653)" fill="#a06640"/>
              </g>
              <path id="Path_303" data-name="Path 303" d="M447.755,292.626s.331.645,1.054.055a1.245,1.245,0,0,1-.567.194A.88.88,0,0,1,447.755,292.626Z" transform="translate(-447.518 -290.215)" fill="#790613"/>
            </g>
            <g id="Group_226" data-name="Group 226" transform="translate(3.055)">
              <path id="Path_304" data-name="Path 304" d="M448.4,291.212a2.8,2.8,0,0,0,3.7-2.278A6.438,6.438,0,0,0,448.4,291.212Z" transform="translate(-448.403 -288.769)" fill="#279235"/>
              <path id="Path_305" data-name="Path 305" d="M448.4,291.172a6.438,6.438,0,0,1,3.7-2.277C449.12,287.98,448.4,291.172,448.4,291.172Z" transform="translate(-448.403 -288.73)" fill="#279235"/>
            </g>
          </g>
          <g id="Group_232" data-name="Group 232" transform="translate(2.545)">
            <path id="Path_306" data-name="Path 306" d="M463.29,262.565s-.28-7.757-5.791-10.366a1.944,1.944,0,0,1,1.277-.958,3.231,3.231,0,0,0-2.589.293,5.609,5.609,0,0,0-.493-2.429,5.575,5.575,0,0,1-.587,1.555s-2.713-4.34-9.9-4.051-11.829,6.521-11.829,6.521l.877.827-1.763.9a2.3,2.3,0,0,1,.323.293c1.355,1.131,1.931,3.8,2.266,5.369a37.516,37.516,0,0,1,.917,4.94,5.544,5.544,0,0,1,.72-1.732c1.039-1.636,1.124-4.342.349-4.9l2.683.291c.221-2.273,2.934-3.466,2.934-3.466-1.533.9-2.054,3.771-2.054,3.771l3.859.523c1.113-3.038,2.916-3.782,2.916-3.782a11.032,11.032,0,0,0-1.709,3.966l5.669.925a31.188,31.188,0,0,1,.988-3.335,14.293,14.293,0,0,1-.008,3.442,50.072,50.072,0,0,1,5.993,1.541c-1.422,2.273-1.733,6.338-1.733,6.338s4.28-5.744,6.369-4.932l-.645-1.867Z" transform="translate(-432.495 -246.596)" fill="#9d3900"/>
            <path id="Path_307" data-name="Path 307" d="M441.347,254.7c-5.086.9-5.491,5.122-5.491,5.122a5.062,5.062,0,0,0-3.361-3.414,2.3,2.3,0,0,1,.323.293c1.355,1.131,1.931,3.8,2.266,5.369a37.515,37.515,0,0,1,.917,4.94,5.545,5.545,0,0,1,.72-1.732c1.039-1.636,1.124-4.342.349-4.9l.671.072C437.192,256.8,441.347,254.7,441.347,254.7Z" transform="translate(-432.495 -248.151)" fill="#cc4509" opacity="0.6" style="mix-blend-mode: multiply;isolation: isolate"/>
            <path id="Path_308" data-name="Path 308" d="M465.235,264.688c.663-4.675-3.474-8.059-3.474-8.059a10.066,10.066,0,0,1,.731,7.551c.928.266,1.463.45,1.463.45-1.422,2.273-1.733,6.338-1.733,6.338s4.28-5.744,6.369-4.932A5.073,5.073,0,0,0,465.235,264.688Z" transform="translate(-438.108 -248.52)" fill="#cc4509" opacity="0.6" style="mix-blend-mode: multiply;isolation: isolate"/>
            <g id="Group_228" data-name="Group 228" transform="translate(1.896 14.468)">
              <path id="Path_309" data-name="Path 309" d="M438.121,265.748s.121-1.24-1.653-1.25-2.722,4.039.5,3.657Z" transform="translate(-434.84 -264.498)" fill="#efcaa6"/>
              <path id="Path_310" data-name="Path 310" d="M435.9,266.408a.718.718,0,0,1,.107-.041,1.084,1.084,0,0,1,.3-.049.979.979,0,0,1,.208.011.918.918,0,0,1,.229.062.9.9,0,0,1,.225.124,1.219,1.219,0,0,1,.192.184,1.193,1.193,0,0,1,.137.225,1.072,1.072,0,0,1,.086.235,1.429,1.429,0,0,1,.045.226c.006.072.01.141.013.2a.958.958,0,0,1-.006.171c-.006.05-.01.095-.014.131-.011.071-.016.112-.016.112s-.01-.04-.026-.112l-.023-.127c-.01-.048-.015-.1-.032-.162s-.033-.12-.048-.187-.046-.13-.066-.2a1.309,1.309,0,0,0-.091-.2,1.086,1.086,0,0,0-.12-.187,1.035,1.035,0,0,0-.153-.156c-.029-.02-.057-.043-.085-.064s-.062-.035-.093-.053a1.265,1.265,0,0,0-.187-.078,1.6,1.6,0,0,0-.183-.044,1.846,1.846,0,0,0-.289-.028C435.943,266.406,435.9,266.408,435.9,266.408Z" transform="translate(-435.044 -264.847)" fill="#c39368"/>
            </g>
            <g id="Group_229" data-name="Group 229" transform="translate(23.653 18.876)">
              <path id="Path_311" data-name="Path 311" d="M462.437,271.067s.9-1.573,2.247-.983.175,4.4-2.922,3.6Z" transform="translate(-461.761 -269.952)" fill="#efcaa6"/>
              <path id="Path_312" data-name="Path 312" d="M464.207,272.2a.869.869,0,0,0-.39-.047,1.826,1.826,0,0,0-.182.027,1.968,1.968,0,0,0-.2.063,1.374,1.374,0,0,0-.2.09,1.775,1.775,0,0,0-.2.114c-.068.037-.129.087-.194.129s-.122.093-.182.137-.116.089-.167.135-.1.086-.15.124c-.18.161-.312.262-.312.262s.02-.036.058-.1a2.881,2.881,0,0,1,.167-.246,2.688,2.688,0,0,1,.284-.314,1.926,1.926,0,0,1,.181-.16c.068-.048.132-.1.2-.145a2.4,2.4,0,0,1,.224-.12,1.254,1.254,0,0,1,.234-.082,1.16,1.16,0,0,1,.229-.04.931.931,0,0,1,.209.007.719.719,0,0,1,.292.1A.428.428,0,0,1,464.207,272.2Z" transform="translate(-461.813 -270.35)" fill="#c39368"/>
            </g>
            <path id="Path_313" data-name="Path 313" d="M459.139,264.856a50.072,50.072,0,0,0-5.993-1.541,14.293,14.293,0,0,0,.008-3.442,31.188,31.188,0,0,0-.988,3.335l-5.669-.925a11.032,11.032,0,0,1,1.709-3.966s-1.8.744-2.916,3.782l-3.859-.523s.52-2.867,2.054-3.771c0,0-2.713,1.193-2.934,3.466l-2.683-.291c.775.554.69,3.259-.349,4.9a5.505,5.505,0,0,0-.852,3.275,9.113,9.113,0,0,0,2.213,3.66c1.588,1.623,5.237,3.937,8.315,3.723s8.733-1.819,10.212-5.339C457.406,271.194,457.717,267.129,459.139,264.856Z" transform="translate(-433.293 -248.746)" fill="#f4d9bf"/>
            <path id="Path_314" data-name="Path 314" d="M441.438,255.2a6.8,6.8,0,0,0-.8.359c-.131.065-.255.141-.383.209s-.247.152-.37.229-.236.167-.354.251-.228.179-.341.268-.214.193-.322.289c-.053.049-.107.1-.158.147l-.146.158a3.847,3.847,0,0,0-.284.324l-.264.341-.231.365a3,3,0,0,0-.207.377c-.061.131-.135.255-.185.39l-.154.4a2.636,2.636,0,0,0-.123.415l-.107.422-.032-.057c.312.129.627.252.938.388-.327-.091-.648-.195-.972-.291l-.042-.012.008-.044.084-.435a2.645,2.645,0,0,1,.1-.432l.134-.424c.048-.141.121-.272.18-.408a2.587,2.587,0,0,1,.205-.4l.234-.381.272-.353a3.885,3.885,0,0,1,.3-.334l.153-.162c.053-.052.111-.1.165-.15.115-.1.218-.2.341-.288s.234-.183.359-.263.249-.159.375-.235.259-.144.39-.211.263-.133.4-.184A5.231,5.231,0,0,1,441.438,255.2Z" transform="translate(-433.34 -248.246)" fill="#863007"/>
            <path id="Path_315" data-name="Path 315" d="M445.023,257.831l-.066.052c.04-.027.08-.053.12-.078Z" transform="translate(-434.885 -248.746)" fill="none"/>
            <path id="Path_316" data-name="Path 316" d="M444.805,257.9a2.949,2.949,0,0,0-.639.608A5.547,5.547,0,0,1,444.805,257.9Z" transform="translate(-434.734 -248.764)" fill="#cc4509"/>
            <path id="Path_317" data-name="Path 317" d="M440.442,261.029l.836.091c.2-2.083,2.5-3.259,2.88-3.44a3.976,3.976,0,0,1,1.171-.664A5.6,5.6,0,0,0,440.442,261.029Z" transform="translate(-434.019 -248.594)" fill="#cc4509" opacity="0.6" style="mix-blend-mode: multiply;isolation: isolate"/>
            <path id="Path_318" data-name="Path 318" d="M445.467,261.6l1.514.205a6.438,6.438,0,0,1,2.876-3.763,11.182,11.182,0,0,1,2.26-1.758C448.147,256.422,446.154,260.017,445.467,261.6Z" transform="translate(-434.983 -248.455)" fill="#cc4509" opacity="0.6" style="mix-blend-mode: multiply;isolation: isolate"/>
            <path id="Path_319" data-name="Path 319" d="M456.009,256.458a23.044,23.044,0,0,1-2.156,6.229l1.612.263a26.706,26.706,0,0,1,.914-3.117A12.366,12.366,0,0,0,456.009,256.458Z" transform="translate(-436.592 -248.487)" fill="#cc4509" opacity="0.6" style="mix-blend-mode: multiply;isolation: isolate"/>
            <path id="Path_320" data-name="Path 320" d="M464.475,265.669c.113.026.226.055.338.084s.224.057.335.09l-.075.043c.04-.322.066-.649.079-.975.006-.162.013-.324.01-.487s0-.325-.011-.487-.02-.323-.044-.483-.047-.319-.074-.479l-.056-.237a2.407,2.407,0,0,0-.067-.234,1.9,1.9,0,0,0-.078-.231c-.032-.075-.063-.152-.093-.23.045.069.091.137.136.209a1.737,1.737,0,0,1,.117.22,1.443,1.443,0,0,1,.1.23c.028.079.059.158.084.237l.064.244c.023.08.033.163.049.245a4.729,4.729,0,0,1,.062.5c.01.167.021.334.016.5s-.006.333-.023.5a6.178,6.178,0,0,1-.159.985l-.017.065-.058-.023c-.107-.043-.213-.092-.318-.137S464.579,265.719,464.475,265.669Z" transform="translate(-438.629 -249.559)" fill="#863007"/>
            <path id="Path_321" data-name="Path 321" d="M443.134,273.761a15.33,15.33,0,0,0,9.957.613s-1.3,3.287-5.846,2.723S443.134,273.761,443.134,273.761Z" transform="translate(-434.533 -251.806)" fill="#fff"/>
            <path id="Path_322" data-name="Path 322" d="M448.424,270.328s-.058,0-.159-.009a2.92,2.92,0,0,0-.414.01,1.512,1.512,0,0,0-.263.05.7.7,0,0,0-.244.122.39.39,0,0,0-.125.231.623.623,0,0,0-.008.147v.019c0-.015,0,.008,0,.01l.009.043.016.085c.015.051.035.088.05.133s.052.088.084.127a1.164,1.164,0,0,0,.223.209,2.308,2.308,0,0,0,.505.265,3.818,3.818,0,0,0,.394.133l.155.041a1.459,1.459,0,0,1-.162,0,2.5,2.5,0,0,1-.423-.058,1.929,1.929,0,0,1-.277-.083,1.464,1.464,0,0,1-.3-.144,1.169,1.169,0,0,1-.276-.234,1.817,1.817,0,0,1-.109-.158,1.928,1.928,0,0,1-.074-.191l-.015-.086-.007-.043c0-.012,0,0,0-.032v-.025a.805.805,0,0,1,.015-.2.562.562,0,0,1,.207-.334.786.786,0,0,1,.324-.131,1.285,1.285,0,0,1,.294-.017,2.129,2.129,0,0,1,.424.067A1.359,1.359,0,0,1,448.424,270.328Z" transform="translate(-435.278 -251.125)" fill="#c39368"/>
            <path id="Path_323" data-name="Path 323" d="M443.259,264.34s.627-.975,1.328-.691.824,1.534.824,1.534S444.808,263.2,443.259,264.34Z" transform="translate(-434.56 -249.857)" fill="#863007"/>
            <path id="Path_324" data-name="Path 324" d="M455.979,266.206s-.4-1.089-1.149-.96-1.135,1.321-1.135,1.321S454.708,264.762,455.979,266.206Z" transform="translate(-436.561 -250.171)" fill="#863007"/>
            <path id="Path_325" data-name="Path 325" d="M443.721,275.322s.132.047.365.117c.116.038.259.076.422.123s.348.095.55.142.422.1.656.149.482.087.736.138.523.079.793.114.546.067.822.077.553.039.825.036l.4.006.394-.016.382-.015.363-.036a5.971,5.971,0,0,0,.666-.084l.561-.093.427-.1.373-.086-.362.124-.419.141c-.165.042-.352.087-.558.133a6.1,6.1,0,0,1-.668.12l-.368.055-.386.027-.4.027h-.411c-.276.006-.557-.011-.837-.029s-.558-.057-.833-.085-.542-.086-.8-.133-.506-.105-.738-.171-.453-.12-.653-.183-.382-.126-.544-.181-.3-.111-.411-.158C443.846,275.386,443.721,275.322,443.721,275.322Z" transform="translate(-434.648 -252.106)" fill="#dde6ec"/>
            <g id="Group_230" data-name="Group 230" transform="translate(9.206 15.56)">
              <path id="Path_326" data-name="Path 326" d="M444.962,267.123c-.15.634-.5,1.1-.776,1.03s-.381-.634-.23-1.268.5-1.1.777-1.03S445.113,266.488,444.962,267.123Z" transform="translate(-443.886 -265.848)" fill="#461a00"/>
              <path id="Path_327" data-name="Path 327" d="M444.567,266.568c-.061.188-.177.318-.259.291s-.1-.2-.039-.389.179-.318.261-.291S444.629,266.38,444.567,266.568Z" transform="translate(-443.953 -265.911)" fill="#fff"/>
            </g>
            <g id="Group_231" data-name="Group 231" transform="translate(17.509 16.856)">
              <path id="Path_328" data-name="Path 328" d="M455.235,268.727c-.151.634-.5,1.1-.777,1.03s-.381-.634-.23-1.269.5-1.1.774-1.029S455.385,268.092,455.235,268.727Z" transform="translate(-454.159 -267.452)" fill="#461a00"/>
              <path id="Path_329" data-name="Path 329" d="M454.839,268.172c-.061.188-.178.318-.259.292s-.1-.2-.038-.39.177-.318.259-.291S454.9,267.984,454.839,268.172Z" transform="translate(-454.225 -267.515)" fill="#fff"/>
            </g>
          </g>
          <g id="Group_233" data-name="Group 233" transform="translate(6.569 28.253)" style="mix-blend-mode: multiply;isolation: isolate">
            <path id="Path_330" data-name="Path 330" d="M453.338,285.892c.957,4.729.888,11.351.768,14.775A11.774,11.774,0,0,0,457,299.624l-1.1-9.98A14,14,0,0,0,453.338,285.892Z" transform="translate(-440.516 -282.386)" fill="#e9e9e9"/>
            <path id="Path_331" data-name="Path 331" d="M437.473,290.955l1.022.748,2.08-2.658-.019.158a14.972,14.972,0,0,1,1.482-3.312A23.347,23.347,0,0,0,437.473,290.955Z" transform="translate(-437.473 -282.386)" fill="#e9e9e9"/>
            <path id="Path_332" data-name="Path 332" d="M449.3,281.554c6.112,1.135,9.825,7.094,10.812,8.88l1.323-1.225S456.9,282.144,449.3,281.554Z" transform="translate(-439.742 -281.554)" fill="#e9e9e9"/>
          </g>
        </g>
      </g>
    </g>
    <g id="Group_202" data-name="Group 202" transform="translate(47.672 685.708)">
      <g id="Group_201" data-name="Group 201" clip-path="url(#clip-path-2)">
        <g id="Group_200" data-name="Group 200" transform="translate(7.584 2.535)">
          <g id="Group_191" data-name="Group 191" transform="translate(7.073 46.189)">
            <g id="Group_189" data-name="Group 189" transform="translate(7.077)">
              <path id="Path_179" data-name="Path 179" d="M510.449,331.692c-.152-.469-.923-1.05-1.467-1.469a14.154,14.154,0,0,1-1.718-1.629,2.971,2.971,0,0,1-.783-1.128c-.015-.532-.021-1.359-.018-1.891.007-1.228-.03-2.455,0-3.685.011-.585-.026-2.979-.046-3.583a22.961,22.961,0,0,0-.087-3.105,9.425,9.425,0,0,1-2.612.171c.06.661.2,1.315.215,1.982.02.984.067,1.962.145,2.944.143,1.781.127,3.568.156,5.353.016.941.087,1.886.045,2.826a9.248,9.248,0,0,0-.078,1.886,1.387,1.387,0,0,0,.164.248,8.848,8.848,0,0,0,2.351,1.879,4.375,4.375,0,0,0,2.689.979,1.454,1.454,0,0,0,1.027-.442A1.486,1.486,0,0,0,510.449,331.692Z" transform="translate(-503.715 -315.203)" fill="#efcaa6"/>
              <path id="Path_180" data-name="Path 180" d="M506.411,316.026a6.807,6.807,0,0,0-.084-.823,9.425,9.425,0,0,1-2.612.171c.023.25.056.5.091.749A9.254,9.254,0,0,0,506.411,316.026Z" transform="translate(-503.715 -315.203)" fill="#efcaa7" opacity="0.5" style="mix-blend-mode: multiply;isolation: isolate"/>
              <path id="Path_181" data-name="Path 181" d="M510.692,338.464c-.152-.469-.923-1.05-1.467-1.469-.06-.045-.116-.095-.175-.143a1.136,1.136,0,0,1-.476.6,1.03,1.03,0,0,1-1.278-.243c-.284-.337.054-.646.365-.75a2.686,2.686,0,0,1,.812-.112c-.334-.313-.651-.644-.967-.981l-.066-.072a2.291,2.291,0,0,1-1.5.259,2.243,2.243,0,0,1-1.409-1.061c0,.254,0,.507-.012.759a9.244,9.244,0,0,0-.078,1.886,1.388,1.388,0,0,0,.164.248,8.848,8.848,0,0,0,2.351,1.879,4.375,4.375,0,0,0,2.689.979,1.454,1.454,0,0,0,1.027-.442A1.486,1.486,0,0,0,510.692,338.464Z" transform="translate(-503.957 -321.975)" fill="#efcaa7" opacity="0.5" style="mix-blend-mode: multiply;isolation: isolate"/>
              <path id="Path_182" data-name="Path 182" d="M506.947,337.825a2.013,2.013,0,0,1,1.916-1q-.269-.262-.529-.533c-1.457-.2-2.105,1.187-2.378,2.528.158.133.324.258.493.379A4.578,4.578,0,0,1,506.947,337.825Z" transform="translate(-504.502 -322.601)" fill="#faa819"/>
              <path id="Path_183" data-name="Path 183" d="M510.692,338.753c-.138-.428-.794-.951-1.321-1.356a1.6,1.6,0,0,1-1.589.813,3.124,3.124,0,0,1-1.6-1.075,22.151,22.151,0,0,1-1.661-1.82c0,.075,0,.151-.007.226a9.244,9.244,0,0,0-.078,1.886,1.387,1.387,0,0,0,.164.248,8.848,8.848,0,0,0,2.351,1.879,4.375,4.375,0,0,0,2.689.979,1.453,1.453,0,0,0,1.027-.442A1.486,1.486,0,0,0,510.692,338.753Z" transform="translate(-503.957 -322.264)" fill="#f58020"/>
              <path id="Path_184" data-name="Path 184" d="M510.8,339.81a.951.951,0,0,1-.179.625c-.184.238-.552.223-.816.2a4.691,4.691,0,0,1-1.311-.292,8.232,8.232,0,0,1-2.519-1.655c-.389-.359-.759-.738-1.154-1.09a3.889,3.889,0,0,1-.4-.391,3.591,3.591,0,0,0,.014.884,1.387,1.387,0,0,0,.164.248,8.848,8.848,0,0,0,2.351,1.879,4.375,4.375,0,0,0,2.689.979,1.454,1.454,0,0,0,1.027-.442A1.171,1.171,0,0,0,510.8,339.81Z" transform="translate(-503.957 -322.928)" fill="#f26322"/>
            </g>
            <g id="Group_190" data-name="Group 190" transform="translate(0 0.112)">
              <path id="Path_185" data-name="Path 185" d="M492.891,332.27c.106-.481.818-1.134,1.319-1.6a14.4,14.4,0,0,0,1.552-1.789,2.985,2.985,0,0,0,.67-1.2c-.038-.531-.112-1.354-.167-1.883-.127-1.221-.209-2.448-.353-3.668-.069-.581-.265-2.967-.3-3.57a22.818,22.818,0,0,1-.215-3.1,9.418,9.418,0,0,0,2.616-.083c.005.664-.073,1.329-.021,1.994.075.982.125,1.959.142,2.943.03,1.788.221,3.564.365,5.344.075.938.1,1.885.23,2.816a9.316,9.316,0,0,1,.261,1.869,1.419,1.419,0,0,1-.139.264,8.883,8.883,0,0,1-2.157,2.1,4.374,4.374,0,0,1-2.582,1.236,1.455,1.455,0,0,1-1.065-.339A1.493,1.493,0,0,1,492.891,332.27Z" transform="translate(-492.808 -315.376)" fill="#efcaa6"/>
              <path id="Path_186" data-name="Path 186" d="M496.78,316.286a6.519,6.519,0,0,1,0-.827,9.418,9.418,0,0,0,2.616-.083c0,.252-.008.5-.019.755A9.236,9.236,0,0,1,496.78,316.286Z" transform="translate(-494.199 -315.376)" fill="#efcaa7" opacity="0.5" style="mix-blend-mode: multiply;isolation: isolate"/>
              <path id="Path_187" data-name="Path 187" d="M492.891,338.949c.106-.482.818-1.134,1.319-1.6.055-.052.106-.107.159-.16a1.144,1.144,0,0,0,.532.552,1.031,1.031,0,0,0,1.249-.367c.25-.363-.117-.638-.436-.711a2.679,2.679,0,0,0-.82-.033c.3-.345.585-.7.868-1.071.021-.027.038-.051.058-.078a2.294,2.294,0,0,0,1.52.111,2.24,2.24,0,0,0,1.3-1.192c.023.252.051.5.086.754a9.317,9.317,0,0,1,.261,1.869,1.418,1.418,0,0,1-.139.264,8.882,8.882,0,0,1-2.157,2.1,4.373,4.373,0,0,1-2.582,1.236,1.455,1.455,0,0,1-1.065-.339A1.493,1.493,0,0,1,492.891,338.949Z" transform="translate(-492.808 -322.054)" fill="#efcaa7" opacity="0.5" style="mix-blend-mode: multiply;isolation: isolate"/>
              <path id="Path_188" data-name="Path 188" d="M498.243,338.048a2.013,2.013,0,0,0-2-.807c.161-.191.319-.385.473-.583,1.433-.339,2.211.977,2.615,2.285-.145.147-.3.288-.455.425A4.559,4.559,0,0,0,498.243,338.048Z" transform="translate(-494.013 -322.829)" fill="#faa819"/>
              <path id="Path_189" data-name="Path 189" d="M492.891,339.236a4.092,4.092,0,0,1,1.184-1.477,1.6,1.6,0,0,0,1.66.655,3.122,3.122,0,0,0,1.483-1.226,21.68,21.68,0,0,0,1.477-1.973c.01.075.019.15.029.224a9.316,9.316,0,0,1,.261,1.869,1.419,1.419,0,0,1-.139.264,8.883,8.883,0,0,1-2.157,2.1,4.374,4.374,0,0,1-2.582,1.236,1.455,1.455,0,0,1-1.065-.339A1.493,1.493,0,0,1,492.891,339.236Z" transform="translate(-492.808 -322.341)" fill="#f58020"/>
              <path id="Path_190" data-name="Path 190" d="M492.821,340.294a.955.955,0,0,0,.239.6c.206.219.572.167.832.12a4.661,4.661,0,0,0,1.276-.418,8.253,8.253,0,0,0,2.346-1.892c.352-.4.684-.807,1.043-1.2a3.93,3.93,0,0,0,.356-.428,3.578,3.578,0,0,1,.073.88,1.419,1.419,0,0,1-.139.264,8.882,8.882,0,0,1-2.157,2.1,4.373,4.373,0,0,1-2.582,1.236,1.455,1.455,0,0,1-1.065-.339A1.171,1.171,0,0,1,492.821,340.294Z" transform="translate(-492.808 -322.997)" fill="#f26322"/>
            </g>
          </g>
          <g id="Group_199" data-name="Group 199">
            <g id="Group_198" data-name="Group 198">
              <g id="Group_192" data-name="Group 192" transform="translate(0.84 21.124)">
                <path id="Path_191" data-name="Path 191" d="M493.787,277.781l-.036,1.483a3.5,3.5,0,0,0-2.559,1.594,37.767,37.767,0,0,0-6.524,16.164,7.655,7.655,0,0,0-1.46,2.97c-.042.375.223,1.126.514.291a8.542,8.542,0,0,1,.751-1.723s-.476,1.989-.055,2.28c.181.125.32.014.417-.654a8.968,8.968,0,0,1,.431-1.542s-.067,2.252.514,2.252c.237,0,.25-.209.237-.779a10.738,10.738,0,0,1-.042-1.321s.333,2.082.807,1.947c.195-.056.181-.472.069-1.112s-.32-1.6-.32-1.6a5.054,5.054,0,0,1,.542.862c.181.4.569.292.347-.514a2.391,2.391,0,0,0-1.167-1.738,24,24,0,0,1,5.394-12.789l6.84.444a21.892,21.892,0,0,1,2.641,6.451,67,67,0,0,1,1,7.368s-.537.982-.853,1.539-.408.834-.222,1,.889-.7,1.112-1.2a14.372,14.372,0,0,1-.148,1.8c-.112.464-.315.945.037.945s.667-.89.816-2.651c0,0,.092,1.13.129,2.039s.537.853.556-.093-.037-2.132-.037-2.132a10.063,10.063,0,0,1,.352,1.8c.037.724.426.964.538.149a6.742,6.742,0,0,0-.167-1.983,12.7,12.7,0,0,1,.63,2.076c.074.648.469.095.3-.964a3.76,3.76,0,0,0-1.464-2.465,81.168,81.168,0,0,0-1.5-9.786c-.982-4-3-8.211-4.078-8.657a3.271,3.271,0,0,0-1.724-.315l-.111-1.464a1.24,1.24,0,0,0-1.261-1.167C493.843,276.577,493.8,277.374,493.787,277.781Z" transform="translate(-483.203 -276.577)" fill="#efcaa6"/>
                <path id="Path_192" data-name="Path 192" d="M500.913,279.334a4.772,4.772,0,0,0,1.18-.308l-.1-1.281a1.24,1.24,0,0,0-1.261-1.167c-1.186,0-1.224.8-1.242,1.2l-.035,1.416A3.268,3.268,0,0,0,500.913,279.334Z" transform="translate(-488.91 -276.577)" fill="#efcaa6" opacity="0.5" style="mix-blend-mode: multiply;isolation: isolate"/>
                <path id="Path_193" data-name="Path 193" d="M494.581,280.973a29.3,29.3,0,0,1-.807,4.588,128.6,128.6,0,0,0-2.53,17.767s7.489,3.378,13.578.4c0,0-2.651-17.057-2.9-18.7a19.218,19.218,0,0,1-.112-3.837,3.984,3.984,0,0,0-2.639-1.651s.128,3.1-1.3,3.134-1.221-2.985-1.278-3.134A15.546,15.546,0,0,0,494.581,280.973Z" transform="translate(-486.026 -277.619)" fill="#848d00"/>
                <path id="Path_194" data-name="Path 194" d="M501.707,279.544s.128,3.1-1.3,3.134-1.221-2.985-1.278-3.134c0,0-.274.16-.659.416a11.166,11.166,0,0,0,.676,4.442l1.187-1.594,1.3,1.724s.942-1.184.932-4.695A6.948,6.948,0,0,0,501.707,279.544Z" transform="translate(-488.563 -277.619)" fill="#faf9e8"/>
                <path id="Path_195" data-name="Path 195" d="M496.048,285.352a3.1,3.1,0,0,0,.742,1.446c.556.518,1.372-1.631,1.372-1.631a20.583,20.583,0,0,0,1.224,1.668c.408.446,1.26-1.149,1.446-1.631s.444-1.594.815.778,1.319,9.537,2.428,19.037a23.165,23.165,0,0,1-7.023.829c-3.262-.259-4.45-1.108-4.45-1.108a163.131,163.131,0,0,1,2.345-18.1C495.232,285.352,495.6,284.314,496.048,285.352Z" transform="translate(-486.503 -279.365)" fill="#aaad15"/>
              </g>
              <g id="Group_197" data-name="Group 197">
                <path id="Path_196" data-name="Path 196" d="M514.552,267.11c.219.081,5.78,1.861,3.333,13.316a5.888,5.888,0,0,1-1.112.038,14.829,14.829,0,0,0,.445-2.929,12.321,12.321,0,0,1-.927,3,3.973,3.973,0,0,1-1.668-.371,13.561,13.561,0,0,0,.742-3.966,21.446,21.446,0,0,1-1.186,3.893,4.306,4.306,0,0,1-.779-.075,18.386,18.386,0,0,0,.816-4s-.371,3-1.52,4.189a13.629,13.629,0,0,0-1.928-.816s3-4.523,2.559-8.749Z" transform="translate(-492.041 -252.129)" fill="#454444"/>
                <path id="Path_197" data-name="Path 197" d="M514.594,273.039c.513-.35.99-.761,1.414-1.1a5.562,5.562,0,0,0,2.131-3.073,4.936,4.936,0,0,0-2.243-1.759l-1.226,3.529A9.492,9.492,0,0,1,514.594,273.039Z" transform="translate(-493.384 -252.129)" fill="#373636" opacity="0.7" style="mix-blend-mode: multiply;isolation: isolate"/>
                <path id="Path_198" data-name="Path 198" d="M489,271.139s-2.224,2.558-1.557,9.565l-1.668-.056a30.4,30.4,0,0,1,.111-3.392,7.906,7.906,0,0,0-.5,3.559l-1.112-.111a10.765,10.765,0,0,1,.333-3.5,28.441,28.441,0,0,0-.89,3.392s-1.279.055-1.78-.5c0,0-.666-7.786,5.116-10.288S489,271.139,489,271.139Z" transform="translate(-481.909 -252.778)" fill="#454444"/>
                <path id="Path_199" data-name="Path 199" d="M488.325,269.8a7.447,7.447,0,0,0-2.78,2.073,6.324,6.324,0,0,0,1.289,2.3,3.7,3.7,0,0,0,1.988.945,8.508,8.508,0,0,1,1.45-3.98S494.109,267.3,488.325,269.8Z" transform="translate(-483.186 -252.778)" fill="#373636" opacity="0.7" style="mix-blend-mode: multiply;isolation: isolate"/>
                <path id="Path_200" data-name="Path 200" d="M504.31,248.558s.222-2.744-4.968-4.152-13.456,1.039-15.422,8.045,1.78,12.344,8.379,13.42,13.309-1.372,14.68-7.377S505.273,248.558,504.31,248.558Z" transform="translate(-482.431 -244.024)" fill="#454444"/>
                <g id="Group_193" data-name="Group 193" transform="translate(0.905 13.886)">
                  <path id="Path_201" data-name="Path 201" d="M485.792,266.6a1.04,1.04,0,0,0-1.014-.652,1.213,1.213,0,0,0-.227,0c-.672.075-1.068.814-1.2,1.4a1.886,1.886,0,0,0,.538,1.777,1.528,1.528,0,0,0,1.783.237.11.11,0,0,0,.084-.053.041.041,0,0,1,.006-.01,1.193,1.193,0,0,0,.123-.108.111.111,0,0,0,.01-.144A2.748,2.748,0,0,0,485.792,266.6Z" transform="translate(-483.303 -265.604)" fill="#efcaa6"/>
                  <path id="Path_202" data-name="Path 202" d="M515.228,265.662a1,1,0,0,0-.9-.212,1.223,1.223,0,0,0-.809.471,3.8,3.8,0,0,0-.754,1.772c-.011.049.07.077.085.027l.022-.067c.026,1.014,1.235,1.122,1.949.786A1.675,1.675,0,0,0,515.228,265.662Z" transform="translate(-493.648 -265.423)" fill="#efcaa6"/>
                  <path id="Path_203" data-name="Path 203" d="M485.537,268.1a1.308,1.308,0,0,0-1.25-.576c-.027,0-.032.048,0,.05a1.314,1.314,0,0,1,1.1.812,5.962,5.962,0,0,1,.3,1.147c.034.115.189.082.214-.018A2.008,2.008,0,0,0,485.537,268.1Z" transform="translate(-483.641 -266.157)" fill="#c39368"/>
                  <path id="Path_204" data-name="Path 204" d="M515.739,266.979c-.251-.469-.658-.162-.911.137a4.042,4.042,0,0,0-.474.735c-.068.13-.224.362-.205.517.01.084.119.157.193.091.258-.226.813-2.248,1.352-1.448C515.715,267.042,515.756,267.011,515.739,266.979Z" transform="translate(-494.132 -265.885)" fill="#c39368"/>
                </g>
                <path id="Path_205" data-name="Path 205" d="M504.559,259.822a12.1,12.1,0,0,0-2.26-7.13,8.567,8.567,0,0,0-6.2-2.983,22.39,22.39,0,0,0-3.478.029,10.933,10.933,0,0,0-3.415.7,6.815,6.815,0,0,0-3.428,2.779c-.912,1.66-.369,2.931.121,4.611.7,2.406-1.029,5.212.424,7.495a7.4,7.4,0,0,0,5,3.226,18.968,18.968,0,0,0,6.487.148,7.993,7.993,0,0,0,5.745-4.093A9.8,9.8,0,0,0,504.559,259.822Z" transform="translate(-483.095 -246)" fill="#f4d9bf"/>
                <path id="Path_206" data-name="Path 206" d="M502.628,262.475s.373-.635.811-.526a1,1,0,0,1,.657.7A1.518,1.518,0,0,0,502.628,262.475Z" transform="translate(-489.183 -250.313)" fill="#313030"/>
                <path id="Path_207" data-name="Path 207" d="M490.709,262.708s.372-.636.81-.526a1,1,0,0,1,.658.7A1.522,1.522,0,0,0,490.709,262.708Z" transform="translate(-484.999 -250.395)" fill="#313030"/>
                <path id="Path_208" data-name="Path 208" d="M497.459,270.729a.614.614,0,0,0-.077-.007.625.625,0,0,0-.19.016.3.3,0,0,0-.1.049.274.274,0,0,0-.066.091.329.329,0,0,0-.018.053c0,.024-.011.059,0,.068a.255.255,0,0,0,.038.11.578.578,0,0,0,.086.113,1.409,1.409,0,0,0,.108.1c.039.03.077.059.115.084s.075.049.11.067a1.012,1.012,0,0,0,.177.083.32.32,0,0,0,.075.019.373.373,0,0,1-.078.016.633.633,0,0,1-.21-.024.991.991,0,0,1-.276-.119.9.9,0,0,1-.14-.106.715.715,0,0,1-.119-.146.4.4,0,0,1-.056-.205.261.261,0,0,1,.014-.093.488.488,0,0,1,.041-.094.36.36,0,0,1,.133-.128.333.333,0,0,1,.154-.037.467.467,0,0,1,.212.049A.369.369,0,0,1,497.459,270.729Z" transform="translate(-487.15 -253.368)" fill="#c39368"/>
                <g id="Group_194" data-name="Group 194" transform="translate(6.489 14.998)">
                  <path id="Path_209" data-name="Path 209" d="M492.583,267.892c.018.424-.119.775-.3.782s-.351-.33-.368-.755.119-.775.3-.782S492.566,267.467,492.583,267.892Z" transform="translate(-491.909 -267.137)" fill="#673121"/>
                  <path id="Path_210" data-name="Path 210" d="M492.224,267.7c0,.128-.055.231-.111.229s-.1-.109-.093-.237.055-.231.112-.228S492.229,267.571,492.224,267.7Z" transform="translate(-491.948 -267.251)" fill="#fff"/>
                </g>
                <g id="Group_195" data-name="Group 195" transform="translate(15.238 14.665)">
                  <path id="Path_211" data-name="Path 211" d="M506.066,267.377c.017.425-.12.775-.306.783s-.351-.33-.368-.755.119-.775.3-.783S506.048,266.953,506.066,267.377Z" transform="translate(-505.391 -266.623)" fill="#673121"/>
                  <path id="Path_212" data-name="Path 212" d="M505.706,267.186c-.005.129-.055.231-.112.228s-.1-.108-.093-.237.055-.231.112-.228S505.711,267.057,505.706,267.186Z" transform="translate(-505.43 -266.737)" fill="#fff"/>
                </g>
                <path id="Path_213" data-name="Path 213" d="M489.676,270.017c0,.308-.6.557-1.342.556s-1.341-.252-1.341-.559.6-.557,1.342-.556S489.676,269.71,489.676,270.017Z" transform="translate(-483.694 -252.954)" fill="#f9cbc0"/>
                <path id="Path_214" data-name="Path 214" d="M509.587,270.072c0,.308-.6.557-1.342.556s-1.341-.252-1.341-.561.6-.556,1.342-.556S509.587,269.763,509.587,270.072Z" transform="translate(-490.684 -252.972)" fill="#f9cbc0"/>
                <path id="Path_215" data-name="Path 215" d="M501.486,273.6a2.285,2.285,0,0,1-1.275-.693c-.008-.013-.029,0-.02.014a2.645,2.645,0,0,0,.434.528,4.555,4.555,0,0,1-2.831,2.326,2.954,2.954,0,0,1-3.326-1.4.024.024,0,0,0-.044.016c.287,1.332,1.9,1.727,3.071,1.651a4.289,4.289,0,0,0,3.289-2.474.738.738,0,0,0,.709.1A.038.038,0,0,0,501.486,273.6Z" transform="translate(-486.302 -254.162)" fill="#c39368"/>
                <path id="Path_216" data-name="Path 216" d="M486.771,255.953a16.674,16.674,0,0,1,1.629-2.681,12.918,12.918,0,0,1,1.029-1.141,12.87,12.87,0,0,0-.942,1.888c-.273.663-.5,1.345-.739,2.02,1.045.072,2.1.08,3.15.053a12.121,12.121,0,0,1,4.59-4.883,12.414,12.414,0,0,0-2.562,4.8c.668-.038,1.335-.08,1.994-.121.1-.006.194-.01.291-.014a19.2,19.2,0,0,1,1.781-2.24,13.185,13.185,0,0,1,2.055-1.836,14.776,14.776,0,0,0-1.751,2.348c-.346.553-.7,1.11-1.014,1.683a34.214,34.214,0,0,1,5.073.213c.118-.374.232-.749.34-1.123a16.829,16.829,0,0,0,.374-1.871,10.953,10.953,0,0,1-.06,2.189c-.02.294-.054.587-.1.879a11.454,11.454,0,0,1,2.4.646c.051-.446.08-.9.12-1.333a11.523,11.523,0,0,0-.014-2.36,7.163,7.163,0,0,0-1.165-3.178c-1.283-1.951-3.862-2.374-6.013-2.689a14.666,14.666,0,0,0-4.6.042,10.318,10.318,0,0,0-2.043.592,3.938,3.938,0,0,0-.988.476,9.57,9.57,0,0,0-3.034,2.114,8.2,8.2,0,0,0-2.008,3.543,10.778,10.778,0,0,0-.324,1.531A18.159,18.159,0,0,0,486.771,255.953Z" transform="translate(-482.73 -245.081)" fill="#454444"/>
                <path id="Path_217" data-name="Path 217" d="M511.659,257.421c-.007.5-.064,1.005-.094,1.456-.02.294-.054.587-.1.879.085.012.168.03.252.045A16.876,16.876,0,0,0,511.659,257.421Z" transform="translate(-492.286 -248.727)" fill="#373636" opacity="0.7" style="mix-blend-mode: multiply;isolation: isolate"/>
                <path id="Path_218" data-name="Path 218" d="M498.139,253.738a10.458,10.458,0,0,0-5.537,4.719c.409,0,.82,0,1.23-.012A12.093,12.093,0,0,1,498.139,253.738Z" transform="translate(-485.663 -247.434)" fill="#373636" opacity="0.7" style="mix-blend-mode: multiply;isolation: isolate"/>
                <path id="Path_219" data-name="Path 219" d="M484.806,255.518a8.272,8.272,0,0,1,1.934-3.5c-.053.051-.108.1-.16.154a8.2,8.2,0,0,0-2.008,3.543,10.777,10.777,0,0,0-.324,1.531,18.161,18.161,0,0,0,2.524.458,18.718,18.718,0,0,0-2.283-.653A11.081,11.081,0,0,1,484.806,255.518Z" transform="translate(-482.73 -246.83)" fill="#373636" opacity="0.7" style="mix-blend-mode: multiply;isolation: isolate"/>
                <path id="Path_220" data-name="Path 220" d="M513.977,254.713a7.221,7.221,0,0,0-1.038-2.978,7.355,7.355,0,0,1,.9,2.783,11.7,11.7,0,0,1,.014,2.359c-.038.437-.067.888-.117,1.333a8.824,8.824,0,0,0-2.269-.452,11.455,11.455,0,0,1,2.4.646c.051-.446.08-.9.12-1.333A11.527,11.527,0,0,0,513.977,254.713Z" transform="translate(-492.286 -246.731)" fill="#373636" opacity="0.7" style="mix-blend-mode: multiply;isolation: isolate"/>
                <g id="Group_196" data-name="Group 196" transform="translate(10.196 6.017)">
                  <path id="Path_221" data-name="Path 221" d="M501.691,255.633a19,19,0,0,0-1.748,2.239c-.1.006-2.289.265-2.321.331.668-.038,1.335-.08,1.994-.121.1-.006.194-.01.291-.014a19.2,19.2,0,0,1,1.781-2.24,13.187,13.187,0,0,1,2.055-1.836,14.776,14.776,0,0,0-1.751,2.348c-.346.553-.7,1.11-1.014,1.683.4-.012.794-.016,1.19-.016a15.033,15.033,0,0,1,2.372-4.709A23.9,23.9,0,0,0,501.691,255.633Z" transform="translate(-497.622 -253.296)" fill="#373636" opacity="0.7" style="mix-blend-mode: multiply;isolation: isolate"/>
                </g>
              </g>
            </g>
          </g>
        </g>
      </g>
    </g>
  </g>
</svg>
