<svg id="Camera" xmlns="http://www.w3.org/2000/svg" width="20" height="19" viewBox="0 0 20 19">
  <rect id="Rectangle_252" data-name="Rectangle 252" width="16" height="16" fill="none"/>
  <path id="Path_110" data-name="Path 110" d="M10,12a2.459,2.459,0,0,0,2.5-2.4,2.5,2.5,0,0,0-5,0A2.459,2.459,0,0,0,10,12Zm0-7.2a4.917,4.917,0,0,1,5,4.8,4.917,4.917,0,0,1-5,4.8A4.917,4.917,0,0,1,5,9.6,4.917,4.917,0,0,1,10,4.8ZM17.5,18H2.5a2.519,2.519,0,0,1-1.75-.72A2.324,2.324,0,0,1,0,15.6V4.8A2.459,2.459,0,0,1,2.5,2.4h2L6.375.6a2.113,2.113,0,0,1,1.5-.6H12.25a2.045,2.045,0,0,1,1.375.6L15.5,2.4h2A2.459,2.459,0,0,1,20,4.8V15.6A2.459,2.459,0,0,1,17.5,18Z" transform="translate(0 1)" fill="#8dc540" fill-rule="evenodd"/>
</svg>
