<svg xmlns="http://www.w3.org/2000/svg" width="40" height="40" viewBox="0 0 40 40">
  <g id="Group_287" data-name="Group 287" transform="translate(12320 416)">
    <circle id="Ellipse_238" data-name="Ellipse 238" cx="20" cy="20" r="20" transform="translate(-12320 -416)" fill="#eefadf"/>
    <g id="Group_282" data-name="Group 282" transform="translate(-13816.284 -1478.549)">
      <path id="Path_548" data-name="Path 548" d="M1510.911,1216.886H1524.4v.424c0,.164,0,.329,0,.493a.185.185,0,0,1-.076.166c-.2.159-.387.326-.584.485a.209.209,0,0,0-.085.182q0,3.458,0,6.916,0,2.353,0,4.707a1.045,1.045,0,0,1-1.094,1.091h-9.834a1.043,1.043,0,0,1-1.087-1.086q0-5.8,0-11.592a.272.272,0,0,0-.114-.242c-.194-.152-.38-.313-.567-.475a.171.171,0,0,1-.061-.107c0-.3,0-.61,0-.915A.306.306,0,0,1,1510.911,1216.886Zm4.379,12.787v-10.129h-1.262v10.129Zm2.99,0v-10.131h-1.255v10.131Zm1.73-10.133v10.132h1.256v-10.132Z" transform="translate(-1.583 -140.388)" fill="#707070"/>
      <path id="Path_549" data-name="Path 549" d="M1509.286,1076.064c0-.288-.005-.565,0-.841a.241.241,0,0,1,.218-.214,1,1,0,0,1,.143-.007h4.151c.139,0,.139,0,.139-.14,0-.284,0-.569,0-.853a.425.425,0,0,1,.453-.459q1.675,0,3.349,0a.427.427,0,0,1,.453.451c0,.295,0,.589,0,.884,0,.1.032.119.123.119q2.081,0,4.161,0a1.031,1.031,0,0,1,.164.008.238.238,0,0,1,.2.226c.006.253,0,.507,0,.76,0,.022-.038.053-.065.064a.25.25,0,0,1-.091,0h-13.4Zm5.422-1.321h2.724c0-.08,0-.151,0-.223,0-.162-.04-.2-.2-.2h-1.3c-.349,0-.7,0-1.048,0-.092,0-.159.031-.169.125S1514.708,1074.639,1514.708,1074.743Z" transform="translate(0 0)" fill="#707070"/>
    </g>
  </g>
</svg>
