<svg xmlns="http://www.w3.org/2000/svg" width="40" height="40" viewBox="0 0 40 40">
  <g id="Group_284" data-name="Group 284" transform="translate(12455 415)">
    <circle id="Ellipse_241" data-name="Ellipse 241" cx="20" cy="20" r="20" transform="translate(-12455 -415)" fill="#eefadf"/>
    <g id="Group_21" data-name="Group 21" transform="translate(-12549.093 -1050.228)">
      <g id="Group_20" data-name="Group 20" transform="translate(60 -0.772)">
        <path id="Path_7" data-name="Path 7" d="M-13814.55-891.457a10.712,10.712,0,0,1-4.525-1.067,16.65,16.65,0,0,1-3.586-2.318,20.894,20.894,0,0,1-3.246-3.363l.809-.589-.4.295.4-.295a20.226,20.226,0,0,0,3.1,3.2c1.726,1.432,4.419,3.138,7.452,3.138h.011c3.251,0,6.308-1.943,9.084-5.763l.809.588c-2.976,4.094-6.306,6.172-9.9,6.175Z" transform="translate(13869 1554)" fill="#707070"/>
        <path id="Path_8" data-name="Path 8" d="M-13814.553-891.822a13.358,13.358,0,0,1-8.1-3.194,20.184,20.184,0,0,1-3.248-3.178l.791-.612a19.607,19.607,0,0,0,3.1,3.02,12.615,12.615,0,0,0,7.462,2.964h.013c3.257,0,6.314-1.835,9.09-5.44l.793.61c-2.976,3.866-6.3,5.827-9.887,5.83Z" transform="translate(-13761.557 -241.822) rotate(180)" fill="#707070"/>
      </g>
      <circle id="Ellipse_6" data-name="Ellipse 6" cx="3" cy="3" r="3" transform="translate(111 652.228)" fill="#fff"/>
      <path id="Ellipse_6_-_Outline" data-name="Ellipse 6 - Outline" d="M3,1A2,2,0,1,0,5,3,2,2,0,0,0,3,1M3,0A3,3,0,1,1,0,3,3,3,0,0,1,3,0Z" transform="translate(111 652.228)" fill="#707070"/>
    </g>
  </g>
</svg>
