<svg xmlns="http://www.w3.org/2000/svg" width="125" height="133.545" viewBox="0 0 125 133.545">
  <path id="Path_547" data-name="Path 547" d="M1000.742,214.816a26.754,26.754,0,0,1,1.791-8.55c2.178-5.524,6.083-9.546,11.011-12.707,4.91-3.149,10.325-5.192,15.693-7.35a71.622,71.622,0,0,0,11.458-5.3,16.325,16.325,0,0,0,5.948-5.887c.858-1.556.657-3.251.731-4.882.14-3.121.091-6.252.07-9.378a1.722,1.722,0,0,0-.508-1.1,22.461,22.461,0,0,1-4.559-7.072,29.609,29.609,0,0,1-2.531-8.632,5.8,5.8,0,0,1-4.273-3.808c-1.2-2.865-2.006-5.83-1.163-8.921a9.034,9.034,0,0,1,1.789-3,1.138,1.138,0,0,0,.3-1.074c-.628-3.081-1.375-6.144-1.847-9.249-.94-6.184-1.131-12.38.483-18.5a22.068,22.068,0,0,1,8.642-12.913,27.161,27.161,0,0,1,10.81-4.371,37.433,37.433,0,0,1,15.5-.073c3.071.709,5.865,1.962,7.739,4.7a1.194,1.194,0,0,0,.731.423c7.716,1.259,12.046,5.98,13.768,13.4a36.972,36.972,0,0,1,.656,11.526,69.726,69.726,0,0,1-3.163,15.69c2.773,2.251,2.853,5.242,2.279,8.373a13.029,13.029,0,0,1-2.084,5.536,4.624,4.624,0,0,1-2.8,2.054c-.561.111-.671.452-.741.92a31.838,31.838,0,0,1-5.1,13,6.6,6.6,0,0,1-1.38,1.62,2.084,2.084,0,0,0-.846,1.9c.1,4.1.076,8.2.358,12.289a7.054,7.054,0,0,0,1.647,3.276,19.947,19.947,0,0,0,8.327,6.095c4.937,2.184,9.972,4.147,14.936,6.271,5.02,2.147,9.8,4.694,13.768,8.559a24.733,24.733,0,0,1,7.37,15.145c.08.643.128,1.289.2,1.994Z" transform="translate(-1000.742 -81.271)" fill="#c7c6c6"/>
</svg>
