<svg xmlns="http://www.w3.org/2000/svg" xmlns:xlink="http://www.w3.org/1999/xlink" width="70" height="70" viewBox="0 0 70 70">
  <defs>
    <clipPath id="clip-path">
      <path id="Path_546" data-name="Path 546" d="M581.329-5.944a4.586,4.586,0,0,1-3.536-2.725l0,0a14.483,14.483,0,0,1-.561-6.793,11.347,11.347,0,0,1,.695-3.359,4.538,4.538,0,0,1,1.7-2.092c.106-.027.212-.055.318-.079a10.323,10.323,0,0,1,4.662.057l.1.026a3.789,3.789,0,0,0,.322.9,4.151,4.151,0,0,0,.9,1.134,2.918,2.918,0,0,0,.5.365,2.253,2.253,0,0,1,.631.613,11.333,11.333,0,0,1-.259-1.338c-.073-.232-.152-.519-.22-.755a1.6,1.6,0,0,0-.135-.332c.836.338,1.65.736,2.457,1.134a27.8,27.8,0,0,0,4.392,1.842c.26.077.523.147.786.213a2.93,2.93,0,0,0,.356.753,2.537,2.537,0,0,0,.879.761,2.446,2.446,0,0,0,.492.2,1.736,1.736,0,0,1,.65.408c-.216-.337-.155-.678-.34-1.107-.086-.188-.182-.426-.265-.623-.006-.016-.015-.031-.022-.047q.347.051.7.088a4.652,4.652,0,0,0,1.294.485,4.333,4.333,0,0,0,2.328-.137,2.335,2.335,0,0,0,.773-.451c.213-.182.475-.39.867-.769a1.606,1.606,0,0,1-.788.265c-.272.025-.553.01-.884.013a4.249,4.249,0,0,1-.947-.115,4.374,4.374,0,0,0-1.6-.066,2.918,2.918,0,0,0-1.039.341,21.239,21.239,0,0,1-6.1-2.57c.352.035.721.056,1.1.057.081,0,.162,0,.244,0l.431.09,1.9.387a1.83,1.83,0,0,0,.849.853,2.319,2.319,0,0,0,1.662.146,1.63,1.63,0,0,0,.581-.3,7.451,7.451,0,0,1,.714-.476c-.421.128-.746-.063-1.193-.16a2.63,2.63,0,0,1-.619-.234,2.045,2.045,0,0,0-1.006-.231,2.251,2.251,0,0,0-.976.241c-.457-.125-.99-.259-1.46-.362.353-.032.7-.078,1.019-.138.24-.044.469-.094.682-.147a2.4,2.4,0,0,0,1.1.166,2.526,2.526,0,0,0,.788-.188,2.281,2.281,0,0,0,.425-.227,1.7,1.7,0,0,0,.371-.342,1.276,1.276,0,0,0,.268-.653,7.756,7.756,0,0,1,.166-.865,1.82,1.82,0,0,1-.944.727,1.141,1.141,0,0,1-.562.1,1.711,1.711,0,0,0-.553.077,2.065,2.065,0,0,0-.532.249,1.782,1.782,0,0,0-.708.858c-.17.033-.347.065-.532.093a12.443,12.443,0,0,1-1.78.137l-.118-.021,0,.021c-.072,0-.145,0-.217,0a12.4,12.4,0,0,1-1.585-.134l-.354-.209a15.847,15.847,0,0,0-2.6-1.353,9.66,9.66,0,0,0-1.1-.321A4.86,4.86,0,0,0,587-22.088l.037-.013c.155-.043.329-.09.533-.14a15.343,15.343,0,0,1,2.517-.4,3,3,0,0,0,1.11.45,5.75,5.75,0,0,0,1.686.007c.262-.024.423-.073.64-.107a1.339,1.339,0,0,1,.949.208c-.215-.2-.385-.368-.582-.541a2.445,2.445,0,0,0-.718-.457c-.268-.108-.591-.222-.85-.314a2.192,2.192,0,0,0-.7-.125,2.753,2.753,0,0,0-.676.086,2.109,2.109,0,0,0-.974.526,13.341,13.341,0,0,0-1.667.17c.136-.091.267-.185.389-.28a9.766,9.766,0,0,0,.811-.7,2.022,2.022,0,0,0,1.232-.565,2.717,2.717,0,0,0,.806-1.517,1.873,1.873,0,0,0,0-.675c-.022-.147-.044-.311-.056-.534a5.388,5.388,0,0,0,.554-.093,2.68,2.68,0,0,0,.59-.22,2.523,2.523,0,0,1,.86-.22,7.936,7.936,0,0,1-1.272-.485c-.233-.066-.513-.161-.743-.24a1.867,1.867,0,0,0-1.261.028,1.553,1.553,0,0,0-.867.752c-.1.016-.212.032-.322.052a15.226,15.226,0,0,0-2.244.574,15.628,15.628,0,0,0,1-1.466c.081-.079.165-.162.266-.246a6.791,6.791,0,0,1,1.473-.98,7.006,7.006,0,0,1,1.765-.6c.174-.034.342-.059.5-.078a3.9,3.9,0,0,0,1.051.606,5,5,0,0,0,1.457.3,3.282,3.282,0,0,0,.632-.02,2.232,2.232,0,0,1,.9.114c-.431-.24-.61-.6-1.08-.923l-.684-.456a1.874,1.874,0,0,0-1.306-.277,1.561,1.561,0,0,0-.9.444,6.056,6.056,0,0,0-.612.055,6.688,6.688,0,0,0-1.859.55,6.6,6.6,0,0,0-1.136.67c.1-.2.2-.408.3-.617.077-.175.148-.354.219-.532.112-.186.224-.374.332-.564a13.16,13.16,0,0,1,.822-1.316l.007.011c.086-.051.191-.115.328-.188a5.361,5.361,0,0,1,.838-.364.965.965,0,0,0-.041.151,12.938,12.938,0,0,0,1.329.21c.25.032.487.054.735.072l.788.065a4.519,4.519,0,0,0,.686,0,2.96,2.96,0,0,1,.978.13c-.484-.24-.688-.625-1.225-.964-.243-.149-.548-.328-.818-.46a1.946,1.946,0,0,0-1.583-.033,1.588,1.588,0,0,0-.732.6,4.607,4.607,0,0,0-.928.33c.05-.055.1-.109.152-.162a5.621,5.621,0,0,1,1.053-.828l0,.006.078-.057a5.808,5.808,0,0,1,.733-.363,3.2,3.2,0,0,1,.789-.149,4.174,4.174,0,0,1,1.192.114c.113.027.219.057.322.087a3.113,3.113,0,0,0,.664.714,2.694,2.694,0,0,0,.59.351,4.913,4.913,0,0,0,.687.239,1.478,1.478,0,0,0,.663.025,2.607,2.607,0,0,0,.354-.081,1.061,1.061,0,0,0,.393-.209.422.422,0,0,1-.445-.089c-.131-.1-.24-.247-.4-.4-.074-.07-.152-.155-.234-.247l-.249-.277a1.665,1.665,0,0,0-1.072-.539,1.417,1.417,0,0,0-1.071.305c0,.009.011.017.015.025-.057-.019-.113-.038-.174-.056a4.015,4.015,0,0,0-1.242-.167,3.2,3.2,0,0,0-.721.108.1.1,0,0,0-.031,0l.185-.141c.01.029.017.061.029.09a2.362,2.362,0,0,0,1.125-.925A3.3,3.3,0,0,0,594.209-37c.018-.6-.18-.734-.256-1.654a3.788,3.788,0,0,1-.612,1.288,4.721,4.721,0,0,1-.427.669,2.606,2.606,0,0,0-.467,2.086c-.127.088-.259.176-.383.269l-.833.6-.058.043a6.14,6.14,0,0,0-.555.411,3.25,3.25,0,0,0,.168-.409,3.452,3.452,0,0,0,.04-1.9c-.156-.6-.383-.675-.73-1.559a3.891,3.891,0,0,1-.206,1.457,4.8,4.8,0,0,1-.22.787,2.764,2.764,0,0,0,.2,2.34,7.361,7.361,0,0,0-.473.586c-.416.577-.747,1.208-1.127,1.807a14.089,14.089,0,0,1-1.221,1.652c-.284.33-.583.645-.892.948a7.409,7.409,0,0,0,.248-.763l.033-.126.03,0c0-.027,0-.06-.005-.092.115-.438.223-.876.323-1.277l.068-.278a2.542,2.542,0,0,0,.732-.771,3.018,3.018,0,0,0,.418-1.461c.027-.465-.136-.625-.137-1.273a2.147,2.147,0,0,0,.531-.073,1.179,1.179,0,0,0,.557-.338,1.688,1.688,0,0,0,.417-.645.417.417,0,0,1-.4.163,3.07,3.07,0,0,1-.484-.117,1.9,1.9,0,0,1-.521-.238,1.589,1.589,0,0,0-1.916.242,1.894,1.894,0,0,0,.872.81,1.983,1.983,0,0,0,.683.188c.058.006.117.009.178.01-.153.3-.407.507-.628.857a6.338,6.338,0,0,1-.425.592,1.658,1.658,0,0,0-.167.248,2.915,2.915,0,0,0-.349-.6c-.34-.438-.576-.419-1.185-.993a2.823,2.823,0,0,1,.277,1.242,3.444,3.444,0,0,1,.037.7,2.208,2.208,0,0,0,.783,1.759c.032.351.067.726.09,1.02.01.1.019.187.026.262a6.294,6.294,0,0,1-.544,1.384,20.235,20.235,0,0,1-2.378,1.841c.02-.025.042-.05.06-.076.271-.4.156-.616.431-1.273-.232.3-.57.323-.923.47a1.4,1.4,0,0,1-.52.106,1.39,1.39,0,0,0-.363.043,1.118,1.118,0,0,0-.157.057c-.052.02-.1.049-.169.08a1.734,1.734,0,0,0-.483.3.7.7,0,0,0-.177.252.488.488,0,0,0-.026.128l-.083.018a8.651,8.651,0,0,0-1.626.563c-.228.105-.447.221-.657.34.183-.188.37-.372.553-.559l.018-.019,1.125-1.023c.478-.239,1.158-.483,1.673-.8l0,0a1.655,1.655,0,0,0,1.033.006,1.918,1.918,0,0,0,1.061-.878c.233-.4.129-.614.389-1.275-.224.306-.562.322-.923.5a2.637,2.637,0,0,1-.555.191,1.322,1.322,0,0,0-.452.2,7.31,7.31,0,0,0,.579-.638,7.329,7.329,0,0,0,.426-.6,2.35,2.35,0,0,0,1.112-1.055,3.54,3.54,0,0,0,.387-2.089c-.075-.674-.3-.769-.517-1.783a4.965,4.965,0,0,1-.4,1.567,4.684,4.684,0,0,1-.328.817,3.9,3.9,0,0,0-.319.877,3.746,3.746,0,0,0-.2-.707,7.828,7.828,0,0,0-.714-1.123c.019-.443.032-.886.053-1.328.013-.046.025-.09.04-.139a8.575,8.575,0,0,1,.356-.949c.046-.061.1-.127.158-.2a5.468,5.468,0,0,1,1.307-1.148,6.952,6.952,0,0,1,.748-.4c.366.168.736.308,1.076.438a7.9,7.9,0,0,0,1.448.355,10.451,10.451,0,0,1,1.59.136c-.454-.212-.629-.585-1.089-.934-.209-.156-.463-.353-.685-.511-.012-.009-.026-.016-.038-.025.168-.038.336-.083.5-.14a2.721,2.721,0,0,0,.529-.254,2.058,2.058,0,0,1,.8-.249,10.032,10.032,0,0,1-1.215-.432c-.224-.051-.5-.124-.725-.181a1.624,1.624,0,0,0-1.2.17,1.366,1.366,0,0,0-.683.88c.057.029.118.051.178.076a1.135,1.135,0,0,0-.583.63,3.808,3.808,0,0,0-.739.3,4.7,4.7,0,0,0-.995.713,10.83,10.83,0,0,1,.744-1.1c.134-.179.255-.355.359-.523a1.828,1.828,0,0,0,.212.268,1.5,1.5,0,0,0,.788-.865,1.841,1.841,0,0,0-.073-1.4c-.014-.031-.029-.055-.044-.082a4.853,4.853,0,0,1,1.148-.111c.5.01.874.106.883.072a2.137,2.137,0,0,0-.873-.23,4.066,4.066,0,0,0-1.044.027,5.015,5.015,0,0,1,1.139-.3l1,.208a4.118,4.118,0,0,0,.7.067,5.068,5.068,0,0,0,.8-.048,1.987,1.987,0,0,0,.642-.211c.2-.1.44-.2.815-.376a1.044,1.044,0,0,1-.608-.069c-.192-.073-.383-.176-.627-.26-.221-.076-.488-.193-.717-.3a1.793,1.793,0,0,0-1.382-.014,1.421,1.421,0,0,0-.568.408.966.966,0,0,0-.206.44,4.749,4.749,0,0,0-1.091.266c-.086.033-.169.07-.251.108l-.062-.063a4.678,4.678,0,0,1-.409-.442,3.17,3.17,0,0,0,.212-.64A3.5,3.5,0,0,0,584.742-43a2.3,2.3,0,0,0-.382-.65,6.781,6.781,0,0,1-.561-.839,3.826,3.826,0,0,1,0,1.5,4.663,4.663,0,0,1-.122.824,3.007,3.007,0,0,0,.4,2.318,6.291,6.291,0,0,1-.466,1.182c-.054.106-.1.194-.148.272a9.7,9.7,0,0,0-1.536,3.849c-.041-.28-.1-.573-.15-.867a2.51,2.51,0,0,0-.031-.776,2.4,2.4,0,0,0-.2-.593c0-.039-.012-.079-.016-.117.031.025.061.049.093.071a4.175,4.175,0,0,0,.484-1.475,6.924,6.924,0,0,0,0-1.9,3.723,3.723,0,0,0-.173-.738,3.424,3.424,0,0,1-.143-1.055,14.265,14.265,0,0,1-.6,1.569c-.083.286-.2.629-.288.911a2.706,2.706,0,0,0-.027,1.552,2.456,2.456,0,0,0,.184.472c-.07-.076-.141-.15-.216-.217a1.925,1.925,0,0,0-.591-.358,6.2,6.2,0,0,1-.819-.418c.351.332.378.733.573,1.206a3.6,3.6,0,0,1,.2.712,2.436,2.436,0,0,0,.475,1.066,2.383,2.383,0,0,0,.65.591,6.045,6.045,0,0,0,.379.612l.034.047c.016.14.029.276.035.4,0,.009,0,.017,0,.026-.117.589-.222,1.17-.34,1.717a13.108,13.108,0,0,1-1.418,3.776,7.287,7.287,0,0,0,.145-.878,7.423,7.423,0,0,0,.015-1.39,6.861,6.861,0,0,0-.119-.834c.025.013.048.03.073.042a2.131,2.131,0,0,0,.169-1.468,2.961,2.961,0,0,0-.973-1.611,1.992,1.992,0,0,0-.626-.365,7.631,7.631,0,0,1-.753-.346,7.251,7.251,0,0,0-.029-3.075,3.949,3.949,0,0,0,.616-1.01,5.16,5.16,0,0,0,.357-1.557,3.217,3.217,0,0,0-.014-.663,2.567,2.567,0,0,1,.1-.936c-.23.46-.592.663-.915,1.153-.14.221-.32.485-.466.705a1.949,1.949,0,0,0-.291.7c-.185-.4-.374-.807-.53-1.214-.006-.1-.013-.213-.013-.358a4.638,4.638,0,0,1,.257-1.52c.032-.093.066-.178.1-.258a3,3,0,0,0,1.177-.347,3.722,3.722,0,0,0,1.095-.915,2.691,2.691,0,0,0,.334-.509,2.3,2.3,0,0,1,.561-.658A8.714,8.714,0,0,1,579-45.32c-.223.078-.5.162-.728.233a1.745,1.745,0,0,0-.97.766,1.513,1.513,0,0,0-.227.937,3.38,3.38,0,0,0-.2.382,4,4,0,0,0-.3,1.1l-.044-.2-.022-.1q-.008-.2,0-.391c.035-.165.078-.365.142-.61a7.261,7.261,0,0,1,.414-1.2,5.026,5.026,0,0,1,.4-.712.547.547,0,0,1,.14-.071,1.669,1.669,0,0,1,.239-.033,1.831,1.831,0,0,0,.272-.048,2.93,2.93,0,0,0,.317-.113,2.932,2.932,0,0,0,1.208-1.023,2.074,2.074,0,0,0,.275-.571,1.556,1.556,0,0,1,.5-.724,4,4,0,0,1-.63.252,4.716,4.716,0,0,0-.648.246,5.167,5.167,0,0,1-.676.27,1.962,1.962,0,0,0-.943.675c-.03.039-.058.078-.086.12a1.7,1.7,0,0,0-.1.145,1.251,1.251,0,0,0-.143.337.561.561,0,0,0,.075.5,4.85,4.85,0,0,0-.394.666,6.431,6.431,0,0,0-.406,1.091.1.1,0,0,0-.007.013,3.512,3.512,0,0,0-.093.382c-.013.057-.025.111-.035.162-.034-.106-.072-.213-.118-.319a2.14,2.14,0,0,0-.312-.516,5.035,5.035,0,0,0-.394-.4c-.147-.141-.283-.269-.406-.384a1.51,1.51,0,0,0-.384-.92,2.049,2.049,0,0,0-1.192-.644c-.446-.087-.613.086-1.331-.008.359.147.471.469.774.766a3.749,3.749,0,0,1,.4.471,1.384,1.384,0,0,0,.76.524,2.5,2.5,0,0,0,.949.044c.006-.023.008-.047.012-.07q.142.155.307.332c.12.13.25.263.361.408a2.037,2.037,0,0,1,.267.48,7.08,7.08,0,0,1,.282,1.023,35.951,35.951,0,0,0,.929,3.952,5.336,5.336,0,0,1,.011,1.6,9.965,9.965,0,0,0-.3-1.36,5.639,5.639,0,0,0-.766-1.607,3.66,3.66,0,0,0-.386-.463c.038-.013.078-.021.114-.037a2.6,2.6,0,0,0-.872-1.142,4.063,4.063,0,0,0-.7-.434c-.1-.054-.2-.1-.287-.148a3.325,3.325,0,0,1-.289-.18c-.2-.141-.351-.228-.536-.349a2.737,2.737,0,0,1-.683-.667,2.264,2.264,0,0,1,.189.69,2.706,2.706,0,0,0,.211.791,3.608,3.608,0,0,0,.537.832,1.982,1.982,0,0,0,.6.462,2.544,2.544,0,0,0,.621.223,2.155,2.155,0,0,0,.963,0,3.877,3.877,0,0,1,.393.508,5.789,5.789,0,0,1,.7,1.577c.045.158.084.316.12.474-.056-.058-.117-.12-.187-.187a10.528,10.528,0,0,0-1.535-1.224l.012,0a1.776,1.776,0,0,0-.692-1.062,2.3,2.3,0,0,0-1.483-.446,1.644,1.644,0,0,0-.556.123c0-.079,0-.159,0-.238a2.866,2.866,0,0,0-.107-.661,2.889,2.889,0,0,1-.065-.937,8.371,8.371,0,0,1-.71,1.265c-.109.233-.254.51-.376.737a2.128,2.128,0,0,0-.22,1.32,1.86,1.86,0,0,0,.313.8c0,.033,0,.064,0,.1a4.5,4.5,0,0,0,.08.81,5.683,5.683,0,0,1-.347-.891c-.2-.653-.235-1.189-.27-1.186a3.321,3.321,0,0,0,.117,1.227,5.6,5.6,0,0,0,.686,1.638,17.858,17.858,0,0,1-1.843-1.118c-.085-.063-.168-.129-.249-.2a8.282,8.282,0,0,1-.659-.82,1.181,1.181,0,0,0,.233.166,2.613,2.613,0,0,0,.609-.988,2.9,2.9,0,0,0,.11-1.293,2.381,2.381,0,0,0-.139-.552,2.089,2.089,0,0,1-.1-.8c-.119.407-.424.6-.649,1.032-.1.194-.228.427-.337.619a1.515,1.515,0,0,0-.14,1.127c.006.025.015.048.022.072a4.939,4.939,0,0,1-.612-1.857c.008-.049.017-.1.031-.174a3.042,3.042,0,0,1,.277-.8c.125-.245.259-.418.235-.441s-.2.118-.37.358a2.148,2.148,0,0,0-.238.438c0-.1.008-.2.018-.3,0-.035.008-.067.011-.1.018.009.035.02.054.028.256-.316.49-.554.689-.806a2.486,2.486,0,0,0,.309-.519,3.534,3.534,0,0,0,.229-.675,1.59,1.59,0,0,0,.013-.618c-.031-.2-.053-.444-.115-.8a.742.742,0,0,1-.234.463c-.124.128-.274.24-.425.4a5.687,5.687,0,0,1-.5.45,1.493,1.493,0,0,0-.521,1.106,1.231,1.231,0,0,0,.144.621.87.87,0,0,0,.22.26c-.011.055-.023.11-.031.169a3.6,3.6,0,0,0-.049.49,2.414,2.414,0,0,0-.394-.5,2.712,2.712,0,0,0-1.366-.67c-.5-.1-.666.077-1.464-.032.41.159.57.5.934.81a4.711,4.711,0,0,1,.487.5,1.789,1.789,0,0,0,.941.567,3.145,3.145,0,0,0,.895.04,3.771,3.771,0,0,0,.158.734c.02.066.042.125.063.181a1.855,1.855,0,0,0-.44-.219,1.973,1.973,0,0,0-.927-.073,2.443,2.443,0,0,0-.818.285c-.479.267-.454.521-1.164.984a3.805,3.805,0,0,1,1.284-.05,2.537,2.537,0,0,1,.67.074,2.922,2.922,0,0,0,1.641-.117l.031.012a.686.686,0,0,1,.19.122,8.6,8.6,0,0,0,1.611,1.961,3.237,3.237,0,0,0-.4-.1,7.352,7.352,0,0,0-1.138-.059h-.205a3.24,3.24,0,0,1-.025-.425,1.592,1.592,0,0,1-.161.427,3.336,3.336,0,0,0-.86.075,5.655,5.655,0,0,0,.787.054,5.514,5.514,0,0,0-.389.692c-.095.228-.225.5-.336.721a1.919,1.919,0,0,0-.2.738l-.015-.022a2.3,2.3,0,0,0-.826-.73c-.016-.008-.031-.013-.047-.02a.74.74,0,0,0-.377-.532c-.21-.137-.431-.211-.549-.281a2.936,2.936,0,0,0-.448-.2l-.555-.189a3.165,3.165,0,0,0-.546-.12,2.076,2.076,0,0,1-.755-.3c.306.3.318.665.627,1.073.139.182.317.408.49.591a1.33,1.33,0,0,0,.579.36,1.366,1.366,0,0,0,.681.035c.315-.068.443-.243.7-.35.043.022.086.042.13.067a2.252,2.252,0,0,1,.732.708c.037.054.069.11.1.166.038.071.071.146.1.22,0,.018,0,.035.008.053a1.85,1.85,0,0,0,.244.633q.081.276.147.559a3.027,3.027,0,0,0-.338-.271,3.109,3.109,0,0,0-.846-.411,1.976,1.976,0,0,0-1.024-.09,7.523,7.523,0,0,1,.973.24,3.3,3.3,0,0,1,.777.429,3.189,3.189,0,0,1,.551.523c.027.125.054.249.082.372a7.351,7.351,0,0,0,.758,2.028c-.194-.164-.4-.319-.6-.464a10.76,10.76,0,0,0-1.571-.879,4.794,4.794,0,0,0-.688-.258,2.7,2.7,0,0,1-.912-.529c.382.45.48.9.909,1.431.2.23.434.512.639.736a2.427,2.427,0,0,0,1.4.754,1.876,1.876,0,0,0,1.219-.177c.048.066.1.132.147.2.217.271.45.527.687.781a8.339,8.339,0,0,1-1.137.085l-.722-.172-.95-.215a6.056,6.056,0,0,1-1-.268,2.478,2.478,0,0,1-.793-.644,7.766,7.766,0,0,1-.645-.8c-.13-.184-.245-.365-.349-.54a3.617,3.617,0,0,0,.028-1.317,5.081,5.081,0,0,0-.541-1.576,3.134,3.134,0,0,0-.382-.565,2.852,2.852,0,0,1-.453-.848,10.65,10.65,0,0,1-.1,1.494c0,.266,0,.59-.008.856a2.2,2.2,0,0,0,.42,1.322,1.818,1.818,0,0,0,.821.653,7.23,7.23,0,0,0,.372.654,7.356,7.356,0,0,0,.634.854,2.692,2.692,0,0,0,.872.74,3.307,3.307,0,0,0,.593.2c-.368-.055-.735-.118-1.1-.184a23.274,23.274,0,0,1-3.831-.951l-.332-.275a3.1,3.1,0,0,1-.619-.576,6.218,6.218,0,0,1-.353-.678c.02,0,.039.009.059.012a4.692,4.692,0,0,0,.066-1.361,5.234,5.234,0,0,0-.424-1.6c-.219-.527-.458-.575-.811-1.437a5.911,5.911,0,0,1-.132,1.459c-.012.262-.045.579-.071.844a2.123,2.123,0,0,0,.339,1.369,1.677,1.677,0,0,0,.77.656,6.217,6.217,0,0,0,.384.85,1.471,1.471,0,0,0,.116.151l-.063-.045c-.218-.149-.486-.289-.724-.466a2.42,2.42,0,0,1-.582-.647c-.294-.472-.4-.909-.43-.9a2.127,2.127,0,0,0,.294.978,2.5,2.5,0,0,0,.216.335c-.031-.028-.063-.054-.093-.084a4.34,4.34,0,0,1-.705-.879A8.142,8.142,0,0,1,557.643-33a1.016,1.016,0,0,0,.048.371,3.543,3.543,0,0,0,.328.863,3.95,3.95,0,0,0,.349.541.04.04,0,0,0,0,.061l.008.007-.02-.01c-.13-.064-.269-.124-.41-.179a1.518,1.518,0,0,0-.23-.081,1.224,1.224,0,0,0-.318-.5,1.9,1.9,0,0,0-.715-.425,2.087,2.087,0,0,0-1.012-.069,2.407,2.407,0,0,0-.9.357,1.673,1.673,0,0,0-.5.509,9.03,9.03,0,0,1-.556.738,2.431,2.431,0,0,1,1.271-.331,2.07,2.07,0,0,1,.689.022,3.154,3.154,0,0,0,1.015.04,6.261,6.261,0,0,0,.95-.186,1.459,1.459,0,0,1,.237.1c.127.058.257.121.387.192.241.126.471.25.666.367a3.94,3.94,0,0,0,.679.483c.082.048.159.084.232.119q.149.106.3.21a3.087,3.087,0,0,0-.617.074,7.459,7.459,0,0,0-.736.166,1.814,1.814,0,0,0,.761-.01,3.307,3.307,0,0,1,.658-.025,2.206,2.206,0,0,1,.323.056,20.955,20.955,0,0,0,6.667,2.849c.294.273.434.612.752.974.169.19.358.432.506.637a2.232,2.232,0,0,0,.969.749c-.1-.006-.2-.015-.3-.019a11.283,11.283,0,0,0-3-1.326,9.269,9.269,0,0,0-1.425-.386,6.131,6.131,0,0,0-1.727,0h0l-.141.015c-.077,0-.161,0-.266-.007a3.75,3.75,0,0,1-1.207-.28,1.066,1.066,0,0,0,.149-.064,2.638,2.638,0,0,0-.354-1.028,2.5,2.5,0,0,0-.841-.809,2.4,2.4,0,0,0-.483-.227,1.768,1.768,0,0,1-.634-.431c.2.343.13.68.294,1.114.077.191.161.432.233.632a1.341,1.341,0,0,0,.755.778,1.27,1.27,0,0,0,.635.09l.022.014a3.143,3.143,0,0,0,.817.334c-.389.06-.81.135-1.185.211a.832.832,0,0,0-.354-.306,1.439,1.439,0,0,0-.763-.119,1.874,1.874,0,0,0-.745.254,3.493,3.493,0,0,0-.463.336,2.291,2.291,0,0,1-.368.285.654.654,0,0,1-.3.085.633.633,0,0,1-.478-.2,1.948,1.948,0,0,0,.5.513,1.3,1.3,0,0,0,.719.257,7.219,7.219,0,0,0,.787-.046,1.638,1.638,0,0,0,.507-.127,1.482,1.482,0,0,0,.339-.2,3.18,3.18,0,0,1,.7-.519.478.478,0,0,0-.012-.053l.377-.05a5.657,5.657,0,0,0-.559.346c-.256.181-.434.346-.416.37a1.9,1.9,0,0,0,.5-.235c.271-.144.607-.31.857-.425l.132-.063a7.621,7.621,0,0,1,.861-.081,2.216,2.216,0,0,0-.444.26,1.2,1.2,0,0,0-.484.578,7.089,7.089,0,0,1,.572-.446,3.229,3.229,0,0,1,1.049-.381,8.377,8.377,0,0,1,2.154.405,10.281,10.281,0,0,1,1.918.938c-.211.01-.423.019-.634.037a.168.168,0,0,0-.2.014,15.824,15.824,0,0,0-3.324.38c-.882.2-1.757.444-2.656.564a8.527,8.527,0,0,1-2.418-.019c-.133-.02-.264-.049-.4-.076a2.158,2.158,0,0,1-.625-.521,2.615,2.615,0,0,0,.173-.941,2.874,2.874,0,0,0-.375-1.342c-.216-.427-.465-.446-.8-1.175a4.944,4.944,0,0,1-.145,1.227c-.012.219-.044.485-.076.7a1.634,1.634,0,0,0,.244,1.107,1.475,1.475,0,0,0,.864.655c.01-.017.016-.036.025-.053a1.956,1.956,0,0,0,.166.2L557.1-23.6c-.144-.04-.288-.081-.43-.128-.036-.024-.074-.049-.113-.078a2.838,2.838,0,0,1-.631-.625,2.779,2.779,0,0,1-.414-.836,2.954,2.954,0,0,1-.12-.732c-.007-.188,0-.3-.006-.3a1.078,1.078,0,0,0-.037.3,2.665,2.665,0,0,0,.088.753,2.742,2.742,0,0,0,.406.875,2.8,2.8,0,0,0,.475.519c-.035-.013-.072-.024-.107-.037-.342-.164-.7-.355-1.075-.538-.13-.068-.266-.133-.4-.2a9.093,9.093,0,0,1-.825-.564c-.121-.129-.236-.267-.353-.4l-.3-.346a3.259,3.259,0,0,1-.237-.34c-.072-.117-.134-.231-.189-.34a3.209,3.209,0,0,0,.135-1.126,3.947,3.947,0,0,0-.4-1.45,2.718,2.718,0,0,0-.338-.532,2.521,2.521,0,0,1-.395-.8,8.169,8.169,0,0,1-.209,1.351c-.016.243-.049.538-.077.781a1.878,1.878,0,0,0,.3,1.232,1.573,1.573,0,0,0,.869.673c.042.1.088.2.142.3a3.21,3.21,0,0,0,.229.375l.118.155c-.1-.03-.2-.059-.307-.085a2.568,2.568,0,0,0-1.4-.893,3.657,3.657,0,0,0-2.166.084,2.4,2.4,0,0,0-.716.395c-.207.159-.454.334-.894.611a3.721,3.721,0,0,1,1.614-.064,4.355,4.355,0,0,1,.878.136,4.16,4.16,0,0,0,1.411.109,3.4,3.4,0,0,0,1.042-.252c.206.075.436.156.611.22.064.022.114.039.159.053l.046.042a3.292,3.292,0,0,0,.582.619,2.412,2.412,0,0,0,.228.147A1.505,1.505,0,0,0,554-24.5a1.889,1.889,0,0,0-.81.375,3.076,3.076,0,0,0-.538.543c-.311.4-.228.627-.685,1.29.326-.294.7-.282,1.14-.465a4.715,4.715,0,0,1,.661-.211c.014,0,.024-.008.038-.012a1.774,1.774,0,0,0-.49.653,2.038,2.038,0,0,0-.167.857,1.491,1.491,0,0,0,.157.624,4.75,4.75,0,0,1,.281.794,2.306,2.306,0,0,1,.445-1.093,1.714,1.714,0,0,1,.37-.482,2.841,2.841,0,0,0,.757-1.284l.11-.014a5.064,5.064,0,0,0,.877-.208,2.211,2.211,0,0,1,.668-.13,3.535,3.535,0,0,0,.734.177,3.1,3.1,0,0,0-.66.542c-.035.038-.067.076-.1.113a2,2,0,0,0-1.1.706,2.628,2.628,0,0,0-.576,1.666,1.8,1.8,0,0,0,.132.673,7.3,7.3,0,0,1,.258.867c0-.471.27-.757.488-1.2a3.115,3.115,0,0,1,.4-.593,2.387,2.387,0,0,0,.5-1.007,2.359,2.359,0,0,0,.018-1.025q.046-.042.1-.086a4.086,4.086,0,0,1,.877-.58c.073-.036.133-.063.187-.088a10.378,10.378,0,0,0,3.257-.035,3.594,3.594,0,0,0-.33.294c-.373.377-.317.613-.874,1.242a3.818,3.818,0,0,1,1.239-.374,5.181,5.181,0,0,1,.711-.158,1.969,1.969,0,0,0,1.566-1.361,18.305,18.305,0,0,1,2.205.034,4.686,4.686,0,0,1-.96.749,6.717,6.717,0,0,1-2.381.739,11.816,11.816,0,0,0-1.779.387l-.017-.039a5.612,5.612,0,0,0-.552.262l-.018.01c-.045.022-.091.043-.136.066h0a2.268,2.268,0,0,1-.315.156,2,2,0,0,1-.649.142,1.932,1.932,0,0,1-.7-.1c-.431-.142-.7-.4-.734-.37s.18.365.643.59a1.909,1.909,0,0,0,.567.172,1.769,1.769,0,0,0-.9.647,2.182,2.182,0,0,0-.389,1.606,1.538,1.538,0,0,0,.226.606c.108.181.225.392.4.744-.085-.419.142-.714.292-1.126a2.337,2.337,0,0,1,.312-.556,1.838,1.838,0,0,0,.185-.308c.091.307.208.506.242.492a4.035,4.035,0,0,0-.062-.741c-.005-.088-.009-.181-.009-.275.005-.028.013-.055.017-.083a2.51,2.51,0,0,0,.022-.292.981.981,0,0,1,.269-.442c.089-.092.17-.165.234-.227l-.006-.007c.234-.156.465-.293.675-.406s.366-.189.5-.254c.284-.031.572-.044.857-.058a14.068,14.068,0,0,0,3.46-.5,6.151,6.151,0,0,0,2.44-1.373c.686.115,1.367.258,2.047.411a6.594,6.594,0,0,1,1.732,1.114,6.619,6.619,0,0,1,1.4,1.78c.089.318.157.643.215.97a2.573,2.573,0,0,0-1.626-.844,1.75,1.75,0,0,0-.716.063c-.222.063-.48.124-.906.219.485,0,.771.3,1.2.556a2.633,2.633,0,0,1,.547.468,2.85,2.85,0,0,0,.9.671,3.071,3.071,0,0,0,.774.253c0,.009,0,.018,0,.026a19.127,19.127,0,0,1-.788,6.961c-.883,1.975-2.567,3.876-4.686,4.275l-1.137.223Zm5.279-24.145c.019.028.033.059.054.085l.013-.007-.039.134c-.075.239-.147.5-.219.757-.02-.174-.045-.36-.073-.543A1.444,1.444,0,0,0,586.608-30.089Zm-3.212.712c.006.049.014.1.023.145-.068.1-.14.2-.215.3A2.613,2.613,0,0,0,583.4-29.377Zm.849-10.366a1.953,1.953,0,0,0,.412-.562,3.565,3.565,0,0,1-.133.773c-.087.061-.169.125-.245.189s-.146.13-.209.192A5.664,5.664,0,0,0,584.245-39.744Zm-1.1,2.531a6.188,6.188,0,0,1,1.191-1.7,1.362,1.362,0,0,0-.059.825,1.778,1.778,0,0,0,.18.459c-.117.173-.254.357-.409.547a8.9,8.9,0,0,0-.954,1.376c-.084.152-.16.306-.232.46-.045.062-.083.119-.116.17l.031.021c-.028.065-.055.129-.081.193A10.041,10.041,0,0,1,583.146-37.213Zm-1.531,2.364c.012-.023.024-.044.035-.068.009.056.019.114.027.169C581.656-34.781,581.635-34.815,581.615-34.849Zm.279,8.026c-.315.162-.689.307-1.045.45l.023-.021,1.187-1.087.154-.144A1.7,1.7,0,0,0,581.893-26.823Zm.318-2.949a2.232,2.232,0,0,0,.644,1.257,11.8,11.8,0,0,1-.922.9l-1.2,1.072-.348.312A10.289,10.289,0,0,0,582.212-29.771Zm-21.691-.075.011-.011.042.036Zm-4.474,6.419a6.744,6.744,0,0,1-.785.257l.014-.036a.96.96,0,0,0-.656-.139c-.04,0-.081.015-.121.023.022-.018.046-.035.067-.053a2.13,2.13,0,0,1,.729-.485.5.5,0,0,0-.041-.151c.34.18.672.359,1,.511C556.181-23.476,556.113-23.451,556.048-23.426Zm3.015,2.81c-.005-.02-.01-.04-.016-.06.03,0,.06,0,.089,0C559.111-20.659,559.087-20.637,559.062-20.616Zm8.88-11.372,0,0-.042-.074c-.075-.147-.149-.3-.218-.445l.019,0-.043-.336c-.006-.046-.011-.1-.016-.145a3.055,3.055,0,0,0,.582-1.065,3.939,3.939,0,0,0,.143-1.574,2.633,2.633,0,0,0-.145-.635,3.3,3.3,0,0,1-.082-.33l.176.011a8.818,8.818,0,0,1,1.106.1,4.041,4.041,0,0,1,.886.3c.37.322.755.631,1.139.931l-.113,0c-.557-.14-1.212-.247-1.751-.384a11.94,11.94,0,0,1-1.174-.4,2.99,2.99,0,0,0,1.13.557c.31.1.655.181,1,.262-.24.006-.486.011-.707.011a3.74,3.74,0,0,0-.774.027,2.56,2.56,0,0,0,.768.131,10.69,10.69,0,0,0,1.371.031l.122-.007c.125.034.246.068.355.1.15.047.275.093.383.135.395.3.781.6,1.14.9a7.659,7.659,0,0,1,2.869,4.077c.036.157.064.317.087.477-.035-.042-.072-.084-.113-.127a4.576,4.576,0,0,0-.833-1.171,6.773,6.773,0,0,0-2.243-1.348l-.2-.085c.01-.015.023-.03.032-.046a12.49,12.49,0,0,0-1.031-.709,7.024,7.024,0,0,0-1.345-.614,10.724,10.724,0,0,1-1.527-.4c.4.284.507.679.891,1.1l.569.62a1.843,1.843,0,0,0,1.318.561,1.4,1.4,0,0,0,.94-.326l.256.121a6.846,6.846,0,0,1,2.119,1.348,4.155,4.155,0,0,1,.3.354,3.666,3.666,0,0,0-1.169-.448,3.524,3.524,0,0,0-1.249-.015,1.13,1.13,0,0,0-.378-.157,1.846,1.846,0,0,0-.649-.015,1.962,1.962,0,0,0-.645.219,4.1,4.1,0,0,0-.49.327c-.157.115-.245.223-.381.339a.958.958,0,0,1-.267.162.894.894,0,0,1-.332.062A8.691,8.691,0,0,1,567.942-31.988Zm4.423,8.053c-.567-.124-1.139-.219-1.715-.289.022-.006.045-.011.066-.019a2.782,2.782,0,0,0-.693-1.214,3.913,3.913,0,0,0-1.416-.939l-.091-.036q.461.075.925.13a8.6,8.6,0,0,0,1.725.233,6.81,6.81,0,0,1,1.295,2.156Zm3.766-3.57a1.463,1.463,0,0,0-.065-.147,1.679,1.679,0,0,0-1.222-.869,1.22,1.22,0,0,0-.592.051c-.185.059-.4.118-.724.211.363.006.541.293.811.53a1.491,1.491,0,0,1,.316.421,1.312,1.312,0,0,0,.548.568,2.428,2.428,0,0,0,.655.247c-.236.637-.562,1.239-.829,1.866-.039.093-.075.186-.11.279a5.038,5.038,0,0,1-1.743-1.719,10.7,10.7,0,0,0-1.686-2.182c-.39-.336-.84-.594-1.252-.9-.147-.11-.287-.227-.423-.348.114.048.222.1.338.143a1.793,1.793,0,0,0,.664.142c.229,0,.5-.009.724-.017a1.463,1.463,0,0,0,.927-.374,2.608,2.608,0,0,0,.5-.662,3.358,3.358,0,0,1,1.084.063,3.548,3.548,0,0,1,1.42.68,3.316,3.316,0,0,1,.3.266,4.233,4.233,0,0,1,.315.913,4.6,4.6,0,0,1,.086.58C576.158-27.677,576.145-27.591,576.131-27.505Zm.083-5.162c-.018.072-.034.144-.051.216a11.477,11.477,0,0,0-1.985-1.841,23.069,23.069,0,0,0-2.062-1.5L572-35.867c-.018-.022-.036-.043-.055-.067-.044-.057-.088-.119-.132-.183l-.023-.057a5.811,5.811,0,0,1-.354-1.465c.028.027.056.054.086.078a3.152,3.152,0,0,0,.7-1.179,3.664,3.664,0,0,0,.179-.777c.08.051.163.1.256.152a3.025,3.025,0,0,1,.535.37,1.874,1.874,0,0,0,1.77.333,13.9,13.9,0,0,1,1.571,1.314l.389.388.025-.024c.055.287.1.564.134.818l.05.375c-.088.393-.2.782-.322,1.17a2.566,2.566,0,0,0-.933-1.267c-.424-.313-.647-.228-1.352-.628.327.3.345.675.543,1.108a3.72,3.72,0,0,1,.218.653,1.967,1.967,0,0,0,1.147,1.329C576.351-33.174,576.278-32.921,576.214-32.668Zm.416,9.01c-.028.046-.056.094-.084.142.226-1,.766-2,.913-3.01a9.372,9.372,0,0,0,.091-1.526l.025.026a2.846,2.846,0,0,0,.81-1.032,3.816,3.816,0,0,0,.35-1.51,2.6,2.6,0,0,0-.058-.639,2.76,2.76,0,0,1-.005-.9c-.165.453-.5.664-.785,1.128-.125.209-.29.456-.43.656a1.72,1.72,0,0,0-.167.295,7.476,7.476,0,0,0-.5-1.4,8.584,8.584,0,0,0,.8-2.139c.135-.513.261-1.036.355-1.563a3.849,3.849,0,0,1,.562,1.121,3.576,3.576,0,0,1,.232.734,2.837,2.837,0,0,0,.5,1.11,2.641,2.641,0,0,0,.7.67,8.645,8.645,0,0,1,.08.912,8.234,8.234,0,0,1-.062,1.356,11.265,11.265,0,0,1-.255,1.275c-.017.074-.031.144-.043.212-.033.051-.064.1-.1.153C578.649-26.232,577.486-25.057,576.63-23.658Zm1.051,1.384-.074.03c-.03.013-.059.03-.089.044l-.335.152a5.724,5.724,0,0,1,.7-1.357c.058-.044.12-.089.185-.136a9.884,9.884,0,0,1,1.361-.821,9.727,9.727,0,0,1,1.553-.613c.065-.019.127-.036.191-.054a.53.53,0,0,1,.082.038c.066.041.122.086.187.129a1.079,1.079,0,0,0,.543.184,1.386,1.386,0,0,0,.409-.029c-.662.4-1.34.781-2.025,1.138C579.486-23.112,578.586-22.687,577.681-22.275Zm7.468.128c-.139.012-.265.028-.386.046a15.376,15.376,0,0,0-1.832-.23,11.5,11.5,0,0,0-1.521.015,17.482,17.482,0,0,0,2.476-1.635,2.383,2.383,0,0,0,1.169.3,3.011,3.011,0,0,0,1.488-.418c.456-.251.467-.5,1.19-.918a4.2,4.2,0,0,1-1.292-.019,5.986,5.986,0,0,1-.729-.045,1.764,1.764,0,0,0-.586.026,16.423,16.423,0,0,0,1.392-1.5,18.438,18.438,0,0,1,2.532-.745c.16-.034.311-.064.457-.092a3.225,3.225,0,0,0,1.031.353,3.187,3.187,0,0,0,.77.029c-.15.235-.363.424-.566.693a3.518,3.518,0,0,1-.5.52,2.3,2.3,0,0,0-.78,1.872c-.254.207-.56.452-.91.692a6.347,6.347,0,0,1-1.268.694c-.247.066-.451.13-.62.185l0,.011A10.911,10.911,0,0,1,585.149-22.146Z" transform="translate(-547.727 47.685)" fill="#fff"/>
    </clipPath>
  </defs>
  <g id="Group_269" data-name="Group 269" transform="translate(-159 -689)">
    <circle id="Ellipse_16" data-name="Ellipse 16" cx="35" cy="35" r="35" transform="translate(159 689)" fill="#8dc540"/>
    <g id="Group_268" data-name="Group 268" transform="translate(-380.727 750.685)">
      <path id="Path_494" data-name="Path 494" d="M581.329-5.944a4.586,4.586,0,0,1-3.536-2.725l0,0a14.483,14.483,0,0,1-.561-6.793,11.347,11.347,0,0,1,.695-3.359,4.538,4.538,0,0,1,1.7-2.092c.106-.027.212-.055.318-.079a10.323,10.323,0,0,1,4.662.057l.1.026a3.789,3.789,0,0,0,.322.9,4.151,4.151,0,0,0,.9,1.134,2.918,2.918,0,0,0,.5.365,2.253,2.253,0,0,1,.631.613,11.333,11.333,0,0,1-.259-1.338c-.073-.232-.152-.519-.22-.755a1.6,1.6,0,0,0-.135-.332c.836.338,1.65.736,2.457,1.134a27.8,27.8,0,0,0,4.392,1.842c.26.077.523.147.786.213a2.93,2.93,0,0,0,.356.753,2.537,2.537,0,0,0,.879.761,2.446,2.446,0,0,0,.492.2,1.736,1.736,0,0,1,.65.408c-.216-.337-.155-.678-.34-1.107-.086-.188-.182-.426-.265-.623-.006-.016-.015-.031-.022-.047q.347.051.7.088a4.652,4.652,0,0,0,1.294.485,4.333,4.333,0,0,0,2.328-.137,2.335,2.335,0,0,0,.773-.451c.213-.182.475-.39.867-.769a1.606,1.606,0,0,1-.788.265c-.272.025-.553.01-.884.013a4.249,4.249,0,0,1-.947-.115,4.374,4.374,0,0,0-1.6-.066,2.918,2.918,0,0,0-1.039.341,21.239,21.239,0,0,1-6.1-2.57c.352.035.721.056,1.1.057.081,0,.162,0,.244,0l.431.09,1.9.387a1.83,1.83,0,0,0,.849.853,2.319,2.319,0,0,0,1.662.146,1.63,1.63,0,0,0,.581-.3,7.451,7.451,0,0,1,.714-.476c-.421.128-.746-.063-1.193-.16a2.63,2.63,0,0,1-.619-.234,2.045,2.045,0,0,0-1.006-.231,2.251,2.251,0,0,0-.976.241c-.457-.125-.99-.259-1.46-.362.353-.032.7-.078,1.019-.138.24-.044.469-.094.682-.147a2.4,2.4,0,0,0,1.1.166,2.526,2.526,0,0,0,.788-.188,2.281,2.281,0,0,0,.425-.227,1.7,1.7,0,0,0,.371-.342,1.276,1.276,0,0,0,.268-.653,7.756,7.756,0,0,1,.166-.865,1.82,1.82,0,0,1-.944.727,1.141,1.141,0,0,1-.562.1,1.711,1.711,0,0,0-.553.077,2.065,2.065,0,0,0-.532.249,1.782,1.782,0,0,0-.708.858c-.17.033-.347.065-.532.093a12.443,12.443,0,0,1-1.78.137l-.118-.021,0,.021c-.072,0-.145,0-.217,0a12.4,12.4,0,0,1-1.585-.134l-.354-.209a15.847,15.847,0,0,0-2.6-1.353,9.66,9.66,0,0,0-1.1-.321A4.86,4.86,0,0,0,587-22.088l.037-.013c.155-.043.329-.09.533-.14a15.343,15.343,0,0,1,2.517-.4,3,3,0,0,0,1.11.45,5.75,5.75,0,0,0,1.686.007c.262-.024.423-.073.64-.107a1.339,1.339,0,0,1,.949.208c-.215-.2-.385-.368-.582-.541a2.445,2.445,0,0,0-.718-.457c-.268-.108-.591-.222-.85-.314a2.192,2.192,0,0,0-.7-.125,2.753,2.753,0,0,0-.676.086,2.109,2.109,0,0,0-.974.526,13.341,13.341,0,0,0-1.667.17c.136-.091.267-.185.389-.28a9.766,9.766,0,0,0,.811-.7,2.022,2.022,0,0,0,1.232-.565,2.717,2.717,0,0,0,.806-1.517,1.873,1.873,0,0,0,0-.675c-.022-.147-.044-.311-.056-.534a5.388,5.388,0,0,0,.554-.093,2.68,2.68,0,0,0,.59-.22,2.523,2.523,0,0,1,.86-.22,7.936,7.936,0,0,1-1.272-.485c-.233-.066-.513-.161-.743-.24a1.867,1.867,0,0,0-1.261.028,1.553,1.553,0,0,0-.867.752c-.1.016-.212.032-.322.052a15.226,15.226,0,0,0-2.244.574,15.628,15.628,0,0,0,1-1.466c.081-.079.165-.162.266-.246a6.791,6.791,0,0,1,1.473-.98,7.006,7.006,0,0,1,1.765-.6c.174-.034.342-.059.5-.078a3.9,3.9,0,0,0,1.051.606,5,5,0,0,0,1.457.3,3.282,3.282,0,0,0,.632-.02,2.232,2.232,0,0,1,.9.114c-.431-.24-.61-.6-1.08-.923l-.684-.456a1.874,1.874,0,0,0-1.306-.277,1.561,1.561,0,0,0-.9.444,6.056,6.056,0,0,0-.612.055,6.688,6.688,0,0,0-1.859.55,6.6,6.6,0,0,0-1.136.67c.1-.2.2-.408.3-.617.077-.175.148-.354.219-.532.112-.186.224-.374.332-.564a13.16,13.16,0,0,1,.822-1.316l.007.011c.086-.051.191-.115.328-.188a5.361,5.361,0,0,1,.838-.364.965.965,0,0,0-.041.151,12.938,12.938,0,0,0,1.329.21c.25.032.487.054.735.072l.788.065a4.519,4.519,0,0,0,.686,0,2.96,2.96,0,0,1,.978.13c-.484-.24-.688-.625-1.225-.964-.243-.149-.548-.328-.818-.46a1.946,1.946,0,0,0-1.583-.033,1.588,1.588,0,0,0-.732.6,4.607,4.607,0,0,0-.928.33c.05-.055.1-.109.152-.162a5.621,5.621,0,0,1,1.053-.828l0,.006.078-.057a5.808,5.808,0,0,1,.733-.363,3.2,3.2,0,0,1,.789-.149,4.174,4.174,0,0,1,1.192.114c.113.027.219.057.322.087a3.113,3.113,0,0,0,.664.714,2.694,2.694,0,0,0,.59.351,4.913,4.913,0,0,0,.687.239,1.478,1.478,0,0,0,.663.025,2.607,2.607,0,0,0,.354-.081,1.061,1.061,0,0,0,.393-.209.422.422,0,0,1-.445-.089c-.131-.1-.24-.247-.4-.4-.074-.07-.152-.155-.234-.247l-.249-.277a1.665,1.665,0,0,0-1.072-.539,1.417,1.417,0,0,0-1.071.305c0,.009.011.017.015.025-.057-.019-.113-.038-.174-.056a4.015,4.015,0,0,0-1.242-.167,3.2,3.2,0,0,0-.721.108.1.1,0,0,0-.031,0l.185-.141c.01.029.017.061.029.09a2.362,2.362,0,0,0,1.125-.925A3.3,3.3,0,0,0,594.209-37c.018-.6-.18-.734-.256-1.654a3.788,3.788,0,0,1-.612,1.288,4.721,4.721,0,0,1-.427.669,2.606,2.606,0,0,0-.467,2.086c-.127.088-.259.176-.383.269l-.833.6-.058.043a6.14,6.14,0,0,0-.555.411,3.25,3.25,0,0,0,.168-.409,3.452,3.452,0,0,0,.04-1.9c-.156-.6-.383-.675-.73-1.559a3.891,3.891,0,0,1-.206,1.457,4.8,4.8,0,0,1-.22.787,2.764,2.764,0,0,0,.2,2.34,7.361,7.361,0,0,0-.473.586c-.416.577-.747,1.208-1.127,1.807a14.089,14.089,0,0,1-1.221,1.652c-.284.33-.583.645-.892.948a7.409,7.409,0,0,0,.248-.763l.033-.126.03,0c0-.027,0-.06-.005-.092.115-.438.223-.876.323-1.277l.068-.278a2.542,2.542,0,0,0,.732-.771,3.018,3.018,0,0,0,.418-1.461c.027-.465-.136-.625-.137-1.273a2.147,2.147,0,0,0,.531-.073,1.179,1.179,0,0,0,.557-.338,1.688,1.688,0,0,0,.417-.645.417.417,0,0,1-.4.163,3.07,3.07,0,0,1-.484-.117,1.9,1.9,0,0,1-.521-.238,1.589,1.589,0,0,0-1.916.242,1.894,1.894,0,0,0,.872.81,1.983,1.983,0,0,0,.683.188c.058.006.117.009.178.01-.153.3-.407.507-.628.857a6.338,6.338,0,0,1-.425.592,1.658,1.658,0,0,0-.167.248,2.915,2.915,0,0,0-.349-.6c-.34-.438-.576-.419-1.185-.993a2.823,2.823,0,0,1,.277,1.242,3.444,3.444,0,0,1,.037.7,2.208,2.208,0,0,0,.783,1.759c.032.351.067.726.09,1.02.01.1.019.187.026.262a6.294,6.294,0,0,1-.544,1.384,20.235,20.235,0,0,1-2.378,1.841c.02-.025.042-.05.06-.076.271-.4.156-.616.431-1.273-.232.3-.57.323-.923.47a1.4,1.4,0,0,1-.52.106,1.39,1.39,0,0,0-.363.043,1.118,1.118,0,0,0-.157.057c-.052.02-.1.049-.169.08a1.734,1.734,0,0,0-.483.3.7.7,0,0,0-.177.252.488.488,0,0,0-.026.128l-.083.018a8.651,8.651,0,0,0-1.626.563c-.228.105-.447.221-.657.34.183-.188.37-.372.553-.559l.018-.019,1.125-1.023c.478-.239,1.158-.483,1.673-.8l0,0a1.655,1.655,0,0,0,1.033.006,1.918,1.918,0,0,0,1.061-.878c.233-.4.129-.614.389-1.275-.224.306-.562.322-.923.5a2.637,2.637,0,0,1-.555.191,1.322,1.322,0,0,0-.452.2,7.31,7.31,0,0,0,.579-.638,7.329,7.329,0,0,0,.426-.6,2.35,2.35,0,0,0,1.112-1.055,3.54,3.54,0,0,0,.387-2.089c-.075-.674-.3-.769-.517-1.783a4.965,4.965,0,0,1-.4,1.567,4.684,4.684,0,0,1-.328.817,3.9,3.9,0,0,0-.319.877,3.746,3.746,0,0,0-.2-.707,7.828,7.828,0,0,0-.714-1.123c.019-.443.032-.886.053-1.328.013-.046.025-.09.04-.139a8.575,8.575,0,0,1,.356-.949c.046-.061.1-.127.158-.2a5.468,5.468,0,0,1,1.307-1.148,6.952,6.952,0,0,1,.748-.4c.366.168.736.308,1.076.438a7.9,7.9,0,0,0,1.448.355,10.451,10.451,0,0,1,1.59.136c-.454-.212-.629-.585-1.089-.934-.209-.156-.463-.353-.685-.511-.012-.009-.026-.016-.038-.025.168-.038.336-.083.5-.14a2.721,2.721,0,0,0,.529-.254,2.058,2.058,0,0,1,.8-.249,10.032,10.032,0,0,1-1.215-.432c-.224-.051-.5-.124-.725-.181a1.624,1.624,0,0,0-1.2.17,1.366,1.366,0,0,0-.683.88c.057.029.118.051.178.076a1.135,1.135,0,0,0-.583.63,3.808,3.808,0,0,0-.739.3,4.7,4.7,0,0,0-.995.713,10.83,10.83,0,0,1,.744-1.1c.134-.179.255-.355.359-.523a1.828,1.828,0,0,0,.212.268,1.5,1.5,0,0,0,.788-.865,1.841,1.841,0,0,0-.073-1.4c-.014-.031-.029-.055-.044-.082a4.853,4.853,0,0,1,1.148-.111c.5.01.874.106.883.072a2.137,2.137,0,0,0-.873-.23,4.066,4.066,0,0,0-1.044.027,5.015,5.015,0,0,1,1.139-.3l1,.208a4.118,4.118,0,0,0,.7.067,5.068,5.068,0,0,0,.8-.048,1.987,1.987,0,0,0,.642-.211c.2-.1.44-.2.815-.376a1.044,1.044,0,0,1-.608-.069c-.192-.073-.383-.176-.627-.26-.221-.076-.488-.193-.717-.3a1.793,1.793,0,0,0-1.382-.014,1.421,1.421,0,0,0-.568.408.966.966,0,0,0-.206.44,4.749,4.749,0,0,0-1.091.266c-.086.033-.169.07-.251.108l-.062-.063a4.678,4.678,0,0,1-.409-.442,3.17,3.17,0,0,0,.212-.64A3.5,3.5,0,0,0,584.742-43a2.3,2.3,0,0,0-.382-.65,6.781,6.781,0,0,1-.561-.839,3.826,3.826,0,0,1,0,1.5,4.663,4.663,0,0,1-.122.824,3.007,3.007,0,0,0,.4,2.318,6.291,6.291,0,0,1-.466,1.182c-.054.106-.1.194-.148.272a9.7,9.7,0,0,0-1.536,3.849c-.041-.28-.1-.573-.15-.867a2.51,2.51,0,0,0-.031-.776,2.4,2.4,0,0,0-.2-.593c0-.039-.012-.079-.016-.117.031.025.061.049.093.071a4.175,4.175,0,0,0,.484-1.475,6.924,6.924,0,0,0,0-1.9,3.723,3.723,0,0,0-.173-.738,3.424,3.424,0,0,1-.143-1.055,14.265,14.265,0,0,1-.6,1.569c-.083.286-.2.629-.288.911a2.706,2.706,0,0,0-.027,1.552,2.456,2.456,0,0,0,.184.472c-.07-.076-.141-.15-.216-.217a1.925,1.925,0,0,0-.591-.358,6.2,6.2,0,0,1-.819-.418c.351.332.378.733.573,1.206a3.6,3.6,0,0,1,.2.712,2.436,2.436,0,0,0,.475,1.066,2.383,2.383,0,0,0,.65.591,6.045,6.045,0,0,0,.379.612l.034.047c.016.14.029.276.035.4,0,.009,0,.017,0,.026-.117.589-.222,1.17-.34,1.717a13.108,13.108,0,0,1-1.418,3.776,7.287,7.287,0,0,0,.145-.878,7.423,7.423,0,0,0,.015-1.39,6.861,6.861,0,0,0-.119-.834c.025.013.048.03.073.042a2.131,2.131,0,0,0,.169-1.468,2.961,2.961,0,0,0-.973-1.611,1.992,1.992,0,0,0-.626-.365,7.631,7.631,0,0,1-.753-.346,7.251,7.251,0,0,0-.029-3.075,3.949,3.949,0,0,0,.616-1.01,5.16,5.16,0,0,0,.357-1.557,3.217,3.217,0,0,0-.014-.663,2.567,2.567,0,0,1,.1-.936c-.23.46-.592.663-.915,1.153-.14.221-.32.485-.466.705a1.949,1.949,0,0,0-.291.7c-.185-.4-.374-.807-.53-1.214-.006-.1-.013-.213-.013-.358a4.638,4.638,0,0,1,.257-1.52c.032-.093.066-.178.1-.258a3,3,0,0,0,1.177-.347,3.722,3.722,0,0,0,1.095-.915,2.691,2.691,0,0,0,.334-.509,2.3,2.3,0,0,1,.561-.658A8.714,8.714,0,0,1,579-45.32c-.223.078-.5.162-.728.233a1.745,1.745,0,0,0-.97.766,1.513,1.513,0,0,0-.227.937,3.38,3.38,0,0,0-.2.382,4,4,0,0,0-.3,1.1l-.044-.2-.022-.1q-.008-.2,0-.391c.035-.165.078-.365.142-.61a7.261,7.261,0,0,1,.414-1.2,5.026,5.026,0,0,1,.4-.712.547.547,0,0,1,.14-.071,1.669,1.669,0,0,1,.239-.033,1.831,1.831,0,0,0,.272-.048,2.93,2.93,0,0,0,.317-.113,2.932,2.932,0,0,0,1.208-1.023,2.074,2.074,0,0,0,.275-.571,1.556,1.556,0,0,1,.5-.724,4,4,0,0,1-.63.252,4.716,4.716,0,0,0-.648.246,5.167,5.167,0,0,1-.676.27,1.962,1.962,0,0,0-.943.675c-.03.039-.058.078-.086.12a1.7,1.7,0,0,0-.1.145,1.251,1.251,0,0,0-.143.337.561.561,0,0,0,.075.5,4.85,4.85,0,0,0-.394.666,6.431,6.431,0,0,0-.406,1.091.1.1,0,0,0-.007.013,3.512,3.512,0,0,0-.093.382c-.013.057-.025.111-.035.162-.034-.106-.072-.213-.118-.319a2.14,2.14,0,0,0-.312-.516,5.035,5.035,0,0,0-.394-.4c-.147-.141-.283-.269-.406-.384a1.51,1.51,0,0,0-.384-.92,2.049,2.049,0,0,0-1.192-.644c-.446-.087-.613.086-1.331-.008.359.147.471.469.774.766a3.749,3.749,0,0,1,.4.471,1.384,1.384,0,0,0,.76.524,2.5,2.5,0,0,0,.949.044c.006-.023.008-.047.012-.07q.142.155.307.332c.12.13.25.263.361.408a2.037,2.037,0,0,1,.267.48,7.08,7.08,0,0,1,.282,1.023,35.951,35.951,0,0,0,.929,3.952,5.336,5.336,0,0,1,.011,1.6,9.965,9.965,0,0,0-.3-1.36,5.639,5.639,0,0,0-.766-1.607,3.66,3.66,0,0,0-.386-.463c.038-.013.078-.021.114-.037a2.6,2.6,0,0,0-.872-1.142,4.063,4.063,0,0,0-.7-.434c-.1-.054-.2-.1-.287-.148a3.325,3.325,0,0,1-.289-.18c-.2-.141-.351-.228-.536-.349a2.737,2.737,0,0,1-.683-.667,2.264,2.264,0,0,1,.189.69,2.706,2.706,0,0,0,.211.791,3.608,3.608,0,0,0,.537.832,1.982,1.982,0,0,0,.6.462,2.544,2.544,0,0,0,.621.223,2.155,2.155,0,0,0,.963,0,3.877,3.877,0,0,1,.393.508,5.789,5.789,0,0,1,.7,1.577c.045.158.084.316.12.474-.056-.058-.117-.12-.187-.187a10.528,10.528,0,0,0-1.535-1.224l.012,0a1.776,1.776,0,0,0-.692-1.062,2.3,2.3,0,0,0-1.483-.446,1.644,1.644,0,0,0-.556.123c0-.079,0-.159,0-.238a2.866,2.866,0,0,0-.107-.661,2.889,2.889,0,0,1-.065-.937,8.371,8.371,0,0,1-.71,1.265c-.109.233-.254.51-.376.737a2.128,2.128,0,0,0-.22,1.32,1.86,1.86,0,0,0,.313.8c0,.033,0,.064,0,.1a4.5,4.5,0,0,0,.08.81,5.683,5.683,0,0,1-.347-.891c-.2-.653-.235-1.189-.27-1.186a3.321,3.321,0,0,0,.117,1.227,5.6,5.6,0,0,0,.686,1.638,17.858,17.858,0,0,1-1.843-1.118c-.085-.063-.168-.129-.249-.2a8.282,8.282,0,0,1-.659-.82,1.181,1.181,0,0,0,.233.166,2.613,2.613,0,0,0,.609-.988,2.9,2.9,0,0,0,.11-1.293,2.381,2.381,0,0,0-.139-.552,2.089,2.089,0,0,1-.1-.8c-.119.407-.424.6-.649,1.032-.1.194-.228.427-.337.619a1.515,1.515,0,0,0-.14,1.127c.006.025.015.048.022.072a4.939,4.939,0,0,1-.612-1.857c.008-.049.017-.1.031-.174a3.042,3.042,0,0,1,.277-.8c.125-.245.259-.418.235-.441s-.2.118-.37.358a2.148,2.148,0,0,0-.238.438c0-.1.008-.2.018-.3,0-.035.008-.067.011-.1.018.009.035.02.054.028.256-.316.49-.554.689-.806a2.486,2.486,0,0,0,.309-.519,3.534,3.534,0,0,0,.229-.675,1.59,1.59,0,0,0,.013-.618c-.031-.2-.053-.444-.115-.8a.742.742,0,0,1-.234.463c-.124.128-.274.24-.425.4a5.687,5.687,0,0,1-.5.45,1.493,1.493,0,0,0-.521,1.106,1.231,1.231,0,0,0,.144.621.87.87,0,0,0,.22.26c-.011.055-.023.11-.031.169a3.6,3.6,0,0,0-.049.49,2.414,2.414,0,0,0-.394-.5,2.712,2.712,0,0,0-1.366-.67c-.5-.1-.666.077-1.464-.032.41.159.57.5.934.81a4.711,4.711,0,0,1,.487.5,1.789,1.789,0,0,0,.941.567,3.145,3.145,0,0,0,.895.04,3.771,3.771,0,0,0,.158.734c.02.066.042.125.063.181a1.855,1.855,0,0,0-.44-.219,1.973,1.973,0,0,0-.927-.073,2.443,2.443,0,0,0-.818.285c-.479.267-.454.521-1.164.984a3.805,3.805,0,0,1,1.284-.05,2.537,2.537,0,0,1,.67.074,2.922,2.922,0,0,0,1.641-.117l.031.012a.686.686,0,0,1,.19.122,8.6,8.6,0,0,0,1.611,1.961,3.237,3.237,0,0,0-.4-.1,7.352,7.352,0,0,0-1.138-.059h-.205a3.24,3.24,0,0,1-.025-.425,1.592,1.592,0,0,1-.161.427,3.336,3.336,0,0,0-.86.075,5.655,5.655,0,0,0,.787.054,5.514,5.514,0,0,0-.389.692c-.095.228-.225.5-.336.721a1.919,1.919,0,0,0-.2.738l-.015-.022a2.3,2.3,0,0,0-.826-.73c-.016-.008-.031-.013-.047-.02a.74.74,0,0,0-.377-.532c-.21-.137-.431-.211-.549-.281a2.936,2.936,0,0,0-.448-.2l-.555-.189a3.165,3.165,0,0,0-.546-.12,2.076,2.076,0,0,1-.755-.3c.306.3.318.665.627,1.073.139.182.317.408.49.591a1.33,1.33,0,0,0,.579.36,1.366,1.366,0,0,0,.681.035c.315-.068.443-.243.7-.35.043.022.086.042.13.067a2.252,2.252,0,0,1,.732.708c.037.054.069.11.1.166.038.071.071.146.1.22,0,.018,0,.035.008.053a1.85,1.85,0,0,0,.244.633q.081.276.147.559a3.027,3.027,0,0,0-.338-.271,3.109,3.109,0,0,0-.846-.411,1.976,1.976,0,0,0-1.024-.09,7.523,7.523,0,0,1,.973.24,3.3,3.3,0,0,1,.777.429,3.189,3.189,0,0,1,.551.523c.027.125.054.249.082.372a7.351,7.351,0,0,0,.758,2.028c-.194-.164-.4-.319-.6-.464a10.76,10.76,0,0,0-1.571-.879,4.794,4.794,0,0,0-.688-.258,2.7,2.7,0,0,1-.912-.529c.382.45.48.9.909,1.431.2.23.434.512.639.736a2.427,2.427,0,0,0,1.4.754,1.876,1.876,0,0,0,1.219-.177c.048.066.1.132.147.2.217.271.45.527.687.781a8.339,8.339,0,0,1-1.137.085l-.722-.172-.95-.215a6.056,6.056,0,0,1-1-.268,2.478,2.478,0,0,1-.793-.644,7.766,7.766,0,0,1-.645-.8c-.13-.184-.245-.365-.349-.54a3.617,3.617,0,0,0,.028-1.317,5.081,5.081,0,0,0-.541-1.576,3.134,3.134,0,0,0-.382-.565,2.852,2.852,0,0,1-.453-.848,10.65,10.65,0,0,1-.1,1.494c0,.266,0,.59-.008.856a2.2,2.2,0,0,0,.42,1.322,1.818,1.818,0,0,0,.821.653,7.23,7.23,0,0,0,.372.654,7.356,7.356,0,0,0,.634.854,2.692,2.692,0,0,0,.872.74,3.307,3.307,0,0,0,.593.2c-.368-.055-.735-.118-1.1-.184a23.274,23.274,0,0,1-3.831-.951l-.332-.275a3.1,3.1,0,0,1-.619-.576,6.218,6.218,0,0,1-.353-.678c.02,0,.039.009.059.012a4.692,4.692,0,0,0,.066-1.361,5.234,5.234,0,0,0-.424-1.6c-.219-.527-.458-.575-.811-1.437a5.911,5.911,0,0,1-.132,1.459c-.012.262-.045.579-.071.844a2.123,2.123,0,0,0,.339,1.369,1.677,1.677,0,0,0,.77.656,6.217,6.217,0,0,0,.384.85,1.471,1.471,0,0,0,.116.151l-.063-.045c-.218-.149-.486-.289-.724-.466a2.42,2.42,0,0,1-.582-.647c-.294-.472-.4-.909-.43-.9a2.127,2.127,0,0,0,.294.978,2.5,2.5,0,0,0,.216.335c-.031-.028-.063-.054-.093-.084a4.34,4.34,0,0,1-.705-.879A8.142,8.142,0,0,1,557.643-33a1.016,1.016,0,0,0,.048.371,3.543,3.543,0,0,0,.328.863,3.95,3.95,0,0,0,.349.541.04.04,0,0,0,0,.061l.008.007-.02-.01c-.13-.064-.269-.124-.41-.179a1.518,1.518,0,0,0-.23-.081,1.224,1.224,0,0,0-.318-.5,1.9,1.9,0,0,0-.715-.425,2.087,2.087,0,0,0-1.012-.069,2.407,2.407,0,0,0-.9.357,1.673,1.673,0,0,0-.5.509,9.03,9.03,0,0,1-.556.738,2.431,2.431,0,0,1,1.271-.331,2.07,2.07,0,0,1,.689.022,3.154,3.154,0,0,0,1.015.04,6.261,6.261,0,0,0,.95-.186,1.459,1.459,0,0,1,.237.1c.127.058.257.121.387.192.241.126.471.25.666.367a3.94,3.94,0,0,0,.679.483c.082.048.159.084.232.119q.149.106.3.21a3.087,3.087,0,0,0-.617.074,7.459,7.459,0,0,0-.736.166,1.814,1.814,0,0,0,.761-.01,3.307,3.307,0,0,1,.658-.025,2.206,2.206,0,0,1,.323.056,20.955,20.955,0,0,0,6.667,2.849c.294.273.434.612.752.974.169.19.358.432.506.637a2.232,2.232,0,0,0,.969.749c-.1-.006-.2-.015-.3-.019a11.283,11.283,0,0,0-3-1.326,9.269,9.269,0,0,0-1.425-.386,6.131,6.131,0,0,0-1.727,0h0l-.141.015c-.077,0-.161,0-.266-.007a3.75,3.75,0,0,1-1.207-.28,1.066,1.066,0,0,0,.149-.064,2.638,2.638,0,0,0-.354-1.028,2.5,2.5,0,0,0-.841-.809,2.4,2.4,0,0,0-.483-.227,1.768,1.768,0,0,1-.634-.431c.2.343.13.68.294,1.114.077.191.161.432.233.632a1.341,1.341,0,0,0,.755.778,1.27,1.27,0,0,0,.635.09l.022.014a3.143,3.143,0,0,0,.817.334c-.389.06-.81.135-1.185.211a.832.832,0,0,0-.354-.306,1.439,1.439,0,0,0-.763-.119,1.874,1.874,0,0,0-.745.254,3.493,3.493,0,0,0-.463.336,2.291,2.291,0,0,1-.368.285.654.654,0,0,1-.3.085.633.633,0,0,1-.478-.2,1.948,1.948,0,0,0,.5.513,1.3,1.3,0,0,0,.719.257,7.219,7.219,0,0,0,.787-.046,1.638,1.638,0,0,0,.507-.127,1.482,1.482,0,0,0,.339-.2,3.18,3.18,0,0,1,.7-.519.478.478,0,0,0-.012-.053l.377-.05a5.657,5.657,0,0,0-.559.346c-.256.181-.434.346-.416.37a1.9,1.9,0,0,0,.5-.235c.271-.144.607-.31.857-.425l.132-.063a7.621,7.621,0,0,1,.861-.081,2.216,2.216,0,0,0-.444.26,1.2,1.2,0,0,0-.484.578,7.089,7.089,0,0,1,.572-.446,3.229,3.229,0,0,1,1.049-.381,8.377,8.377,0,0,1,2.154.405,10.281,10.281,0,0,1,1.918.938c-.211.01-.423.019-.634.037a.168.168,0,0,0-.2.014,15.824,15.824,0,0,0-3.324.38c-.882.2-1.757.444-2.656.564a8.527,8.527,0,0,1-2.418-.019c-.133-.02-.264-.049-.4-.076a2.158,2.158,0,0,1-.625-.521,2.615,2.615,0,0,0,.173-.941,2.874,2.874,0,0,0-.375-1.342c-.216-.427-.465-.446-.8-1.175a4.944,4.944,0,0,1-.145,1.227c-.012.219-.044.485-.076.7a1.634,1.634,0,0,0,.244,1.107,1.475,1.475,0,0,0,.864.655c.01-.017.016-.036.025-.053a1.956,1.956,0,0,0,.166.2L557.1-23.6c-.144-.04-.288-.081-.43-.128-.036-.024-.074-.049-.113-.078a2.838,2.838,0,0,1-.631-.625,2.779,2.779,0,0,1-.414-.836,2.954,2.954,0,0,1-.12-.732c-.007-.188,0-.3-.006-.3a1.078,1.078,0,0,0-.037.3,2.665,2.665,0,0,0,.088.753,2.742,2.742,0,0,0,.406.875,2.8,2.8,0,0,0,.475.519c-.035-.013-.072-.024-.107-.037-.342-.164-.7-.355-1.075-.538-.13-.068-.266-.133-.4-.2a9.093,9.093,0,0,1-.825-.564c-.121-.129-.236-.267-.353-.4l-.3-.346a3.259,3.259,0,0,1-.237-.34c-.072-.117-.134-.231-.189-.34a3.209,3.209,0,0,0,.135-1.126,3.947,3.947,0,0,0-.4-1.45,2.718,2.718,0,0,0-.338-.532,2.521,2.521,0,0,1-.395-.8,8.169,8.169,0,0,1-.209,1.351c-.016.243-.049.538-.077.781a1.878,1.878,0,0,0,.3,1.232,1.573,1.573,0,0,0,.869.673c.042.1.088.2.142.3a3.21,3.21,0,0,0,.229.375l.118.155c-.1-.03-.2-.059-.307-.085a2.568,2.568,0,0,0-1.4-.893,3.657,3.657,0,0,0-2.166.084,2.4,2.4,0,0,0-.716.395c-.207.159-.454.334-.894.611a3.721,3.721,0,0,1,1.614-.064,4.355,4.355,0,0,1,.878.136,4.16,4.16,0,0,0,1.411.109,3.4,3.4,0,0,0,1.042-.252c.206.075.436.156.611.22.064.022.114.039.159.053l.046.042a3.292,3.292,0,0,0,.582.619,2.412,2.412,0,0,0,.228.147A1.505,1.505,0,0,0,554-24.5a1.889,1.889,0,0,0-.81.375,3.076,3.076,0,0,0-.538.543c-.311.4-.228.627-.685,1.29.326-.294.7-.282,1.14-.465a4.715,4.715,0,0,1,.661-.211c.014,0,.024-.008.038-.012a1.774,1.774,0,0,0-.49.653,2.038,2.038,0,0,0-.167.857,1.491,1.491,0,0,0,.157.624,4.75,4.75,0,0,1,.281.794,2.306,2.306,0,0,1,.445-1.093,1.714,1.714,0,0,1,.37-.482,2.841,2.841,0,0,0,.757-1.284l.11-.014a5.064,5.064,0,0,0,.877-.208,2.211,2.211,0,0,1,.668-.13,3.535,3.535,0,0,0,.734.177,3.1,3.1,0,0,0-.66.542c-.035.038-.067.076-.1.113a2,2,0,0,0-1.1.706,2.628,2.628,0,0,0-.576,1.666,1.8,1.8,0,0,0,.132.673,7.3,7.3,0,0,1,.258.867c0-.471.27-.757.488-1.2a3.115,3.115,0,0,1,.4-.593,2.387,2.387,0,0,0,.5-1.007,2.359,2.359,0,0,0,.018-1.025q.046-.042.1-.086a4.086,4.086,0,0,1,.877-.58c.073-.036.133-.063.187-.088a10.378,10.378,0,0,0,3.257-.035,3.594,3.594,0,0,0-.33.294c-.373.377-.317.613-.874,1.242a3.818,3.818,0,0,1,1.239-.374,5.181,5.181,0,0,1,.711-.158,1.969,1.969,0,0,0,1.566-1.361,18.305,18.305,0,0,1,2.205.034,4.686,4.686,0,0,1-.96.749,6.717,6.717,0,0,1-2.381.739,11.816,11.816,0,0,0-1.779.387l-.017-.039a5.612,5.612,0,0,0-.552.262l-.018.01c-.045.022-.091.043-.136.066h0a2.268,2.268,0,0,1-.315.156,2,2,0,0,1-.649.142,1.932,1.932,0,0,1-.7-.1c-.431-.142-.7-.4-.734-.37s.18.365.643.59a1.909,1.909,0,0,0,.567.172,1.769,1.769,0,0,0-.9.647,2.182,2.182,0,0,0-.389,1.606,1.538,1.538,0,0,0,.226.606c.108.181.225.392.4.744-.085-.419.142-.714.292-1.126a2.337,2.337,0,0,1,.312-.556,1.838,1.838,0,0,0,.185-.308c.091.307.208.506.242.492a4.035,4.035,0,0,0-.062-.741c-.005-.088-.009-.181-.009-.275.005-.028.013-.055.017-.083a2.51,2.51,0,0,0,.022-.292.981.981,0,0,1,.269-.442c.089-.092.17-.165.234-.227l-.006-.007c.234-.156.465-.293.675-.406s.366-.189.5-.254c.284-.031.572-.044.857-.058a14.068,14.068,0,0,0,3.46-.5,6.151,6.151,0,0,0,2.44-1.373c.686.115,1.367.258,2.047.411a6.594,6.594,0,0,1,1.732,1.114,6.619,6.619,0,0,1,1.4,1.78c.089.318.157.643.215.97a2.573,2.573,0,0,0-1.626-.844,1.75,1.75,0,0,0-.716.063c-.222.063-.48.124-.906.219.485,0,.771.3,1.2.556a2.633,2.633,0,0,1,.547.468,2.85,2.85,0,0,0,.9.671,3.071,3.071,0,0,0,.774.253c0,.009,0,.018,0,.026a19.127,19.127,0,0,1-.788,6.961c-.883,1.975-2.567,3.876-4.686,4.275l-1.137.223Zm5.279-24.145c.019.028.033.059.054.085l.013-.007-.039.134c-.075.239-.147.5-.219.757-.02-.174-.045-.36-.073-.543A1.444,1.444,0,0,0,586.608-30.089Zm-3.212.712c.006.049.014.1.023.145-.068.1-.14.2-.215.3A2.613,2.613,0,0,0,583.4-29.377Zm.849-10.366a1.953,1.953,0,0,0,.412-.562,3.565,3.565,0,0,1-.133.773c-.087.061-.169.125-.245.189s-.146.13-.209.192A5.664,5.664,0,0,0,584.245-39.744Zm-1.1,2.531a6.188,6.188,0,0,1,1.191-1.7,1.362,1.362,0,0,0-.059.825,1.778,1.778,0,0,0,.18.459c-.117.173-.254.357-.409.547a8.9,8.9,0,0,0-.954,1.376c-.084.152-.16.306-.232.46-.045.062-.083.119-.116.17l.031.021c-.028.065-.055.129-.081.193A10.041,10.041,0,0,1,583.146-37.213Zm-1.531,2.364c.012-.023.024-.044.035-.068.009.056.019.114.027.169C581.656-34.781,581.635-34.815,581.615-34.849Zm.279,8.026c-.315.162-.689.307-1.045.45l.023-.021,1.187-1.087.154-.144A1.7,1.7,0,0,0,581.893-26.823Zm.318-2.949a2.232,2.232,0,0,0,.644,1.257,11.8,11.8,0,0,1-.922.9l-1.2,1.072-.348.312A10.289,10.289,0,0,0,582.212-29.771Zm-21.691-.075.011-.011.042.036Zm-4.474,6.419a6.744,6.744,0,0,1-.785.257l.014-.036a.96.96,0,0,0-.656-.139c-.04,0-.081.015-.121.023.022-.018.046-.035.067-.053a2.13,2.13,0,0,1,.729-.485.5.5,0,0,0-.041-.151c.34.18.672.359,1,.511C556.181-23.476,556.113-23.451,556.048-23.426Zm3.015,2.81c-.005-.02-.01-.04-.016-.06.03,0,.06,0,.089,0C559.111-20.659,559.087-20.637,559.062-20.616Zm8.88-11.372,0,0-.042-.074c-.075-.147-.149-.3-.218-.445l.019,0-.043-.336c-.006-.046-.011-.1-.016-.145a3.055,3.055,0,0,0,.582-1.065,3.939,3.939,0,0,0,.143-1.574,2.633,2.633,0,0,0-.145-.635,3.3,3.3,0,0,1-.082-.33l.176.011a8.818,8.818,0,0,1,1.106.1,4.041,4.041,0,0,1,.886.3c.37.322.755.631,1.139.931l-.113,0c-.557-.14-1.212-.247-1.751-.384a11.94,11.94,0,0,1-1.174-.4,2.99,2.99,0,0,0,1.13.557c.31.1.655.181,1,.262-.24.006-.486.011-.707.011a3.74,3.74,0,0,0-.774.027,2.56,2.56,0,0,0,.768.131,10.69,10.69,0,0,0,1.371.031l.122-.007c.125.034.246.068.355.1.15.047.275.093.383.135.395.3.781.6,1.14.9a7.659,7.659,0,0,1,2.869,4.077c.036.157.064.317.087.477-.035-.042-.072-.084-.113-.127a4.576,4.576,0,0,0-.833-1.171,6.773,6.773,0,0,0-2.243-1.348l-.2-.085c.01-.015.023-.03.032-.046a12.49,12.49,0,0,0-1.031-.709,7.024,7.024,0,0,0-1.345-.614,10.724,10.724,0,0,1-1.527-.4c.4.284.507.679.891,1.1l.569.62a1.843,1.843,0,0,0,1.318.561,1.4,1.4,0,0,0,.94-.326l.256.121a6.846,6.846,0,0,1,2.119,1.348,4.155,4.155,0,0,1,.3.354,3.666,3.666,0,0,0-1.169-.448,3.524,3.524,0,0,0-1.249-.015,1.13,1.13,0,0,0-.378-.157,1.846,1.846,0,0,0-.649-.015,1.962,1.962,0,0,0-.645.219,4.1,4.1,0,0,0-.49.327c-.157.115-.245.223-.381.339a.958.958,0,0,1-.267.162.894.894,0,0,1-.332.062A8.691,8.691,0,0,1,567.942-31.988Zm4.423,8.053c-.567-.124-1.139-.219-1.715-.289.022-.006.045-.011.066-.019a2.782,2.782,0,0,0-.693-1.214,3.913,3.913,0,0,0-1.416-.939l-.091-.036q.461.075.925.13a8.6,8.6,0,0,0,1.725.233,6.81,6.81,0,0,1,1.295,2.156Zm3.766-3.57a1.463,1.463,0,0,0-.065-.147,1.679,1.679,0,0,0-1.222-.869,1.22,1.22,0,0,0-.592.051c-.185.059-.4.118-.724.211.363.006.541.293.811.53a1.491,1.491,0,0,1,.316.421,1.312,1.312,0,0,0,.548.568,2.428,2.428,0,0,0,.655.247c-.236.637-.562,1.239-.829,1.866-.039.093-.075.186-.11.279a5.038,5.038,0,0,1-1.743-1.719,10.7,10.7,0,0,0-1.686-2.182c-.39-.336-.84-.594-1.252-.9-.147-.11-.287-.227-.423-.348.114.048.222.1.338.143a1.793,1.793,0,0,0,.664.142c.229,0,.5-.009.724-.017a1.463,1.463,0,0,0,.927-.374,2.608,2.608,0,0,0,.5-.662,3.358,3.358,0,0,1,1.084.063,3.548,3.548,0,0,1,1.42.68,3.316,3.316,0,0,1,.3.266,4.233,4.233,0,0,1,.315.913,4.6,4.6,0,0,1,.086.58C576.158-27.677,576.145-27.591,576.131-27.505Zm.083-5.162c-.018.072-.034.144-.051.216a11.477,11.477,0,0,0-1.985-1.841,23.069,23.069,0,0,0-2.062-1.5L572-35.867c-.018-.022-.036-.043-.055-.067-.044-.057-.088-.119-.132-.183l-.023-.057a5.811,5.811,0,0,1-.354-1.465c.028.027.056.054.086.078a3.152,3.152,0,0,0,.7-1.179,3.664,3.664,0,0,0,.179-.777c.08.051.163.1.256.152a3.025,3.025,0,0,1,.535.37,1.874,1.874,0,0,0,1.77.333,13.9,13.9,0,0,1,1.571,1.314l.389.388.025-.024c.055.287.1.564.134.818l.05.375c-.088.393-.2.782-.322,1.17a2.566,2.566,0,0,0-.933-1.267c-.424-.313-.647-.228-1.352-.628.327.3.345.675.543,1.108a3.72,3.72,0,0,1,.218.653,1.967,1.967,0,0,0,1.147,1.329C576.351-33.174,576.278-32.921,576.214-32.668Zm.416,9.01c-.028.046-.056.094-.084.142.226-1,.766-2,.913-3.01a9.372,9.372,0,0,0,.091-1.526l.025.026a2.846,2.846,0,0,0,.81-1.032,3.816,3.816,0,0,0,.35-1.51,2.6,2.6,0,0,0-.058-.639,2.76,2.76,0,0,1-.005-.9c-.165.453-.5.664-.785,1.128-.125.209-.29.456-.43.656a1.72,1.72,0,0,0-.167.295,7.476,7.476,0,0,0-.5-1.4,8.584,8.584,0,0,0,.8-2.139c.135-.513.261-1.036.355-1.563a3.849,3.849,0,0,1,.562,1.121,3.576,3.576,0,0,1,.232.734,2.837,2.837,0,0,0,.5,1.11,2.641,2.641,0,0,0,.7.67,8.645,8.645,0,0,1,.08.912,8.234,8.234,0,0,1-.062,1.356,11.265,11.265,0,0,1-.255,1.275c-.017.074-.031.144-.043.212-.033.051-.064.1-.1.153C578.649-26.232,577.486-25.057,576.63-23.658Zm1.051,1.384-.074.03c-.03.013-.059.03-.089.044l-.335.152a5.724,5.724,0,0,1,.7-1.357c.058-.044.12-.089.185-.136a9.884,9.884,0,0,1,1.361-.821,9.727,9.727,0,0,1,1.553-.613c.065-.019.127-.036.191-.054a.53.53,0,0,1,.082.038c.066.041.122.086.187.129a1.079,1.079,0,0,0,.543.184,1.386,1.386,0,0,0,.409-.029c-.662.4-1.34.781-2.025,1.138C579.486-23.112,578.586-22.687,577.681-22.275Zm7.468.128c-.139.012-.265.028-.386.046a15.376,15.376,0,0,0-1.832-.23,11.5,11.5,0,0,0-1.521.015,17.482,17.482,0,0,0,2.476-1.635,2.383,2.383,0,0,0,1.169.3,3.011,3.011,0,0,0,1.488-.418c.456-.251.467-.5,1.19-.918a4.2,4.2,0,0,1-1.292-.019,5.986,5.986,0,0,1-.729-.045,1.764,1.764,0,0,0-.586.026,16.423,16.423,0,0,0,1.392-1.5,18.438,18.438,0,0,1,2.532-.745c.16-.034.311-.064.457-.092a3.225,3.225,0,0,0,1.031.353,3.187,3.187,0,0,0,.77.029c-.15.235-.363.424-.566.693a3.518,3.518,0,0,1-.5.52,2.3,2.3,0,0,0-.78,1.872c-.254.207-.56.452-.91.692a6.347,6.347,0,0,1-1.268.694c-.247.066-.451.13-.62.185l0,.011A10.911,10.911,0,0,1,585.149-22.146Z" transform="translate(0)" fill="#fff"/>
      <g id="Group_267" data-name="Group 267" transform="translate(547.727 -47.685)" clip-path="url(#clip-path)">
        <path id="Path_495" data-name="Path 495" d="M654.358,109.268c.8.443,1.764.218,2.582.594a7.177,7.177,0,0,1,2.091,1.491,5.74,5.74,0,0,1,1.425,2.062,3.527,3.527,0,0,1,.169,1.363,3.268,3.268,0,0,0,0,.6,4.442,4.442,0,0,0,.184.715,4.337,4.337,0,0,1-.175,2.786c-.163.435-.406.833-.58,1.263a8.74,8.74,0,0,0-.372,1.212,6.051,6.051,0,0,1-1.03,2.212,7.173,7.173,0,0,1-1.908,1.8,5.57,5.57,0,0,1-3.017.812,17.5,17.5,0,0,1-3.348-.524.065.065,0,0,0-.034.125c1.894.529,4.056.9,5.908.029a6.6,6.6,0,0,0,2.029-1.558,6.482,6.482,0,0,0,1.31-2.107c.15-.413.22-.849.339-1.271a6.976,6.976,0,0,1,.523-1.307,5.284,5.284,0,0,0,.622-2.76,9.649,9.649,0,0,0-.315-1.3c-.1-.48.023-.971-.048-1.455a4.347,4.347,0,0,0-1.077-2.168,7.984,7.984,0,0,0-2.225-1.87,3.646,3.646,0,0,0-1.407-.464,4.228,4.228,0,0,1-1.615-.345c-.04-.022-.076.039-.036.061Z" transform="translate(-634.296 -84.721)" fill="#fff"/>
        <path id="Path_496" data-name="Path 496" d="M701.1,121.633a2.815,2.815,0,0,1,1.363,1.413,5.2,5.2,0,0,1,.257,1.033c.084.441.22.87.345,1.3a6.733,6.733,0,0,1,.285,1.309,2.771,2.771,0,0,1-.186,1.135,7.114,7.114,0,0,0-.333,1.072,8.555,8.555,0,0,1-.161.9,2.254,2.254,0,0,1-.469.906,1.588,1.588,0,0,1-.96.478c-.07.012-.054.129.017.124a1.677,1.677,0,0,0,1.39-1.052,3.443,3.443,0,0,0,.252-.932,5.485,5.485,0,0,1,.244-1.1,4.881,4.881,0,0,0,.315-1.147,3.719,3.719,0,0,0-.164-1.272c-.125-.478-.285-.945-.4-1.425-.1-.393-.134-.8-.265-1.182a2.907,2.907,0,0,0-1.48-1.646c-.055-.029-.1.055-.049.083Z" transform="translate(-677.15 -95.137)" fill="#fff"/>
        <path id="Path_497" data-name="Path 497" d="M678.923,109.733c.628,0,1.257-.069,1.885-.034a3.807,3.807,0,0,1,1.8.588,6.058,6.058,0,0,1,2.28,2.383,3.415,3.415,0,0,1,.334.883,4.577,4.577,0,0,1,.066.9,5.15,5.15,0,0,0,.305,1.678,3.265,3.265,0,0,1,.172,1.834,9.451,9.451,0,0,1-.644,1.63,5.073,5.073,0,0,0-.312,1.047,3.92,3.92,0,0,1-.336,1.1c-.3.559-.833.942-1.183,1.466-.039.059.055.112.094.055.337-.489.829-.848,1.142-1.356a8.727,8.727,0,0,0,.584-1.912c.2-.6.54-1.141.722-1.749a3.045,3.045,0,0,0,.021-1.713,7.577,7.577,0,0,1-.442-1.806,4.574,4.574,0,0,0-.262-1.778,6.016,6.016,0,0,0-2.155-2.54,4.236,4.236,0,0,0-1.849-.777,16.617,16.617,0,0,0-2.219.022.04.04,0,0,0,0,.08Z" transform="translate(-658.418 -85.052)" fill="#fff"/>
        <path id="Path_498" data-name="Path 498" d="M718.789,131.557a13.088,13.088,0,0,1,.467,1.267,9.628,9.628,0,0,0,.552,1.078,3.554,3.554,0,0,1,.407,1.162,8.511,8.511,0,0,1,.044,1.272,14.96,14.96,0,0,0,.075,2.386,4.564,4.564,0,0,0,.915,2.151,3.167,3.167,0,0,0,1.845,1.176c.069.015.1-.091.029-.107a3.041,3.041,0,0,1-1.729-1.064,4.471,4.471,0,0,1-.957-2.215,16.29,16.29,0,0,1-.068-2.419,8.2,8.2,0,0,0-.049-1.194,3.38,3.38,0,0,0-.319-1c-.206-.425-.479-.812-.648-1.256a10.85,10.85,0,0,0-.5-1.275c-.021-.039-.079,0-.06.035Z" transform="translate(-692.093 -103.544)" fill="#fff"/>
        <path id="Path_499" data-name="Path 499" d="M717.739,129.486a10.775,10.775,0,0,1,.62.9c.183.282.392.541.586.815a2.9,2.9,0,0,1,.4.881c.092.316.181.637.253.958a12.83,12.83,0,0,1,.153,2.08,4.511,4.511,0,0,0,.447,1.754,2.36,2.36,0,0,0,1.137,1.26c.05.019.085-.063.036-.087a2.379,2.379,0,0,1-1.091-1.252,5.048,5.048,0,0,1-.408-1.9,9.312,9.312,0,0,0-.179-1.98,5.6,5.6,0,0,0-.6-1.691c-.2-.3-.448-.577-.653-.881a10.96,10.96,0,0,0-.648-.9c-.031-.037-.082.016-.052.053Z" transform="translate(-691.203 -101.785)" fill="#fff"/>
        <path id="Path_500" data-name="Path 500" d="M720.581,145.073c.209.756.762,1.373.813,2.176a19.371,19.371,0,0,1-.144,2.444,5.49,5.49,0,0,0,.2,2.145,3.242,3.242,0,0,0,1.247,1.623,3.848,3.848,0,0,0,2.205.724.056.056,0,0,0,0-.112,3.665,3.665,0,0,1-3.35-2.323c-.477-1.46.055-2.983-.038-4.47a2.659,2.659,0,0,0-.3-1.05,8.857,8.857,0,0,1-.576-1.172.028.028,0,0,0-.053.015Z" transform="translate(-693.607 -114.966)" fill="#fff"/>
        <path id="Path_501" data-name="Path 501" d="M721.347,166.328a7.334,7.334,0,0,0-.088,2.041,6.96,6.96,0,0,0,.282,2.274,4.1,4.1,0,0,0,2.51,2.566,2.4,2.4,0,0,0,2.024.018.056.056,0,0,0-.057-.1,2.322,2.322,0,0,1-1.813.012,3.94,3.94,0,0,1-1.56-.93,4.1,4.1,0,0,1-.978-1.548,6.385,6.385,0,0,1-.3-2.082q-.005-.565-.018-1.13a3.638,3.638,0,0,1,.091-1.1.051.051,0,0,0-.1-.027Z" transform="translate(-694.158 -132.903)" fill="#fff"/>
        <path id="Path_502" data-name="Path 502" d="M699.742,169.174a9.127,9.127,0,0,0-.427,2.163,3.889,3.889,0,0,1-.557,2.013c-.357.436-.871.709-1.224,1.155a2.636,2.636,0,0,0-.392.681,6.031,6.031,0,0,0-.209.864,1.9,1.9,0,0,1-1.178,1.473.053.053,0,0,0,.028.1,1.621,1.621,0,0,0,1.11-1.031,13.051,13.051,0,0,1,.545-1.731,7.374,7.374,0,0,1,1.29-1.3,2.88,2.88,0,0,0,.64-1.715,13.711,13.711,0,0,1,.457-2.653c.018-.054-.066-.076-.085-.023Z" transform="translate(-672.626 -135.31)" fill="#fff"/>
        <path id="Path_503" data-name="Path 503" d="M730.663,211.482a3.474,3.474,0,0,0,2.049.972,4.226,4.226,0,0,0,1.192-.014,2.484,2.484,0,0,0,1.081-.374c.058-.043.027-.158-.054-.128a6.506,6.506,0,0,1-1.019.343,3.875,3.875,0,0,1-1.124.043,3.439,3.439,0,0,1-2.059-.908.047.047,0,0,0-.066.066Z" transform="translate(-702.106 -170.974)" fill="#fff"/>
        <path id="Path_504" data-name="Path 504" d="M736.25,216.482a4.516,4.516,0,0,0,2.607.507,3.453,3.453,0,0,0,2.328-1.089.083.083,0,0,0-.117-.117,4.136,4.136,0,0,1-1.031.724,4.07,4.07,0,0,1-1.238.319,4.553,4.553,0,0,1-2.5-.432c-.058-.03-.109.056-.052.088Z" transform="translate(-706.812 -174.651)" fill="#fff"/>
        <path id="Path_505" data-name="Path 505" d="M743.379,215.152a4.254,4.254,0,0,0,3.248-.133,9.348,9.348,0,0,0,1.31-.841,4.744,4.744,0,0,0,.6-.537,1.3,1.3,0,0,0,.382-.588c.011-.075-.075-.145-.137-.08-.155.162-.254.375-.409.541a4.743,4.743,0,0,1-.593.531,10.641,10.641,0,0,1-1.2.791,4.156,4.156,0,0,1-3.175.208c-.069-.021-.1.086-.03.108Z" transform="translate(-712.816 -172.278)" fill="#fff"/>
        <path id="Path_506" data-name="Path 506" d="M767.255,221.293a1.612,1.612,0,0,0,1.4-.022c.482-.178.954-.492,1.467-.24.224.11.424.268.641.393a4.889,4.889,0,0,0,.6.3,2.327,2.327,0,0,0,1.215.192,1.441,1.441,0,0,0,1.125-.847.1.1,0,0,0-.166-.1,4.678,4.678,0,0,1-.47.5,1.253,1.253,0,0,1-.557.22,2.23,2.23,0,0,1-1.161-.214c-.412-.177-.762-.467-1.17-.643a1.371,1.371,0,0,0-1.166.105c-.5.227-1.156.556-1.693.246a.065.065,0,0,0-.066.112Z" transform="translate(-732.974 -178.854)" fill="#fff"/>
        <path id="Path_507" data-name="Path 507" d="M812.179,228.033a3.928,3.928,0,0,0,2.522.549,5.02,5.02,0,0,1,1.33.137,1.786,1.786,0,0,1,.584.283,3.934,3.934,0,0,1,.469.527.082.082,0,0,0,.136-.079,1.452,1.452,0,0,0-.676-.721,2.5,2.5,0,0,0-.931-.28c-.735-.091-1.48.015-2.217-.069a2.35,2.35,0,0,1-1.16-.419c-.042-.031-.1.04-.057.073Z" transform="translate(-770.901 -184.941)" fill="#fff"/>
        <path id="Path_508" data-name="Path 508" d="M834.105,231.679a6.2,6.2,0,0,1,1.078.047,6.91,6.91,0,0,1,1.113.189,3.168,3.168,0,0,1,.916.436c.3.2.527.468.8.694.076.062.214-.019.148-.114a3.261,3.261,0,0,0-1.734-1.176,6.125,6.125,0,0,0-1.092-.173,5.562,5.562,0,0,0-1.23-.007c-.065.008-.069.11,0,.105Z" transform="translate(-789.376 -187.972)" fill="#fff"/>
        <path id="Path_509" data-name="Path 509" d="M792.047,228.555a3.212,3.212,0,0,0,1.626.652,2.624,2.624,0,0,1,.814.287,1.385,1.385,0,0,1,.348.3,3.962,3.962,0,0,1,.284.472.072.072,0,0,0,.131-.055,1.679,1.679,0,0,0-1.353-1.11,3.906,3.906,0,0,1-1.783-.613c-.046-.039-.112.025-.067.067Z" transform="translate(-753.91 -185.383)" fill="#fff"/>
        <path id="Path_510" data-name="Path 510" d="M661.78,215.322a1.436,1.436,0,0,0-1.231-.19,4.258,4.258,0,0,0-1.191.679,3.389,3.389,0,0,1-1.248.653,3.1,3.1,0,0,1-1.988-.357,2.619,2.619,0,0,1-.673-.438,2.674,2.674,0,0,1-.489-.723c-.039-.073-.14-.02-.126.053a1.72,1.72,0,0,0,.834,1.106,4,4,0,0,0,1.672.611,2.52,2.52,0,0,0,1.592-.367c.408-.252.773-.569,1.188-.811a1.457,1.457,0,0,1,1.577-.076c.091.055.171-.084.083-.142Z" transform="translate(-638.119 -173.936)" fill="#fff"/>
        <path id="Path_511" data-name="Path 511" d="M650.84,219.395a3.5,3.5,0,0,1-.9-.541,2.065,2.065,0,0,1-.37-.387,1.214,1.214,0,0,1-.123-.215,1.206,1.206,0,0,0-.1-.229.079.079,0,0,0-.142.019.688.688,0,0,0,.172.527,2.088,2.088,0,0,0,.405.428,3.8,3.8,0,0,0,1.006.573C650.9,219.612,650.945,219.439,650.84,219.395Z" transform="translate(-633.362 -176.53)" fill="#fff"/>
        <path id="Path_512" data-name="Path 512" d="M644.143,224.142a1.853,1.853,0,0,0,.412.289l.04.02a.638.638,0,0,1,.241-.1c-.057-.026-.113-.054-.166-.083a1.705,1.705,0,0,1-.362-.259,1.036,1.036,0,0,1-.128-.142c-.036-.05-.061-.108-.1-.158a.09.09,0,0,0-.166.045A.618.618,0,0,0,644.143,224.142Z" transform="translate(-628.909 -181.329)" fill="#fff"/>
        <path id="Path_513" data-name="Path 513" d="M675.411,223.2a4.689,4.689,0,0,1-1.336.456,5.484,5.484,0,0,1-.7.03,1.362,1.362,0,0,0-.651.113c-.072.04-.045.174.044.164a6.954,6.954,0,0,1,.694-.055,4.072,4.072,0,0,0,.72-.052,5.2,5.2,0,0,0,1.322-.5c.1-.051.013-.2-.09-.154Z" transform="translate(-653.182 -180.921)" fill="#fff"/>
        <path id="Path_514" data-name="Path 514" d="M708.829,146.642a2.4,2.4,0,0,1,.416,1.387,1.856,1.856,0,0,1-.452,1.35.059.059,0,0,0,.083.083,1.954,1.954,0,0,0,.487-1.4,2.443,2.443,0,0,0-.448-1.473c-.038-.049-.123,0-.085.05Z" transform="translate(-683.645 -116.26)" fill="#fff"/>
        <path id="Path_515" data-name="Path 515" d="M703.063,101.824a7.429,7.429,0,0,1,1.476,1.55,4.5,4.5,0,0,1,.374,1.072,3.737,3.737,0,0,1,.153,1.225c-.005.061.1.077.109.015a3.1,3.1,0,0,0-.085-1.159,5.178,5.178,0,0,0-.38-1.157,6.317,6.317,0,0,0-1.567-1.624c-.052-.048-.13.028-.078.078Z" transform="translate(-678.81 -78.416)" fill="#fff"/>
        <path id="Path_516" data-name="Path 516" d="M733.557,112.5a7.058,7.058,0,0,0-.72,1.914,3.474,3.474,0,0,0,.187,1.964,3.955,3.955,0,0,1,.29.971,2.768,2.768,0,0,1-.144,1.09,3.982,3.982,0,0,0-.282,1.944,2.863,2.863,0,0,0,1.018,1.668c.069.053.157-.062.093-.121a3.048,3.048,0,0,1-.923-1.512,3.873,3.873,0,0,1,.258-1.968,3.172,3.172,0,0,0,.145-.954,2.753,2.753,0,0,0-.18-.828,7.6,7.6,0,0,1-.314-.9,3.1,3.1,0,0,1-.044-1.016,7.026,7.026,0,0,1,.718-2.19c.032-.068-.067-.129-.1-.06Z" transform="translate(-703.897 -87.478)" fill="#fff"/>
        <path id="Path_517" data-name="Path 517" d="M721.344,97.813a9.328,9.328,0,0,0,.558,3.641c.108.275.223.548.312.831a2.9,2.9,0,0,1,.127.979,4.493,4.493,0,0,0,.142,1.728,4.8,4.8,0,0,0,.938,1.545c.064.072.165-.032.1-.105a5.082,5.082,0,0,1-.876-1.454,4.471,4.471,0,0,1-.145-1.713,4.108,4.108,0,0,0-.388-1.665,8.472,8.472,0,0,1-.5-1.672,14.307,14.307,0,0,1-.2-2.113.037.037,0,0,0-.074,0Z" transform="translate(-694.249 -75.079)" fill="#fff"/>
        <path id="Path_518" data-name="Path 518" d="M720.7,93.825c1.4.868,1.03,2.884.993,4.266-.005.2-.007.406,0,.608a1.31,1.31,0,0,0,.074.514c.017.034.081.03.087-.011a2.726,2.726,0,0,0-.03-.483c-.009-.188-.009-.375,0-.563.009-.409.036-.817.049-1.226a5.082,5.082,0,0,0-.3-2.3,2.085,2.085,0,0,0-.809-.911c-.065-.04-.123.062-.059.1Z" transform="translate(-693.687 -71.65)" fill="#fff"/>
        <path id="Path_519" data-name="Path 519" d="M737.675,111.323a4.083,4.083,0,0,0-.633,2.421,7.819,7.819,0,0,0,.058,1.62,8.743,8.743,0,0,0,.176.862,4.51,4.51,0,0,0,.276.863c.027.056.1.014.095-.04-.053-.28-.157-.551-.229-.827s-.126-.527-.169-.795a7.427,7.427,0,0,1-.075-1.616,9.5,9.5,0,0,1,.128-1.231,2.463,2.463,0,0,1,.468-1.164c.055-.064-.038-.157-.093-.093Z" transform="translate(-707.486 -86.493)" fill="#fff"/>
        <path id="Path_520" data-name="Path 520" d="M742.493,104.5c.12.9-.884,1.354-1.53,1.731a2.211,2.211,0,0,0-.855.745,2.443,2.443,0,0,0-.3,1.284,3.218,3.218,0,0,0,.11.781,1.58,1.58,0,0,0,.288.64.073.073,0,0,0,.121-.071c-.067-.2-.17-.388-.228-.6a3.012,3.012,0,0,1-.108-.707,2.2,2.2,0,0,1,.346-1.351,2.79,2.79,0,0,1,.929-.692,4.647,4.647,0,0,0,.991-.7,1.257,1.257,0,0,0,.392-1.088c-.013-.089-.17-.069-.158.021Z" transform="translate(-709.835 -80.685)" fill="#fff"/>
        <path id="Path_521" data-name="Path 521" d="M744.108,104.878c-.6-.972.376-2.039,1.152-2.55s1.918-.664,2.31-1.63c.139-.342.243-.991-.23-1.132-.077-.023-.152.088-.083.143a.541.541,0,0,1,.237.515,1.48,1.48,0,0,1-.2.618,2.6,2.6,0,0,1-1.255.9,5.179,5.179,0,0,0-1.194.694,3.215,3.215,0,0,0-.9,1.113,1.407,1.407,0,0,0,.077,1.382c.036.055.123,0,.088-.051Z" transform="translate(-713.203 -76.586)" fill="#fff"/>
        <path id="Path_522" data-name="Path 522" d="M749.287,117.888c.084-.878,1.078-1.306,1.81-1.541.681-.219,1.579-.46,2.146.128a1.662,1.662,0,0,1,.329.526c.1.234.126.487.216.721a.081.081,0,0,0,.158-.021,2.174,2.174,0,0,0-.457-1.242,1.412,1.412,0,0,0-.971-.534,3.293,3.293,0,0,0-1.351.208,4.354,4.354,0,0,0-1.259.582,1.6,1.6,0,0,0-.722,1.175c0,.065.094.063.1,0Z" transform="translate(-717.75 -90.383)" fill="#fff"/>
        <path id="Path_523" data-name="Path 523" d="M760.118,120.887a1.283,1.283,0,0,1,.925-.586.85.85,0,0,1,.507.085.961.961,0,0,1,.363.438c.027.05.1.014.087-.037a.84.84,0,0,0-.947-.6,1.348,1.348,0,0,0-1.016.655.047.047,0,0,0,.082.048Z" transform="translate(-726.901 -93.985)" fill="#fff"/>
        <path id="Path_524" data-name="Path 524" d="M799.737,127.122a4.21,4.21,0,0,1,.5-.4,1.3,1.3,0,0,1,.577-.182c.253-.024.507-.006.76-.02a.937.937,0,0,0,.661-.211.058.058,0,0,0-.056-.1c-.13.021-.25.095-.381.121a2.133,2.133,0,0,1-.391.034,3.835,3.835,0,0,0-.755.05,2.293,2.293,0,0,0-1,.622c-.058.051.026.134.084.084Z" transform="translate(-760.325 -99.075)" fill="#fff"/>
        <path id="Path_525" data-name="Path 525" d="M804.537,132.074a2.222,2.222,0,0,1,1.428-.166,2.386,2.386,0,0,1,.651.22,3.626,3.626,0,0,1,.632.464c.447.369.9.727,1.361,1.08q.367.283.737.563a4.409,4.409,0,0,0,.752.542.076.076,0,0,0,.091-.118,4.62,4.62,0,0,0-.748-.588q-.417-.315-.831-.635c-.515-.4-1.016-.814-1.524-1.222a2.418,2.418,0,0,0-2.612-.245c-.07.038-.008.142.062.106Z" transform="translate(-764.386 -103.703)" fill="#fff"/>
        <path id="Path_526" data-name="Path 526" d="M829.244,134.631a2.4,2.4,0,0,0,.922,1.209,4.363,4.363,0,0,1,.574.561,1.583,1.583,0,0,1,.313.734c.017.087.151.064.151-.02a1.9,1.9,0,0,0-.829-1.3,2.525,2.525,0,0,1-.993-1.224c-.02-.09-.158-.052-.138.038Z" transform="translate(-785.314 -106.107)" fill="#fff"/>
        <path id="Path_527" data-name="Path 527" d="M772.072,89.007c-.194-.446.092-.837.4-1.142.277-.277.594-.513.86-.8a2.371,2.371,0,0,0,.565-.966,2.2,2.2,0,0,0,.006-1.206.07.07,0,0,0-.137.019c-.008.233.034.465.024.7a2,2,0,0,1-.113.592,2.685,2.685,0,0,1-.77,1.046c-.5.45-1.281,1.062-.939,1.823.033.073.139.01.107-.063Z" transform="translate(-736.903 -64.161)" fill="#fff"/>
        <path id="Path_528" data-name="Path 528" d="M789.623,72.559c-.726-.53.542-1.516.9-1.879a2.647,2.647,0,0,0,.9-2.291c-.017-.092-.156-.066-.158.021a2.794,2.794,0,0,1-.319,1.441,5.516,5.516,0,0,1-.908,1.052c-.388.392-1.15,1.273-.47,1.742.054.037.1-.049.051-.086Z" transform="translate(-751.605 -50.228)" fill="#fff"/>
        <path id="Path_529" data-name="Path 529" d="M728.855,97.427a17.9,17.9,0,0,1,.315-3.538A7.65,7.65,0,0,1,729.8,92.3a8.388,8.388,0,0,0,.653-1.451,5.05,5.05,0,0,0,.2-1.683.1.1,0,0,0-.2,0,7.677,7.677,0,0,1-.176,1.549,8.036,8.036,0,0,1-.646,1.49,7.992,7.992,0,0,0-.6,1.5,8.4,8.4,0,0,0-.255,1.724c-.035.664-.019,1.329-.027,1.993a.047.047,0,0,0,.093,0Z" transform="translate(-700.513 -67.733)" fill="#fff"/>
        <path id="Path_530" data-name="Path 530" d="M738.369,85.332a1.449,1.449,0,0,1,.23-1.192c.2-.362.447-.691.665-1.04a3.737,3.737,0,0,0,.5-1.332,3.442,3.442,0,0,0,.052-.722,1.588,1.588,0,0,0-.13-.68.087.087,0,0,0-.161.044c.016.253.092.494.093.752a3.425,3.425,0,0,1-.1.813,3.892,3.892,0,0,1-.562,1.246c-.385.582-1.036,1.43-.723,2.169.032.075.163.021.132-.056Z" transform="translate(-708.439 -60.349)" fill="#fff"/>
        <path id="Path_531" data-name="Path 531" d="M748.617,51.653c.225,1.132.8,2.323.251,3.455a3.827,3.827,0,0,1-1.538,1.773.837.837,0,0,1-.531.1,1.1,1.1,0,0,1-.495-.336.088.088,0,0,0-.137.106.844.844,0,0,0,.949.436,2.122,2.122,0,0,0,1.026-.691,3.7,3.7,0,0,0,1.142-2.512,11.018,11.018,0,0,0-.535-2.363c-.02-.086-.149-.049-.132.036Z" transform="translate(-715.195 -36.08)" fill="#fff"/>
        <path id="Path_532" data-name="Path 532" d="M752.022,58.468a4.318,4.318,0,0,1-.014,2.154c-.2.555-.7,1.275-1.359,1.244-.1,0-.121.155-.023.171.695.117,1.26-.713,1.488-1.26a4.225,4.225,0,0,0,.04-2.346c-.017-.086-.147-.05-.132.036Z" transform="translate(-718.913 -41.831)" fill="#fff"/>
        <path id="Path_533" data-name="Path 533" d="M711.7,28.866c-.479,1.266.685,2.476,1.47,3.323a10.874,10.874,0,0,1,1.273,1.47,4.251,4.251,0,0,1,.372,2.624,3.494,3.494,0,0,0,.106,1.377,6.688,6.688,0,0,0,.632,1.212.087.087,0,0,0,.151-.088,7.261,7.261,0,0,1-.586-1.075,2.9,2.9,0,0,1-.148-1.24,5.319,5.319,0,0,0-.243-2.631,5.688,5.688,0,0,0-1.09-1.383,14.118,14.118,0,0,1-1.388-1.582,2.171,2.171,0,0,1-.45-1.978c.023-.063-.077-.089-.1-.028Z" transform="translate(-686.015 -16.892)" fill="#fff"/>
        <path id="Path_534" data-name="Path 534" d="M723.466,89.817a3.489,3.489,0,0,1,.651.7,2.285,2.285,0,0,1,.3.683,1.286,1.286,0,0,0,.226.533.337.337,0,0,0,.476.025.067.067,0,0,0-.065-.111c-.076.027-.152.08-.235.045a.332.332,0,0,1-.144-.17,3.455,3.455,0,0,1-.166-.514,2.867,2.867,0,0,0-.959-1.278c-.059-.05-.145.034-.086.086Z" transform="translate(-696.027 -68.276)" fill="#fff"/>
        <path id="Path_535" data-name="Path 535" d="M719.558,36.945c.293.535.521,1.105.808,1.644a4.781,4.781,0,0,0,1.227,1.668c.184.134.5.284.718.149a.05.05,0,0,0-.025-.092.985.985,0,0,1-.32,0,.943.943,0,0,1-.313-.159,2.912,2.912,0,0,1-.639-.708A14.164,14.164,0,0,1,720,37.625c-.12-.243-.234-.49-.37-.725a.045.045,0,0,0-.077.045Z" transform="translate(-692.74 -23.682)" fill="#fff"/>
        <path id="Path_536" data-name="Path 536" d="M729.1-6.422a12.3,12.3,0,0,1,1.629,6.5A11.413,11.413,0,0,1,730.4,2.04a.063.063,0,0,0,.122.034,8.928,8.928,0,0,0,.314-3.457,12.019,12.019,0,0,0-.806-3.327,15.65,15.65,0,0,0-.833-1.771c-.036-.065-.135-.007-.1.059Z" transform="translate(-700.792 12.935)" fill="#fff"/>
        <path id="Path_537" data-name="Path 537" d="M692.211,19.651c.619.6.99,1.4,1.6,2a12.057,12.057,0,0,1,.927.885c.267.333.34.767.578,1.114a.08.08,0,0,0,.139-.081,5.719,5.719,0,0,0-.539-1.1,8.222,8.222,0,0,0-.945-.9c-.633-.606-1.03-1.412-1.672-2.01-.055-.051-.138.03-.083.083Z" transform="translate(-669.65 -9.06)" fill="#fff"/>
        <path id="Path_538" data-name="Path 538" d="M679.752,56.874a2.338,2.338,0,0,0,.312,1.8,2.845,2.845,0,0,0,.522.772,3.928,3.928,0,0,0,.954.651,8.427,8.427,0,0,1,1.04.595,2.331,2.331,0,0,1,.742.991,5.7,5.7,0,0,0,.513,1.039,3.2,3.2,0,0,0,.536.575c.36.309,1.238.879,1.571.219a.082.082,0,0,0-.127-.1.592.592,0,0,1-.693.146,2.334,2.334,0,0,1-.735-.492,2.811,2.811,0,0,1-.508-.6,8.572,8.572,0,0,1-.431-.918,2.44,2.44,0,0,0-.579-.833,4.234,4.234,0,0,0-.911-.567,3.661,3.661,0,0,1-1.6-1.224,4.259,4.259,0,0,1-.45-.993,1.527,1.527,0,0,1-.047-1.012c.025-.059-.079-.1-.1-.044Z" transform="translate(-659.076 -40.535)" fill="#fff"/>
        <path id="Path_539" data-name="Path 539" d="M641.379,68.213a1.726,1.726,0,0,0,.8,1.054,5.439,5.439,0,0,0,1.6.727,3.662,3.662,0,0,0,1.471.191c.187-.025.368-.079.553-.114a1.517,1.517,0,0,1,.741.035,3.283,3.283,0,0,0,1.093.289c.643-.035.671-.808.35-1.226-.043-.055-.145-.027-.122.051.072.247.232.512.134.777s-.415.264-.648.215c-.356-.075-.68-.262-1.044-.31a3.193,3.193,0,0,0-.994.13,3.273,3.273,0,0,1-1.394-.139,5.841,5.841,0,0,1-1.462-.594,1.831,1.831,0,0,1-.991-1.109c-.01-.056-.094-.032-.085.023Z" transform="translate(-626.765 -50.081)" fill="#fff"/>
        <path id="Path_540" data-name="Path 540" d="M661.419,82.907a3.254,3.254,0,0,1,1.725-.474,3.766,3.766,0,0,1,1.712.487,1.384,1.384,0,0,0,.732.2,1.451,1.451,0,0,1,.8.061c.436.212.546.651.675,1.079.028.092.178.079.173-.023a1.465,1.465,0,0,0-.621-1.178,1.188,1.188,0,0,0-.666-.173c-.16.008-.319.05-.48.044a1.335,1.335,0,0,1-.543-.183,3.859,3.859,0,0,0-1.778-.482,3.342,3.342,0,0,0-1.785.544c-.064.041-.006.143.06.1Z" transform="translate(-643.604 -61.983)" fill="#fff"/>
        <path id="Path_541" data-name="Path 541" d="M703.018,98.576a4.292,4.292,0,0,1,2.212,1.789,3.957,3.957,0,0,1,.458,1.459,5.9,5.9,0,0,0,.33,1.605c.251.586.635,1.1.84,1.708a.064.064,0,0,0,.123-.034,6.5,6.5,0,0,0-.739-1.57,5.332,5.332,0,0,1-.4-1.751,3.85,3.85,0,0,0-1.346-2.53,5.183,5.183,0,0,0-1.44-.815c-.086-.033-.123.1-.038.138Z" transform="translate(-678.745 -75.632)" fill="#fff"/>
        <path id="Path_542" data-name="Path 542" d="M641.174,111.984a.97.97,0,0,1,.629-.592,7.558,7.558,0,0,1,.829-.124,1.377,1.377,0,0,0,.725-.394,1.043,1.043,0,0,0,.221-.359.534.534,0,0,0,.016-.428.107.107,0,0,0-.183,0,.571.571,0,0,0-.034.215.686.686,0,0,1-.058.2.868.868,0,0,1-.244.3,1.424,1.424,0,0,1-.781.283,1.823,1.823,0,0,0-.775.227,1.173,1.173,0,0,0-.484.627c-.031.089.107.124.14.039Z" transform="translate(-626.47 -85.425)" fill="#fff"/>
        <path id="Path_543" data-name="Path 543" d="M658.592,110.584a1.569,1.569,0,0,0,.163-1.054,1.717,1.717,0,0,0-.18-.474,2,2,0,0,0-.152-.235.594.594,0,0,0-.186-.2c-.056-.027-.143.019-.117.09a.706.706,0,0,0,.129.183,1.962,1.962,0,0,1,.139.2,1.587,1.587,0,0,1,.188.438,1.383,1.383,0,0,1-.124.967c-.047.092.091.174.139.081Z" transform="translate(-640.891 -84.229)" fill="#fff"/>
        <path id="Path_544" data-name="Path 544" d="M652.415,101.5c.168-.277.54-.294.83-.3a3.877,3.877,0,0,0,.83-.03,1.692,1.692,0,0,0,.754-.376c.178-.163.345-.519.119-.719-.053-.047-.168-.021-.157.065.017.136.072.227,0,.359a.766.766,0,0,1-.276.262,1.605,1.605,0,0,1-.716.24c-.475.038-1.217-.069-1.5.429a.066.066,0,0,0,.113.066Z" transform="translate(-635.976 -77.004)" fill="#fff"/>
        <path id="Path_545" data-name="Path 545" d="M651.368,93.828c.79-.5,1.753.045,2.527.324.492.178,1.394.466,1.628-.244.026-.079-.089-.151-.144-.084a.784.784,0,0,1-.384.327.986.986,0,0,1-.471-.007,6.894,6.894,0,0,1-.943-.309c-.726-.269-1.565-.622-2.263-.092-.049.037-.005.12.05.086Z" transform="translate(-635.135 -71.442)" fill="#fff"/>
      </g>
    </g>
  </g>
</svg>
